<svg width="104" height="104" viewBox="0 0 104 104" fill="none" xmlns="http://www.w3.org/2000/svg">
<path d="M40.712 43.088L34.784 59H30.896L35.672 46.448H29.96V43.088H40.712ZM48.6063 59.024C47.3903 59.024 46.2703 58.736 45.2463 58.16C44.2383 57.584 43.4303 56.696 42.8223 55.496C42.2143 54.296 41.9103 52.784 41.9103 50.96C41.9103 48.912 42.1983 47.304 42.7743 46.136C43.3663 44.952 44.1663 44.112 45.1743 43.616C46.1823 43.12 47.3263 42.88 48.6063 42.896C49.8383 42.88 50.9583 43.168 51.9663 43.76C52.9743 44.336 53.7823 45.224 54.3903 46.424C54.9983 47.608 55.3023 49.12 55.3023 50.96C55.3023 52.864 54.9903 54.416 54.3663 55.616C53.7583 56.8 52.9503 57.664 51.9423 58.208C50.9343 58.752 49.8223 59.024 48.6063 59.024ZM48.5823 55.688C49.3823 55.688 50.0063 55.48 50.4543 55.064C50.9023 54.632 51.2143 54.048 51.3903 53.312C51.5823 52.576 51.6783 51.76 51.6783 50.864C51.6783 49.984 51.5823 49.2 51.3903 48.512C51.2143 47.824 50.9023 47.28 50.4543 46.88C50.0063 46.464 49.3823 46.256 48.5823 46.256C47.7983 46.256 47.1823 46.464 46.7343 46.88C46.2863 47.296 45.9743 47.856 45.7983 48.56C45.6223 49.264 45.5343 50.056 45.5343 50.936C45.5343 51.816 45.6223 52.616 45.7983 53.336C45.9743 54.056 46.2863 54.632 46.7343 55.064C47.1823 55.48 47.7983 55.688 48.5823 55.688ZM60.8446 51.944C59.9646 51.944 59.2366 51.744 58.6606 51.344C58.0846 50.944 57.6606 50.4 57.3886 49.712C57.1166 49.024 56.9806 48.248 56.9806 47.384C56.9806 46.52 57.1166 45.752 57.3886 45.08C57.6606 44.392 58.0846 43.848 58.6606 43.448C59.2366 43.048 59.9646 42.848 60.8446 42.848C61.7246 42.848 62.4446 43.048 63.0046 43.448C63.5806 43.848 64.0046 44.392 64.2766 45.08C64.5646 45.752 64.7086 46.52 64.7086 47.384C64.7086 48.248 64.5646 49.024 64.2766 49.712C64.0046 50.4 63.5806 50.944 63.0046 51.344C62.4446 51.744 61.7246 51.944 60.8446 51.944ZM73.6126 42.848L61.9486 59.048L58.6606 59L70.2766 42.848H73.6126ZM59.9086 47.384C59.9086 48.04 59.9726 48.576 60.1006 48.992C60.2286 49.392 60.4766 49.592 60.8446 49.592C61.2126 49.592 61.4526 49.392 61.5646 48.992C61.6926 48.576 61.7566 48.04 61.7566 47.384C61.7566 46.632 61.6926 46.088 61.5646 45.752C61.4526 45.4 61.2126 45.224 60.8446 45.224C60.4766 45.224 60.2286 45.4 60.1006 45.752C59.9726 46.088 59.9086 46.632 59.9086 47.384ZM70.8766 59.672C69.9966 59.672 69.2686 59.472 68.6926 59.072C68.1166 58.672 67.6926 58.128 67.4206 57.44C67.1486 56.752 67.0126 55.976 67.0126 55.112C67.0126 54.248 67.1486 53.48 67.4206 52.808C67.6926 52.12 68.1166 51.576 68.6926 51.176C69.2686 50.776 69.9966 50.576 70.8766 50.576C71.7566 50.576 72.4766 50.776 73.0366 51.176C73.6126 51.576 74.0366 52.12 74.3086 52.808C74.5966 53.48 74.7406 54.248 74.7406 55.112C74.7406 55.976 74.5966 56.752 74.3086 57.44C74.0366 58.128 73.6126 58.672 73.0366 59.072C72.4766 59.472 71.7566 59.672 70.8766 59.672ZM69.9406 55.112C69.9406 55.768 70.0046 56.304 70.1326 56.72C70.2606 57.12 70.5086 57.32 70.8766 57.32C71.2446 57.32 71.4846 57.12 71.5966 56.72C71.7246 56.304 71.7886 55.768 71.7886 55.112C71.7886 54.36 71.7246 53.816 71.5966 53.48C71.4846 53.128 71.2446 52.952 70.8766 52.952C70.5086 52.952 70.2606 53.128 70.1326 53.48C70.0046 53.816 69.9406 54.36 69.9406 55.112Z" fill="url(#paint0_linear)"/>
<path d="M31.4168 4.24719C42.2816 -0.435971 54.4187 -1.27408 65.8242 1.87124C77.2296 5.01656 87.2215 11.9572 94.1502 21.5474C101.079 31.1375 104.53 42.8037 103.934 54.6199C103.338 66.4361 98.7301 77.6957 90.8715 86.5399C83.0129 95.3841 72.3732 101.284 60.7091 103.265C49.045 105.247 37.0539 103.192 26.7155 97.4389C16.3771 91.6861 8.30956 82.5798 3.84479 71.6234C-0.619975 60.6669 -1.215 48.5155 2.15797 37.1753L10.4896 39.6534C7.68046 49.098 8.17602 59.2182 11.8945 68.3431C15.6129 77.468 22.3319 85.0522 30.9421 89.8433C39.5523 94.6345 49.539 96.3462 59.2533 94.6959C68.9676 93.0456 77.8287 88.132 84.3737 80.7662C90.9187 73.4004 94.7562 64.0229 95.2526 54.182C95.7491 44.341 92.8748 34.6249 87.1043 26.6379C81.3339 18.6508 73.0122 12.8703 63.5133 10.2508C54.0144 7.63125 43.9062 8.32926 34.8575 12.2296L31.4168 4.24719Z" fill="url(#paint1_linear)"/>
<circle cx="52" cy="52" r="51.5" stroke="#F2F2F2"/>
<defs>
<linearGradient id="paint0_linear" x1="53.5" y1="41" x2="53.5" y2="63" gradientUnits="userSpaceOnUse">
<stop stop-color="#F57921"/>
<stop offset="0.475639" stop-color="#F87A21"/>
<stop offset="1" stop-color="#600085"/>
</linearGradient>
<linearGradient id="paint1_linear" x1="52" y1="0" x2="52" y2="104" gradientUnits="userSpaceOnUse">
<stop stop-color="#F57921"/>
<stop offset="0.475639" stop-color="#F87A21"/>
<stop offset="1" stop-color="#600085"/>
</linearGradient>
</defs>
</svg>
