<svg width="105" height="105" viewBox="0 0 105 105" fill="none" xmlns="http://www.w3.org/2000/svg">
<path d="M34.2 44.088H38.976V60H35.472V47.448H34.2V44.088ZM48.786 60.024C47.57 60.024 46.45 59.736 45.426 59.16C44.418 58.584 43.61 57.696 43.002 56.496C42.394 55.296 42.09 53.784 42.09 51.96C42.09 49.912 42.378 48.304 42.954 47.136C43.546 45.952 44.346 45.112 45.354 44.616C46.362 44.12 47.506 43.88 48.786 43.896C50.018 43.88 51.138 44.168 52.146 44.76C53.154 45.336 53.962 46.224 54.57 47.424C55.178 48.608 55.482 50.12 55.482 51.96C55.482 53.864 55.17 55.416 54.546 56.616C53.938 57.8 53.13 58.664 52.122 59.208C51.114 59.752 50.002 60.024 48.786 60.024ZM48.762 56.688C49.562 56.688 50.186 56.48 50.634 56.064C51.082 55.632 51.394 55.048 51.57 54.312C51.762 53.576 51.858 52.76 51.858 51.864C51.858 50.984 51.762 50.2 51.57 49.512C51.394 48.824 51.082 48.28 50.634 47.88C50.186 47.464 49.562 47.256 48.762 47.256C47.978 47.256 47.362 47.464 46.914 47.88C46.466 48.296 46.154 48.856 45.978 49.56C45.802 50.264 45.714 51.056 45.714 51.936C45.714 52.816 45.802 53.616 45.978 54.336C46.154 55.056 46.466 55.632 46.914 56.064C47.362 56.48 47.978 56.688 48.762 56.688ZM61.0243 52.944C60.1443 52.944 59.4163 52.744 58.8403 52.344C58.2643 51.944 57.8403 51.4 57.5683 50.712C57.2963 50.024 57.1603 49.248 57.1603 48.384C57.1603 47.52 57.2963 46.752 57.5683 46.08C57.8403 45.392 58.2643 44.848 58.8403 44.448C59.4163 44.048 60.1443 43.848 61.0243 43.848C61.9043 43.848 62.6243 44.048 63.1843 44.448C63.7603 44.848 64.1843 45.392 64.4563 46.08C64.7443 46.752 64.8883 47.52 64.8883 48.384C64.8883 49.248 64.7443 50.024 64.4563 50.712C64.1843 51.4 63.7603 51.944 63.1843 52.344C62.6243 52.744 61.9043 52.944 61.0243 52.944ZM73.7923 43.848L62.1283 60.048L58.8403 60L70.4563 43.848H73.7923ZM60.0883 48.384C60.0883 49.04 60.1523 49.576 60.2803 49.992C60.4083 50.392 60.6563 50.592 61.0243 50.592C61.3923 50.592 61.6323 50.392 61.7443 49.992C61.8723 49.576 61.9363 49.04 61.9363 48.384C61.9363 47.632 61.8723 47.088 61.7443 46.752C61.6323 46.4 61.3923 46.224 61.0243 46.224C60.6563 46.224 60.4083 46.4 60.2803 46.752C60.1523 47.088 60.0883 47.632 60.0883 48.384ZM71.0563 60.672C70.1763 60.672 69.4483 60.472 68.8723 60.072C68.2963 59.672 67.8723 59.128 67.6003 58.44C67.3283 57.752 67.1923 56.976 67.1923 56.112C67.1923 55.248 67.3283 54.48 67.6003 53.808C67.8723 53.12 68.2963 52.576 68.8723 52.176C69.4483 51.776 70.1763 51.576 71.0563 51.576C71.9363 51.576 72.6563 51.776 73.2163 52.176C73.7923 52.576 74.2163 53.12 74.4883 53.808C74.7763 54.48 74.9203 55.248 74.9203 56.112C74.9203 56.976 74.7763 57.752 74.4883 58.44C74.2163 59.128 73.7923 59.672 73.2163 60.072C72.6563 60.472 71.9363 60.672 71.0563 60.672ZM70.1203 56.112C70.1203 56.768 70.1843 57.304 70.3123 57.72C70.4403 58.12 70.6883 58.32 71.0563 58.32C71.4243 58.32 71.6643 58.12 71.7763 57.72C71.9043 57.304 71.9683 56.768 71.9683 56.112C71.9683 55.36 71.9043 54.816 71.7763 54.48C71.6643 54.128 71.4243 53.952 71.0563 53.952C70.6883 53.952 70.4403 54.128 70.3123 54.48C70.1843 54.816 70.1203 55.36 70.1203 56.112Z" fill="url(#paint0_linear)"/>
<path d="M40.8311 102.556C27.4228 99.3287 15.8457 90.907 8.64672 79.1438L17.3112 73.8412C23.1038 83.3065 32.4193 90.083 43.2083 92.6799L40.8311 102.556Z" fill="#70009B"/>
<circle cx="52" cy="53" r="51.5" stroke="#F2F2F2"/>
<defs>
<linearGradient id="paint0_linear" x1="57.5" y1="42" x2="57.5" y2="64" gradientUnits="userSpaceOnUse">
<stop stop-color="#F57921"/>
<stop offset="0.475639" stop-color="#F87A21"/>
<stop offset="1" stop-color="#600085"/>
</linearGradient>
</defs>
</svg>
