<svg width="181" height="180" viewBox="0 0 181 180" fill="none" xmlns="http://www.w3.org/2000/svg">
<path d="M143.786 17.1055C154.152 24.6116 162.797 34.2421 169.146 45.3543C175.494 56.4665 179.4 68.8049 180.602 81.5461C181.804 94.2874 180.275 107.139 176.117 119.242C171.959 131.346 165.267 142.423 156.488 151.735L147.361 143.131C154.917 135.117 160.676 125.583 164.254 115.167C167.833 104.75 169.149 93.6899 168.114 82.7243C167.08 71.7588 163.719 61.14 158.255 51.5765C152.791 42.013 145.35 33.7247 136.43 27.2647L143.786 17.1055Z" fill="url(#paint0_linear)"/>
<path d="M43.592 104C45.576 101.984 47.48 100.048 49.304 98.192C51.128 96.304 52.76 94.496 54.2 92.768C55.672 91.008 56.824 89.312 57.656 87.68C58.52 86.048 58.952 84.464 58.952 82.928C58.952 81.552 58.504 80.48 57.608 79.712C56.712 78.912 55.528 78.512 54.056 78.512C52.584 78.512 51.448 78.896 50.648 79.664C49.848 80.432 49.448 81.248 49.448 82.112C49.448 83.136 49.608 84.048 49.928 84.848C50.28 85.616 50.744 86.304 51.32 86.912L47.048 90.8C46.12 90.352 45.32 89.6 44.648 88.544C44.008 87.488 43.512 86.384 43.16 85.232C42.84 84.048 42.68 83.072 42.68 82.304C42.68 80.544 43.16 78.864 44.12 77.264C45.112 75.664 46.536 74.352 48.392 73.328C50.28 72.304 52.568 71.792 55.256 71.792C57.464 71.792 59.384 72.288 61.016 73.28C62.648 74.272 63.912 75.584 64.808 77.216C65.736 78.816 66.2 80.528 66.2 82.352C66.2 84.176 65.848 85.92 65.144 87.584C64.44 89.248 63.512 90.88 62.36 92.48C61.24 94.048 60.024 95.648 58.712 97.28H66.584V104H43.592ZM84.0564 104.048C81.6244 104.048 79.3844 103.472 77.3364 102.32C75.3204 101.168 73.7044 99.392 72.4884 96.992C71.2724 94.592 70.6644 91.568 70.6644 87.92C70.6644 83.824 71.2404 80.608 72.3924 78.272C73.5764 75.904 75.1764 74.224 77.1924 73.232C79.2084 72.24 81.4964 71.76 84.0564 71.792C86.5204 71.76 88.7604 72.336 90.7764 73.52C92.7924 74.672 94.4084 76.448 95.6244 78.848C96.8404 81.216 97.4484 84.24 97.4484 87.92C97.4484 91.728 96.8244 94.832 95.5764 97.232C94.3604 99.6 92.7444 101.328 90.7284 102.416C88.7124 103.504 86.4884 104.048 84.0564 104.048ZM84.0084 97.376C85.6084 97.376 86.8564 96.96 87.7524 96.128C88.6484 95.264 89.2724 94.096 89.6244 92.624C90.0084 91.152 90.2004 89.52 90.2004 87.728C90.2004 85.968 90.0084 84.4 89.6244 83.024C89.2724 81.648 88.6484 80.56 87.7524 79.76C86.8564 78.928 85.6084 78.512 84.0084 78.512C82.4404 78.512 81.2084 78.928 80.3124 79.76C79.4164 80.592 78.7924 81.712 78.4404 83.12C78.0884 84.528 77.9124 86.112 77.9124 87.872C77.9124 89.632 78.0884 91.232 78.4404 92.672C78.7924 94.112 79.4164 95.264 80.3124 96.128C81.2084 96.96 82.4404 97.376 84.0084 97.376ZM108.533 89.888C106.773 89.888 105.317 89.488 104.165 88.688C103.013 87.888 102.165 86.8 101.621 85.424C101.077 84.048 100.805 82.496 100.805 80.768C100.805 79.04 101.077 77.504 101.621 76.16C102.165 74.784 103.013 73.696 104.165 72.896C105.317 72.096 106.773 71.696 108.533 71.696C110.293 71.696 111.733 72.096 112.853 72.896C114.005 73.696 114.853 74.784 115.397 76.16C115.973 77.504 116.261 79.04 116.261 80.768C116.261 82.496 115.973 84.048 115.397 85.424C114.853 86.8 114.005 87.888 112.853 88.688C111.733 89.488 110.293 89.888 108.533 89.888ZM134.069 71.696L110.741 104.096L104.165 104L127.397 71.696H134.069ZM106.661 80.768C106.661 82.08 106.789 83.152 107.045 83.984C107.301 84.784 107.797 85.184 108.533 85.184C109.269 85.184 109.749 84.784 109.973 83.984C110.229 83.152 110.357 82.08 110.357 80.768C110.357 79.264 110.229 78.176 109.973 77.504C109.749 76.8 109.269 76.448 108.533 76.448C107.797 76.448 107.301 76.8 107.045 77.504C106.789 78.176 106.661 79.264 106.661 80.768ZM128.597 105.344C126.837 105.344 125.381 104.944 124.229 104.144C123.077 103.344 122.229 102.256 121.685 100.88C121.141 99.504 120.869 97.952 120.869 96.224C120.869 94.496 121.141 92.96 121.685 91.616C122.229 90.24 123.077 89.152 124.229 88.352C125.381 87.552 126.837 87.152 128.597 87.152C130.357 87.152 131.797 87.552 132.917 88.352C134.069 89.152 134.917 90.24 135.461 91.616C136.037 92.96 136.325 94.496 136.325 96.224C136.325 97.952 136.037 99.504 135.461 100.88C134.917 102.256 134.069 103.344 132.917 104.144C131.797 104.944 130.357 105.344 128.597 105.344ZM126.725 96.224C126.725 97.536 126.853 98.608 127.109 99.44C127.365 100.24 127.861 100.64 128.597 100.64C129.333 100.64 129.813 100.24 130.037 99.44C130.293 98.608 130.421 97.536 130.421 96.224C130.421 94.72 130.293 93.632 130.037 92.96C129.813 92.256 129.333 91.904 128.597 91.904C127.861 91.904 127.365 92.256 127.109 92.96C126.853 93.632 126.725 94.72 126.725 96.224Z" fill="url(#paint1_linear)"/>
<circle cx="90" cy="90" r="89.5" stroke="#F2F2F2"/>
<defs>
<linearGradient id="paint0_linear" x1="91" y1="0" x2="91" y2="180" gradientUnits="userSpaceOnUse">
<stop stop-color="#F57921"/>
<stop offset="0.475639" stop-color="#F87A21"/>
<stop offset="1" stop-color="#600085"/>
</linearGradient>
<linearGradient id="paint1_linear" x1="91" y1="68" x2="91" y2="90" gradientUnits="userSpaceOnUse">
<stop stop-color="#F57921"/>
<stop offset="0.475639" stop-color="#F87A21"/>
<stop offset="1" stop-color="#600085"/>
</linearGradient>
</defs>
</svg>
