<svg width="104" height="104" viewBox="0 0 104 104" fill="none" xmlns="http://www.w3.org/2000/svg">
<path d="M88.7695 15.2304C97.2388 23.6997 102.525 34.8329 103.734 46.749C104.944 58.665 102.003 70.6333 95.4078 80.6316L88.2702 75.9236C93.7806 67.5694 96.2381 57.5691 95.2275 47.6124C94.2169 37.6557 89.8001 28.3531 82.7235 21.2765L88.7695 15.2304Z" fill="url(#paint0_linear)"/>
<path d="M28.296 59C29.288 57.992 30.24 57.024 31.152 56.096C32.064 55.152 32.88 54.248 33.6 53.384C34.336 52.504 34.912 51.656 35.328 50.84C35.76 50.024 35.976 49.232 35.976 48.464C35.976 47.776 35.752 47.24 35.304 46.856C34.856 46.456 34.264 46.256 33.528 46.256C32.792 46.256 32.224 46.448 31.824 46.832C31.424 47.216 31.224 47.624 31.224 48.056C31.224 48.568 31.304 49.024 31.464 49.424C31.64 49.808 31.872 50.152 32.16 50.456L30.024 52.4C29.56 52.176 29.16 51.8 28.824 51.272C28.504 50.744 28.256 50.192 28.08 49.616C27.92 49.024 27.84 48.536 27.84 48.152C27.84 47.272 28.08 46.432 28.56 45.632C29.056 44.832 29.768 44.176 30.696 43.664C31.64 43.152 32.784 42.896 34.128 42.896C35.232 42.896 36.192 43.144 37.008 43.64C37.824 44.136 38.456 44.792 38.904 45.608C39.368 46.408 39.6 47.264 39.6 48.176C39.6 49.088 39.424 49.96 39.072 50.792C38.72 51.624 38.256 52.44 37.68 53.24C37.12 54.024 36.512 54.824 35.856 55.64H39.792V59H28.296ZM48.5282 59.024C47.3122 59.024 46.1922 58.736 45.1682 58.16C44.1602 57.584 43.3522 56.696 42.7442 55.496C42.1362 54.296 41.8322 52.784 41.8322 50.96C41.8322 48.912 42.1202 47.304 42.6962 46.136C43.2882 44.952 44.0882 44.112 45.0962 43.616C46.1042 43.12 47.2482 42.88 48.5282 42.896C49.7602 42.88 50.8802 43.168 51.8882 43.76C52.8962 44.336 53.7042 45.224 54.3122 46.424C54.9202 47.608 55.2242 49.12 55.2242 50.96C55.2242 52.864 54.9122 54.416 54.2882 55.616C53.6802 56.8 52.8722 57.664 51.8642 58.208C50.8562 58.752 49.7442 59.024 48.5282 59.024ZM48.5042 55.688C49.3042 55.688 49.9282 55.48 50.3762 55.064C50.8242 54.632 51.1362 54.048 51.3122 53.312C51.5042 52.576 51.6002 51.76 51.6002 50.864C51.6002 49.984 51.5042 49.2 51.3122 48.512C51.1362 47.824 50.8242 47.28 50.3762 46.88C49.9282 46.464 49.3042 46.256 48.5042 46.256C47.7202 46.256 47.1042 46.464 46.6562 46.88C46.2082 47.296 45.8962 47.856 45.7202 48.56C45.5442 49.264 45.4562 50.056 45.4562 50.936C45.4562 51.816 45.5442 52.616 45.7202 53.336C45.8962 54.056 46.2082 54.632 46.6562 55.064C47.1042 55.48 47.7202 55.688 48.5042 55.688ZM60.7665 51.944C59.8865 51.944 59.1585 51.744 58.5825 51.344C58.0065 50.944 57.5825 50.4 57.3105 49.712C57.0385 49.024 56.9025 48.248 56.9025 47.384C56.9025 46.52 57.0385 45.752 57.3105 45.08C57.5825 44.392 58.0065 43.848 58.5825 43.448C59.1585 43.048 59.8865 42.848 60.7665 42.848C61.6465 42.848 62.3665 43.048 62.9265 43.448C63.5025 43.848 63.9265 44.392 64.1985 45.08C64.4865 45.752 64.6305 46.52 64.6305 47.384C64.6305 48.248 64.4865 49.024 64.1985 49.712C63.9265 50.4 63.5025 50.944 62.9265 51.344C62.3665 51.744 61.6465 51.944 60.7665 51.944ZM73.5345 42.848L61.8705 59.048L58.5825 59L70.1985 42.848H73.5345ZM59.8305 47.384C59.8305 48.04 59.8945 48.576 60.0225 48.992C60.1505 49.392 60.3985 49.592 60.7665 49.592C61.1345 49.592 61.3745 49.392 61.4865 48.992C61.6145 48.576 61.6785 48.04 61.6785 47.384C61.6785 46.632 61.6145 46.088 61.4865 45.752C61.3745 45.4 61.1345 45.224 60.7665 45.224C60.3985 45.224 60.1505 45.4 60.0225 45.752C59.8945 46.088 59.8305 46.632 59.8305 47.384ZM70.7985 59.672C69.9185 59.672 69.1905 59.472 68.6145 59.072C68.0385 58.672 67.6145 58.128 67.3425 57.44C67.0705 56.752 66.9345 55.976 66.9345 55.112C66.9345 54.248 67.0705 53.48 67.3425 52.808C67.6145 52.12 68.0385 51.576 68.6145 51.176C69.1905 50.776 69.9185 50.576 70.7985 50.576C71.6785 50.576 72.3985 50.776 72.9585 51.176C73.5345 51.576 73.9585 52.12 74.2305 52.808C74.5185 53.48 74.6625 54.248 74.6625 55.112C74.6625 55.976 74.5185 56.752 74.2305 57.44C73.9585 58.128 73.5345 58.672 72.9585 59.072C72.3985 59.472 71.6785 59.672 70.7985 59.672ZM69.8625 55.112C69.8625 55.768 69.9265 56.304 70.0545 56.72C70.1825 57.12 70.4305 57.32 70.7985 57.32C71.1665 57.32 71.4065 57.12 71.5185 56.72C71.6465 56.304 71.7105 55.768 71.7105 55.112C71.7105 54.36 71.6465 53.816 71.5185 53.48C71.4065 53.128 71.1665 52.952 70.7985 52.952C70.4305 52.952 70.1825 53.128 70.0545 53.48C69.9265 53.816 69.8625 54.36 69.8625 55.112Z" fill="url(#paint1_linear)"/>
<circle cx="52" cy="52" r="51.5" stroke="#F2F2F2"/>
<defs>
<linearGradient id="paint0_linear" x1="52" y1="0" x2="52" y2="104" gradientUnits="userSpaceOnUse">
<stop stop-color="#F57921"/>
<stop offset="0.475639" stop-color="#F87A21"/>
<stop offset="1" stop-color="#600085"/>
</linearGradient>
<linearGradient id="paint1_linear" x1="51.5" y1="41" x2="51.5" y2="63" gradientUnits="userSpaceOnUse">
<stop stop-color="#F57921"/>
<stop offset="0.475639" stop-color="#F87A21"/>
<stop offset="1" stop-color="#600085"/>
</linearGradient>
</defs>
</svg>
