<svg width="356" height="106" viewBox="0 0 356 106" fill="none" xmlns="http://www.w3.org/2000/svg">
<path d="M6 16C6 13.2386 8.23858 11 11 11C13.7614 11 16 13.2386 16 16V87C16 87.5523 15.5523 88 15 88H6V16Z" fill="url(#paint0_linear)"/>
<path d="M98 81C98 78.2386 100.239 76 103 76C105.761 76 108 78.2386 108 81V87.6C108 87.8209 107.821 88 107.6 88H98V81Z" fill="url(#paint1_linear)"/>
<path d="M186 82C186 79.2386 188.239 77 191 77C193.761 77 196 79.2386 196 82V87.6333C196 87.8358 195.836 88 195.633 88H186V82Z" fill="url(#paint2_linear)"/>
<path d="M276 82C276 79.2386 278.239 77 281 77C283.761 77 286 79.2386 286 82V87.6333C286 87.8358 285.836 88 285.633 88H276V82Z" fill="url(#paint3_linear)"/>
<path d="M36 16C36 13.2386 38.2386 11 41 11C43.7614 11 46 13.2386 46 16V87C46 87.5523 45.5523 88 45 88H36V16Z" fill="url(#paint4_linear)"/>
<path d="M126 81C126 78.2386 128.239 76 131 76C133.761 76 136 78.2386 136 81V87.6C136 87.8209 135.821 88 135.6 88H126V81Z" fill="url(#paint5_linear)"/>
<path d="M216 81C216 78.2386 218.239 76 221 76C223.761 76 226 78.2386 226 81V87.6C226 87.8209 225.821 88 225.6 88H216V81Z" fill="url(#paint6_linear)"/>
<path d="M306 81C306 78.2386 308.239 76 311 76C313.761 76 316 78.2386 316 81V87.6C316 87.8209 315.821 88 315.6 88H306V81Z" fill="url(#paint7_linear)"/>
<path d="M66 16C66 13.2386 68.2386 11 71 11C73.7614 11 76 13.2386 76 16V87C76 87.5523 75.5523 88 75 88H66V16Z" fill="url(#paint8_linear)"/>
<path d="M156 83C156 80.2386 158.239 78 161 78C163.761 78 166 80.2386 166 83V87.6667C166 87.8508 165.851 88 165.667 88H156V83Z" fill="url(#paint9_linear)"/>
<path d="M246 83C246 80.2386 248.239 78 251 78C253.761 78 256 80.2386 256 83V87.6667C256 87.8508 255.851 88 255.667 88H246V83Z" fill="url(#paint10_linear)"/>
<path d="M336 83C336 80.2386 338.239 78 341 78C343.761 78 346 80.2386 346 83V87.6667C346 87.8508 345.851 88 345.667 88H336V83Z" fill="url(#paint11_linear)"/>
<path d="M7.50801 99.45C7.50801 100.09 7.38134 100.637 7.12801 101.09C6.87467 101.543 6.52134 101.89 6.06801 102.13C5.62134 102.377 5.10134 102.51 4.50801 102.53V101.12C4.96134 101.093 5.33134 100.953 5.61801 100.7C5.90467 100.447 6.04801 100.02 6.04801 99.42V93.64H7.50801V99.45ZM11.0219 101.12C10.6152 101.12 10.2452 101.04 9.91191 100.88C9.58525 100.713 9.32525 100.46 9.13191 100.12C8.93858 99.78 8.84191 99.3467 8.84191 98.82C8.84191 98.3267 8.94191 97.9 9.14191 97.54C9.34191 97.18 9.60525 96.9033 9.93191 96.71C10.2586 96.51 10.6052 96.41 10.9719 96.41C11.4052 96.41 11.7319 96.48 11.9519 96.62C12.1786 96.76 12.3586 96.9133 12.4919 97.08L12.5819 96.63H13.8819V101H12.4819V100.46C12.4152 100.527 12.3152 100.613 12.1819 100.72C12.0552 100.827 11.8952 100.92 11.7019 101C11.5086 101.08 11.2819 101.12 11.0219 101.12ZM11.4219 99.98C11.9086 99.98 12.2619 99.76 12.4819 99.32V98.25C12.4019 98.0367 12.2619 97.8667 12.0619 97.74C11.8686 97.6133 11.6386 97.55 11.3719 97.55C11.0719 97.55 10.8119 97.6633 10.5919 97.89C10.3719 98.11 10.2619 98.3967 10.2619 98.75C10.2619 98.9833 10.3152 99.1933 10.4219 99.38C10.5286 99.5667 10.6686 99.7133 10.8419 99.82C11.0219 99.9267 11.2152 99.98 11.4219 99.98ZM16.5945 96.63L16.6945 97.33C16.8478 97.0567 17.0645 96.8367 17.3445 96.67C17.6245 96.5033 17.9645 96.42 18.3645 96.42C18.7778 96.42 19.1212 96.5433 19.3945 96.79C19.6745 97.03 19.8178 97.3433 19.8245 97.73V101H18.4245V98.25C18.4178 98.0567 18.3645 97.9033 18.2645 97.79C18.1712 97.67 18.0112 97.61 17.7845 97.61C17.4578 97.61 17.1978 97.7633 17.0045 98.07C16.8178 98.37 16.7245 98.7533 16.7245 99.22V101H15.3245V96.63H16.5945Z" fill="#3B3B3B"/>
<path d="M64.5867 101V93.34H64.5967L68.3267 98.63L72.1467 93.34H72.1667V101H70.7167V97.49L68.3167 100.9H68.2967L65.9867 97.71V101H64.5867ZM75.6791 101.12C75.2725 101.12 74.9025 101.04 74.5691 100.88C74.2425 100.713 73.9825 100.46 73.7891 100.12C73.5958 99.78 73.4991 99.3467 73.4991 98.82C73.4991 98.3267 73.5991 97.9 73.7991 97.54C73.9991 97.18 74.2625 96.9033 74.5891 96.71C74.9158 96.51 75.2625 96.41 75.6291 96.41C76.0625 96.41 76.3891 96.48 76.6091 96.62C76.8358 96.76 77.0158 96.9133 77.1491 97.08L77.2391 96.63H78.5391V101H77.1391V100.46C77.0725 100.527 76.9725 100.613 76.8391 100.72C76.7125 100.827 76.5525 100.92 76.3591 101C76.1658 101.08 75.9391 101.12 75.6791 101.12ZM76.0791 99.98C76.5658 99.98 76.9191 99.76 77.1391 99.32V98.25C77.0591 98.0367 76.9191 97.8667 76.7191 97.74C76.5258 97.6133 76.2958 97.55 76.0291 97.55C75.7291 97.55 75.4691 97.6633 75.2491 97.89C75.0291 98.11 74.9191 98.3967 74.9191 98.75C74.9191 98.9833 74.9725 99.1933 75.0791 99.38C75.1858 99.5667 75.3258 99.7133 75.4991 99.82C75.6791 99.9267 75.8725 99.98 76.0791 99.98ZM81.2417 96.63L81.3517 97.63C81.4784 97.3767 81.6517 97.16 81.8717 96.98C82.0917 96.7933 82.3084 96.6533 82.5217 96.56C82.7351 96.46 82.8984 96.41 83.0117 96.41L82.9417 97.81C82.6151 97.77 82.3351 97.8233 82.1017 97.97C81.8684 98.1167 81.6884 98.31 81.5617 98.55C81.4351 98.79 81.3717 99.0367 81.3717 99.29V101H79.9817V96.63H81.2417Z" fill="#3B3B3B"/>
<path d="M35.8152 93.64H40.4152V95.04H37.2652V96.71H39.9952V98.11H37.2652V101H35.8152V93.64ZM43.3309 101.12C42.7976 101.12 42.3443 101.02 41.9709 100.82C41.6043 100.62 41.3243 100.343 41.1309 99.99C40.9376 99.6367 40.8409 99.23 40.8409 98.77C40.8409 98.33 40.9543 97.9333 41.1809 97.58C41.4076 97.2267 41.7109 96.9467 42.0909 96.74C42.4709 96.5267 42.8943 96.42 43.3609 96.42C43.9876 96.42 44.5009 96.6033 44.9009 96.97C45.3076 97.33 45.5709 97.8533 45.6909 98.54L42.4909 99.56C42.7043 99.8067 42.9943 99.93 43.3609 99.93C43.5143 99.93 43.6609 99.9033 43.8009 99.85C43.9476 99.7967 44.0909 99.7267 44.2309 99.64L44.8509 100.68C44.6176 100.813 44.3643 100.92 44.0909 101C43.8243 101.08 43.5709 101.12 43.3309 101.12ZM42.2209 98.69C42.2209 98.7233 42.2209 98.7533 42.2209 98.78L44.1409 98.13C44.0809 97.9633 43.9843 97.82 43.8509 97.7C43.7176 97.5733 43.5176 97.51 43.2509 97.51C42.9376 97.51 42.6876 97.6167 42.5009 97.83C42.3143 98.0433 42.2209 98.33 42.2209 98.69ZM48.513 101.09L45.893 96.63H47.553L48.573 98.71L49.473 96.63H51.033L48.553 101.09H48.513Z" fill="#3B3B3B"/>
<path d="M93.9677 101L97.2877 93.35H97.3677L100.688 101H99.0077L98.4377 99.56H95.9977L95.3977 101H93.9677ZM96.5077 98.34H97.9577L97.2477 96.55L96.5077 98.34ZM104.401 101.12C104.067 101.12 103.781 101.07 103.541 100.97C103.307 100.87 103.104 100.733 102.931 100.56V101H101.531V93.11H102.921V96.93C103.094 96.7833 103.324 96.66 103.611 96.56C103.897 96.46 104.224 96.41 104.591 96.41C104.971 96.41 105.317 96.5 105.631 96.68C105.944 96.86 106.194 97.1233 106.381 97.47C106.574 97.81 106.671 98.2267 106.671 98.72C106.671 99.2133 106.564 99.64 106.351 100C106.144 100.36 105.867 100.637 105.521 100.83C105.174 101.023 104.801 101.12 104.401 101.12ZM104.091 99.94C104.297 99.94 104.487 99.8867 104.661 99.78C104.841 99.6733 104.984 99.5267 105.091 99.34C105.197 99.1533 105.251 98.9433 105.251 98.71C105.251 98.4767 105.197 98.27 105.091 98.09C104.984 97.91 104.841 97.77 104.661 97.67C104.487 97.5633 104.297 97.51 104.091 97.51C103.817 97.51 103.577 97.5733 103.371 97.7C103.164 97.8267 103.017 97.9967 102.931 98.21V99.28C103.171 99.72 103.557 99.94 104.091 99.94ZM109.031 96.63L109.141 97.63C109.267 97.3767 109.441 97.16 109.661 96.98C109.881 96.7933 110.097 96.6533 110.311 96.56C110.524 96.46 110.687 96.41 110.801 96.41L110.731 97.81C110.404 97.77 110.124 97.8233 109.891 97.97C109.657 98.1167 109.477 98.31 109.351 98.55C109.224 98.79 109.161 99.0367 109.161 99.29V101H107.771V96.63H109.031Z" fill="#3B3B3B"/>
<path d="M122.717 101V93.34H122.727L126.457 98.63L130.277 93.34H130.297V101H128.847V97.49L126.447 100.9H126.427L124.117 97.71V101H122.717ZM133.809 101.12C133.402 101.12 133.032 101.04 132.699 100.88C132.372 100.713 132.112 100.46 131.919 100.12C131.726 99.78 131.629 99.3467 131.629 98.82C131.629 98.3267 131.729 97.9 131.929 97.54C132.129 97.18 132.392 96.9033 132.719 96.71C133.046 96.51 133.392 96.41 133.759 96.41C134.192 96.41 134.519 96.48 134.739 96.62C134.966 96.76 135.146 96.9133 135.279 97.08L135.369 96.63H136.669V101H135.269V100.46C135.202 100.527 135.102 100.613 134.969 100.72C134.842 100.827 134.682 100.92 134.489 101C134.296 101.08 134.069 101.12 133.809 101.12ZM134.209 99.98C134.696 99.98 135.049 99.76 135.269 99.32V98.25C135.189 98.0367 135.049 97.8667 134.849 97.74C134.656 97.6133 134.426 97.55 134.159 97.55C133.859 97.55 133.599 97.6633 133.379 97.89C133.159 98.11 133.049 98.3967 133.049 98.75C133.049 98.9833 133.102 99.1933 133.209 99.38C133.316 99.5667 133.456 99.7133 133.629 99.82C133.809 99.9267 134.002 99.98 134.209 99.98ZM138.112 96.63H139.512V101H138.112V96.63ZM138.082 95.08C138.082 94.8733 138.162 94.7033 138.322 94.57C138.488 94.4367 138.665 94.37 138.852 94.37C139.038 94.37 139.208 94.4367 139.362 94.57C139.522 94.7033 139.602 94.8733 139.602 95.08C139.602 95.2867 139.522 95.4567 139.362 95.59C139.208 95.7167 139.038 95.78 138.852 95.78C138.665 95.78 138.488 95.7167 138.322 95.59C138.162 95.4567 138.082 95.2867 138.082 95.08Z" fill="#3B3B3B"/>
<path d="M156.659 99.45C156.659 100.09 156.533 100.637 156.279 101.09C156.026 101.543 155.673 101.89 155.219 102.13C154.773 102.377 154.253 102.51 153.659 102.53V101.12C154.113 101.093 154.483 100.953 154.769 100.7C155.056 100.447 155.199 100.02 155.199 99.42V93.64H156.659V99.45ZM159.743 101.21C159.35 101.21 159.02 101.09 158.753 100.85C158.487 100.603 158.347 100.287 158.333 99.9V96.63H159.733V99.38C159.747 99.5733 159.797 99.73 159.883 99.85C159.97 99.9633 160.117 100.02 160.323 100.02C160.637 100.02 160.883 99.87 161.063 99.57C161.243 99.2633 161.333 98.8767 161.333 98.41V96.63H162.733V101H161.463L161.363 100.3C161.217 100.573 161.007 100.793 160.733 100.96C160.46 101.127 160.13 101.21 159.743 101.21ZM165.443 96.63L165.543 97.33C165.696 97.0567 165.913 96.8367 166.193 96.67C166.473 96.5033 166.813 96.42 167.213 96.42C167.626 96.42 167.97 96.5433 168.243 96.79C168.523 97.03 168.666 97.3433 168.673 97.73V101H167.273V98.25C167.266 98.0567 167.213 97.9033 167.113 97.79C167.02 97.67 166.86 97.61 166.633 97.61C166.306 97.61 166.046 97.7633 165.853 98.07C165.666 98.37 165.573 98.7533 165.573 99.22V101H164.173V96.63H165.443Z" fill="#3B3B3B"/>
<path d="M187.707 99.45C187.707 100.09 187.581 100.637 187.327 101.09C187.074 101.543 186.721 101.89 186.267 102.13C185.821 102.377 185.301 102.51 184.707 102.53V101.12C185.161 101.093 185.531 100.953 185.817 100.7C186.104 100.447 186.247 100.02 186.247 99.42V93.64H187.707V99.45ZM190.791 101.21C190.398 101.21 190.068 101.09 189.801 100.85C189.534 100.603 189.394 100.287 189.381 99.9V96.63H190.781V99.38C190.794 99.5733 190.844 99.73 190.931 99.85C191.018 99.9633 191.164 100.02 191.371 100.02C191.684 100.02 191.931 99.87 192.111 99.57C192.291 99.2633 192.381 98.8767 192.381 98.41V96.63H193.781V101H192.511L192.411 100.3C192.264 100.573 192.054 100.793 191.781 100.96C191.508 101.127 191.178 101.21 190.791 101.21ZM195.221 93.11H196.621V101H195.221V93.11Z" fill="#3B3B3B"/>
<path d="M212.191 101L215.511 93.35H215.591L218.911 101H217.231L216.661 99.56H214.221L213.621 101H212.191ZM214.731 98.34H216.181L215.471 96.55L214.731 98.34ZM221.868 103.2C221.474 103.2 221.141 103.153 220.868 103.06C220.601 102.967 220.374 102.853 220.188 102.72C220.001 102.587 219.834 102.46 219.688 102.34L220.508 101.38C220.661 101.52 220.838 101.653 221.038 101.78C221.244 101.913 221.514 101.98 221.848 101.98C222.181 101.98 222.471 101.893 222.718 101.72C222.971 101.553 223.098 101.307 223.098 100.98V100.36C222.971 100.567 222.774 100.747 222.508 100.9C222.241 101.047 221.894 101.12 221.468 101.12C221.074 101.12 220.708 101.02 220.368 100.82C220.034 100.613 219.768 100.337 219.568 99.99C219.368 99.6367 219.268 99.2367 219.268 98.79C219.268 98.33 219.374 97.9233 219.588 97.57C219.801 97.21 220.078 96.9267 220.418 96.72C220.758 96.5133 221.118 96.41 221.498 96.41C221.878 96.41 222.204 96.4667 222.478 96.58C222.758 96.6867 222.964 96.8167 223.098 96.97L223.208 96.63H224.498V101C224.498 101.427 224.378 101.803 224.138 102.13C223.898 102.463 223.578 102.723 223.178 102.91C222.784 103.103 222.348 103.2 221.868 103.2ZM220.678 98.75C220.678 99.0967 220.794 99.39 221.028 99.63C221.261 99.8633 221.548 99.98 221.888 99.98C222.448 99.98 222.851 99.76 223.098 99.32V98.25C223.004 98.0367 222.851 97.8667 222.638 97.74C222.424 97.6133 222.174 97.55 221.888 97.55C221.548 97.55 221.261 97.6633 221.028 97.89C220.794 98.11 220.678 98.3967 220.678 98.75ZM225.596 98.76C225.596 98.3133 225.699 97.9133 225.906 97.56C226.119 97.2067 226.416 96.93 226.796 96.73C227.176 96.5233 227.612 96.42 228.106 96.42C228.606 96.42 229.039 96.5233 229.406 96.73C229.772 96.93 230.052 97.2067 230.246 97.56C230.446 97.9133 230.546 98.3133 230.546 98.76C230.546 99.2067 230.446 99.61 230.246 99.97C230.052 100.323 229.772 100.603 229.406 100.81C229.039 101.017 228.599 101.12 228.086 101.12C227.606 101.12 227.176 101.027 226.796 100.84C226.422 100.653 226.129 100.383 225.916 100.03C225.702 99.6767 225.596 99.2533 225.596 98.76ZM227.006 98.77C227.006 99.1167 227.106 99.4067 227.306 99.64C227.506 99.8667 227.759 99.98 228.066 99.98C228.392 99.98 228.652 99.8667 228.846 99.64C229.039 99.4067 229.136 99.1167 229.136 98.77C229.136 98.4233 229.039 98.1367 228.846 97.91C228.652 97.6767 228.392 97.56 228.066 97.56C227.759 97.56 227.506 97.6767 227.306 97.91C227.106 98.1367 227.006 98.4233 227.006 98.77Z" fill="#3B3B3B"/>
<path d="M248.734 95.42C248.454 95.2667 248.167 95.14 247.874 95.04C247.587 94.94 247.317 94.89 247.064 94.89C246.75 94.89 246.504 94.9533 246.324 95.08C246.144 95.2067 246.054 95.3967 246.054 95.65C246.054 95.8233 246.12 95.98 246.254 96.12C246.394 96.2533 246.57 96.3733 246.784 96.48C247.004 96.5867 247.23 96.6833 247.464 96.77C247.75 96.8767 248.027 97.0133 248.294 97.18C248.56 97.34 248.78 97.5633 248.954 97.85C249.127 98.13 249.214 98.5033 249.214 98.97C249.214 99.3433 249.117 99.69 248.924 100.01C248.73 100.33 248.447 100.59 248.074 100.79C247.7 100.983 247.24 101.08 246.694 101.08C246.274 101.08 245.844 101.017 245.404 100.89C244.97 100.763 244.56 100.563 244.174 100.29L244.814 99.16C245.067 99.3467 245.357 99.5 245.684 99.62C246.01 99.74 246.304 99.8 246.564 99.8C246.737 99.8 246.91 99.7767 247.084 99.73C247.264 99.6767 247.41 99.59 247.524 99.47C247.644 99.35 247.704 99.1833 247.704 98.97C247.704 98.75 247.597 98.56 247.384 98.4C247.177 98.2333 246.927 98.0933 246.634 97.98C246.407 97.8933 246.174 97.7933 245.934 97.68C245.694 97.5667 245.467 97.43 245.254 97.27C245.047 97.1033 244.877 96.9 244.744 96.66C244.617 96.4133 244.554 96.1133 244.554 95.76C244.554 95.3333 244.647 94.9633 244.834 94.65C245.027 94.3367 245.297 94.09 245.644 93.91C245.99 93.7233 246.39 93.62 246.844 93.6C247.437 93.6 247.917 93.67 248.284 93.81C248.657 93.95 248.99 94.1167 249.284 94.31L248.734 95.42ZM252.554 101.12C252.02 101.12 251.567 101.02 251.194 100.82C250.827 100.62 250.547 100.343 250.354 99.99C250.16 99.6367 250.064 99.23 250.064 98.77C250.064 98.33 250.177 97.9333 250.404 97.58C250.63 97.2267 250.934 96.9467 251.314 96.74C251.694 96.5267 252.117 96.42 252.584 96.42C253.21 96.42 253.724 96.6033 254.124 96.97C254.53 97.33 254.794 97.8533 254.914 98.54L251.714 99.56C251.927 99.8067 252.217 99.93 252.584 99.93C252.737 99.93 252.884 99.9033 253.024 99.85C253.17 99.7967 253.314 99.7267 253.454 99.64L254.074 100.68C253.84 100.813 253.587 100.92 253.314 101C253.047 101.08 252.794 101.12 252.554 101.12ZM251.444 98.69C251.444 98.7233 251.444 98.7533 251.444 98.78L253.364 98.13C253.304 97.9633 253.207 97.82 253.074 97.7C252.94 97.5733 252.74 97.51 252.474 97.51C252.16 97.51 251.91 97.6167 251.724 97.83C251.537 98.0433 251.444 98.33 251.444 98.69ZM256.341 94.71H257.741V96.61H258.801V97.7H257.741V101H256.341V97.7H255.661V96.61H256.341V94.71Z" fill="#3B3B3B"/>
<path d="M272.382 97.33C272.382 96.8233 272.479 96.3433 272.672 95.89C272.865 95.4367 273.132 95.0367 273.472 94.69C273.819 94.3367 274.219 94.06 274.672 93.86C275.125 93.66 275.612 93.56 276.132 93.56C276.645 93.56 277.129 93.66 277.582 93.86C278.035 94.06 278.435 94.3367 278.782 94.69C279.135 95.0367 279.409 95.4367 279.602 95.89C279.802 96.3433 279.902 96.8233 279.902 97.33C279.902 97.85 279.802 98.3367 279.602 98.79C279.409 99.2433 279.135 99.6433 278.782 99.99C278.435 100.33 278.035 100.597 277.582 100.79C277.129 100.983 276.645 101.08 276.132 101.08C275.612 101.08 275.125 100.983 274.672 100.79C274.219 100.597 273.819 100.33 273.472 99.99C273.132 99.6433 272.865 99.2433 272.672 98.79C272.479 98.3367 272.382 97.85 272.382 97.33ZM273.882 97.33C273.882 97.7633 273.982 98.16 274.182 98.52C274.389 98.8733 274.665 99.1567 275.012 99.37C275.359 99.5767 275.749 99.68 276.182 99.68C276.602 99.68 276.979 99.5767 277.312 99.37C277.652 99.1567 277.919 98.8733 278.112 98.52C278.305 98.16 278.402 97.7633 278.402 97.33C278.402 96.8833 278.302 96.4833 278.102 96.13C277.902 95.77 277.632 95.4867 277.292 95.28C276.952 95.0667 276.569 94.96 276.142 94.96C275.715 94.96 275.332 95.0667 274.992 95.28C274.652 95.4867 274.382 95.77 274.182 96.13C273.982 96.4833 273.882 96.8833 273.882 97.33ZM284.827 100.61C284.634 100.763 284.391 100.887 284.097 100.98C283.811 101.073 283.527 101.12 283.247 101.12C282.501 101.12 281.901 100.917 281.447 100.51C281.001 100.103 280.777 99.5367 280.777 98.81C280.777 98.3233 280.887 97.91 281.107 97.57C281.327 97.2233 281.614 96.96 281.967 96.78C282.327 96.6 282.704 96.51 283.097 96.51C283.491 96.51 283.831 96.5633 284.117 96.67C284.411 96.7767 284.661 96.9167 284.867 97.09L284.187 97.99C284.094 97.9167 283.964 97.8433 283.797 97.77C283.637 97.69 283.447 97.65 283.227 97.65C282.941 97.65 282.694 97.76 282.487 97.98C282.281 98.1933 282.177 98.47 282.177 98.81C282.177 99.1367 282.284 99.4133 282.497 99.64C282.717 99.8667 283.007 99.98 283.367 99.98C283.674 99.98 283.927 99.8967 284.127 99.73L284.827 100.61ZM286.313 94.71H287.713V96.61H288.773V97.7H287.713V101H286.313V97.7H285.633V96.61H286.313V94.71Z" fill="#3B3B3B"/>
<path d="M306.823 101.3L301.673 96.65L301.703 101H300.233V93.35H300.293L305.433 98.07L305.403 93.64H306.863V101.3H306.823ZM308.189 98.76C308.189 98.3133 308.292 97.9133 308.499 97.56C308.712 97.2067 309.009 96.93 309.389 96.73C309.769 96.5233 310.205 96.42 310.699 96.42C311.199 96.42 311.632 96.5233 311.999 96.73C312.365 96.93 312.645 97.2067 312.839 97.56C313.039 97.9133 313.139 98.3133 313.139 98.76C313.139 99.2067 313.039 99.61 312.839 99.97C312.645 100.323 312.365 100.603 311.999 100.81C311.632 101.017 311.192 101.12 310.679 101.12C310.199 101.12 309.769 101.027 309.389 100.84C309.015 100.653 308.722 100.383 308.509 100.03C308.295 99.6767 308.189 99.2533 308.189 98.76ZM309.599 98.77C309.599 99.1167 309.699 99.4067 309.899 99.64C310.099 99.8667 310.352 99.98 310.659 99.98C310.985 99.98 311.245 99.8667 311.439 99.64C311.632 99.4067 311.729 99.1167 311.729 98.77C311.729 98.4233 311.632 98.1367 311.439 97.91C311.245 97.6767 310.985 97.56 310.659 97.56C310.352 97.56 310.099 97.6767 309.899 97.91C309.699 98.1367 309.599 98.4233 309.599 98.77ZM316.095 101.09L313.475 96.63H315.135L316.155 98.71L317.055 96.63H318.615L316.135 101.09H316.095Z" fill="#3B3B3B"/>
<path d="M331.436 101V93.64H333.636C334.376 93.64 335.006 93.75 335.526 93.97C336.046 94.19 336.463 94.4833 336.776 94.85C337.096 95.2167 337.33 95.6267 337.476 96.08C337.623 96.5333 337.696 96.99 337.696 97.45C337.696 97.9967 337.596 98.49 337.396 98.93C337.203 99.3633 336.936 99.7367 336.596 100.05C336.256 100.357 335.863 100.593 335.416 100.76C334.97 100.92 334.496 101 333.996 101H331.436ZM332.886 99.6H333.746C334.48 99.6 335.07 99.41 335.516 99.03C335.97 98.65 336.196 98.09 336.196 97.35C336.196 96.87 336.116 96.48 335.956 96.18C335.803 95.8733 335.61 95.6367 335.376 95.47C335.15 95.3033 334.916 95.19 334.676 95.13C334.436 95.0633 334.233 95.03 334.066 95.03H332.886V99.6ZM341.071 101.12C340.538 101.12 340.085 101.02 339.711 100.82C339.345 100.62 339.065 100.343 338.871 99.99C338.678 99.6367 338.581 99.23 338.581 98.77C338.581 98.33 338.695 97.9333 338.921 97.58C339.148 97.2267 339.451 96.9467 339.831 96.74C340.211 96.5267 340.635 96.42 341.101 96.42C341.728 96.42 342.241 96.6033 342.641 96.97C343.048 97.33 343.311 97.8533 343.431 98.54L340.231 99.56C340.445 99.8067 340.735 99.93 341.101 99.93C341.255 99.93 341.401 99.9033 341.541 99.85C341.688 99.7967 341.831 99.7267 341.971 99.64L342.591 100.68C342.358 100.813 342.105 100.92 341.831 101C341.565 101.08 341.311 101.12 341.071 101.12ZM339.961 98.69C339.961 98.7233 339.961 98.7533 339.961 98.78L341.881 98.13C341.821 97.9633 341.725 97.82 341.591 97.7C341.458 97.5733 341.258 97.51 340.991 97.51C340.678 97.51 340.428 97.6167 340.241 97.83C340.055 98.0433 339.961 98.33 339.961 98.69ZM348.159 100.61C347.965 100.763 347.722 100.887 347.429 100.98C347.142 101.073 346.859 101.12 346.579 101.12C345.832 101.12 345.232 100.917 344.779 100.51C344.332 100.103 344.109 99.5367 344.109 98.81C344.109 98.3233 344.219 97.91 344.439 97.57C344.659 97.2233 344.945 96.96 345.299 96.78C345.659 96.6 346.035 96.51 346.429 96.51C346.822 96.51 347.162 96.5633 347.449 96.67C347.742 96.7767 347.992 96.9167 348.199 97.09L347.519 97.99C347.425 97.9167 347.295 97.8433 347.129 97.77C346.969 97.69 346.779 97.65 346.559 97.65C346.272 97.65 346.025 97.76 345.819 97.98C345.612 98.1933 345.509 98.47 345.509 98.81C345.509 99.1367 345.615 99.4133 345.829 99.64C346.049 99.8667 346.339 99.98 346.699 99.98C347.005 99.98 347.259 99.8967 347.459 99.73L348.159 100.61Z" fill="#3B3B3B"/>
<line x1="13.4883" y1="10.5" x2="350.512" y2="10.5" stroke="#CFCFCF" stroke-miterlimit="5.25027" stroke-linecap="round" stroke-linejoin="bevel" stroke-dasharray="12 12"/>
<path d="M321.389 5.695V5.686L325.196 0.961H325.205V4.705H325.916V5.695H325.205V7H323.891V5.695H321.389ZM323.891 4.705V3.913L323.297 4.705H323.891ZM326.409 6.352C326.409 6.166 326.475 6.01 326.607 5.884C326.745 5.758 326.895 5.695 327.057 5.695C327.207 5.695 327.348 5.758 327.48 5.884C327.618 6.01 327.687 6.166 327.687 6.352C327.687 6.55 327.618 6.709 327.48 6.829C327.348 6.943 327.207 7 327.057 7C326.895 7 326.745 6.943 326.607 6.829C326.475 6.709 326.409 6.55 326.409 6.352ZM328.271 1.033H330.062V7H328.748V2.293H328.271V1.033ZM333.489 7.072C333.057 7.072 332.667 6.97 332.319 6.766C331.971 6.562 331.695 6.262 331.491 5.866C331.287 5.47 331.185 4.987 331.185 4.417C331.185 3.943 331.302 3.49 331.536 3.058C331.77 2.626 332.082 2.224 332.472 1.852C332.862 1.48 333.294 1.153 333.768 0.871L334.641 1.816C334.149 2.008 333.75 2.254 333.444 2.554C333.138 2.854 332.913 3.157 332.769 3.463C332.913 3.337 333.078 3.241 333.264 3.175C333.456 3.103 333.681 3.067 333.939 3.067C334.227 3.067 334.506 3.148 334.776 3.31C335.046 3.472 335.265 3.697 335.433 3.985C335.607 4.273 335.694 4.609 335.694 4.993C335.694 5.437 335.586 5.815 335.37 6.127C335.16 6.433 334.887 6.667 334.551 6.829C334.215 6.991 333.861 7.072 333.489 7.072ZM333.435 5.902C333.693 5.902 333.906 5.827 334.074 5.677C334.248 5.521 334.335 5.296 334.335 5.002C334.335 4.72 334.248 4.51 334.074 4.372C333.9 4.234 333.687 4.165 333.435 4.165C333.183 4.165 332.97 4.234 332.796 4.372C332.622 4.51 332.535 4.669 332.535 4.849V5.065C332.535 5.281 332.619 5.476 332.787 5.65C332.961 5.818 333.177 5.902 333.435 5.902ZM338.533 7.072C338.101 7.072 337.711 6.97 337.363 6.766C337.015 6.562 336.739 6.262 336.535 5.866C336.331 5.47 336.229 4.987 336.229 4.417C336.229 3.943 336.346 3.49 336.58 3.058C336.814 2.626 337.126 2.224 337.516 1.852C337.906 1.48 338.338 1.153 338.812 0.871L339.685 1.816C339.193 2.008 338.794 2.254 338.488 2.554C338.182 2.854 337.957 3.157 337.813 3.463C337.957 3.337 338.122 3.241 338.308 3.175C338.5 3.103 338.725 3.067 338.983 3.067C339.271 3.067 339.55 3.148 339.82 3.31C340.09 3.472 340.309 3.697 340.477 3.985C340.651 4.273 340.738 4.609 340.738 4.993C340.738 5.437 340.63 5.815 340.414 6.127C340.204 6.433 339.931 6.667 339.595 6.829C339.259 6.991 338.905 7.072 338.533 7.072ZM338.479 5.902C338.737 5.902 338.95 5.827 339.118 5.677C339.292 5.521 339.379 5.296 339.379 5.002C339.379 4.72 339.292 4.51 339.118 4.372C338.944 4.234 338.731 4.165 338.479 4.165C338.227 4.165 338.014 4.234 337.84 4.372C337.666 4.51 337.579 4.669 337.579 4.849V5.065C337.579 5.281 337.663 5.476 337.831 5.65C338.005 5.818 338.221 5.902 338.479 5.902ZM345.722 3.067L345.812 3.688C345.962 3.43 346.154 3.229 346.388 3.085C346.628 2.941 346.91 2.869 347.234 2.869C347.552 2.869 347.816 2.935 348.026 3.067C348.242 3.193 348.383 3.385 348.449 3.643C348.611 3.409 348.806 3.223 349.034 3.085C349.268 2.941 349.511 2.869 349.763 2.869C350.153 2.869 350.462 2.98 350.69 3.202C350.924 3.418 351.044 3.7 351.05 4.048V7H349.799V4.57C349.793 4.396 349.766 4.255 349.718 4.147C349.67 4.033 349.559 3.97 349.385 3.958C349.181 3.958 349.007 4.03 348.863 4.174C348.725 4.312 348.62 4.492 348.548 4.714C348.482 4.93 348.449 5.155 348.449 5.389V7H347.189V4.57C347.183 4.396 347.15 4.255 347.09 4.147C347.036 4.033 346.922 3.97 346.748 3.958C346.55 3.958 346.382 4.03 346.244 4.174C346.112 4.312 346.01 4.489 345.938 4.705C345.872 4.921 345.839 5.143 345.839 5.371V7H344.579V3.067H345.722Z" fill="#A0A0A0"/>
<defs>
<linearGradient id="paint0_linear" x1="11" y1="11" x2="11" y2="88" gradientUnits="userSpaceOnUse">
<stop stop-color="#FF4C00"/>
<stop offset="1" stop-color="#F57921"/>
</linearGradient>
<linearGradient id="paint1_linear" x1="103" y1="76" x2="103" y2="88" gradientUnits="userSpaceOnUse">
<stop stop-color="#FF4C00"/>
<stop offset="1" stop-color="#F57921"/>
</linearGradient>
<linearGradient id="paint2_linear" x1="191" y1="77" x2="191" y2="88" gradientUnits="userSpaceOnUse">
<stop stop-color="#FF4C00"/>
<stop offset="1" stop-color="#F57921"/>
</linearGradient>
<linearGradient id="paint3_linear" x1="281" y1="77" x2="281" y2="88" gradientUnits="userSpaceOnUse">
<stop stop-color="#FF4C00"/>
<stop offset="1" stop-color="#F57921"/>
</linearGradient>
<linearGradient id="paint4_linear" x1="41" y1="11" x2="41" y2="88" gradientUnits="userSpaceOnUse">
<stop stop-color="#FF4C00"/>
<stop offset="1" stop-color="#F57921"/>
</linearGradient>
<linearGradient id="paint5_linear" x1="131" y1="76" x2="131" y2="88" gradientUnits="userSpaceOnUse">
<stop stop-color="#FF4C00"/>
<stop offset="1" stop-color="#F57921"/>
</linearGradient>
<linearGradient id="paint6_linear" x1="221" y1="76" x2="221" y2="88" gradientUnits="userSpaceOnUse">
<stop stop-color="#FF4C00"/>
<stop offset="1" stop-color="#F57921"/>
</linearGradient>
<linearGradient id="paint7_linear" x1="311" y1="76" x2="311" y2="88" gradientUnits="userSpaceOnUse">
<stop stop-color="#FF4C00"/>
<stop offset="1" stop-color="#F57921"/>
</linearGradient>
<linearGradient id="paint8_linear" x1="71" y1="11" x2="71" y2="88" gradientUnits="userSpaceOnUse">
<stop stop-color="#FF4C00"/>
<stop offset="1" stop-color="#F57921"/>
</linearGradient>
<linearGradient id="paint9_linear" x1="161" y1="78" x2="161" y2="88" gradientUnits="userSpaceOnUse">
<stop stop-color="#FF4C00"/>
<stop offset="1" stop-color="#F57921"/>
</linearGradient>
<linearGradient id="paint10_linear" x1="251" y1="78" x2="251" y2="88" gradientUnits="userSpaceOnUse">
<stop stop-color="#FF4C00"/>
<stop offset="1" stop-color="#F57921"/>
</linearGradient>
<linearGradient id="paint11_linear" x1="341" y1="78" x2="341" y2="88" gradientUnits="userSpaceOnUse">
<stop stop-color="#FF4C00"/>
<stop offset="1" stop-color="#F57921"/>
</linearGradient>
</defs>
</svg>
