<svg width="325" height="215" viewBox="0 0 325 215" fill="none" xmlns="http://www.w3.org/2000/svg">
<line x1="5.5" y1="1.16327e-10" x2="5.5" y2="215" stroke="url(#paint0_linear)"/>
<path d="M32.652 39.018C31.74 39.018 30.9 38.802 30.132 38.37C29.376 37.938 28.77 37.272 28.314 36.372C27.858 35.472 27.63 34.338 27.63 32.97C27.63 31.434 27.846 30.228 28.278 29.352C28.722 28.464 29.322 27.834 30.078 27.462C30.834 27.09 31.692 26.91 32.652 26.922C33.576 26.91 34.416 27.126 35.172 27.57C35.928 28.002 36.534 28.668 36.99 29.568C37.446 30.456 37.674 31.59 37.674 32.97C37.674 34.398 37.44 35.562 36.972 36.462C36.516 37.35 35.91 37.998 35.154 38.406C34.398 38.814 33.564 39.018 32.652 39.018ZM32.634 36.516C33.234 36.516 33.702 36.36 34.038 36.048C34.374 35.724 34.608 35.286 34.74 34.734C34.884 34.182 34.956 33.57 34.956 32.898C34.956 32.238 34.884 31.65 34.74 31.134C34.608 30.618 34.374 30.21 34.038 29.91C33.702 29.598 33.234 29.442 32.634 29.442C32.046 29.442 31.584 29.598 31.248 29.91C30.912 30.222 30.678 30.642 30.546 31.17C30.414 31.698 30.348 32.292 30.348 32.952C30.348 33.612 30.414 34.212 30.546 34.752C30.678 35.292 30.912 35.724 31.248 36.048C31.584 36.36 32.046 36.516 32.634 36.516ZM42.6587 39.144C41.9507 39.144 41.2607 39.012 40.5887 38.748C39.9167 38.484 39.3947 38.166 39.0227 37.794L40.3727 35.706C40.5887 35.97 40.8947 36.192 41.2907 36.372C41.6987 36.54 42.0887 36.624 42.4607 36.624C42.8807 36.624 43.2467 36.492 43.5587 36.228C43.8707 35.952 44.0267 35.55 44.0267 35.022C44.0267 34.446 43.8587 33.984 43.5227 33.636C43.1867 33.276 42.7307 33.096 42.1547 33.096C41.7827 33.096 41.4287 33.15 41.0927 33.258C40.7567 33.354 40.3607 33.522 39.9047 33.762H39.8867V27.066H45.8447V29.586H42.1367V30.936C42.3407 30.912 42.5567 30.9 42.7847 30.9C43.6247 30.9 44.3327 31.086 44.9087 31.458C45.4967 31.83 45.9467 32.322 46.2587 32.934C46.5707 33.546 46.7267 34.212 46.7267 34.932C46.7267 35.724 46.5467 36.438 46.1867 37.074C45.8267 37.71 45.3347 38.214 44.7107 38.586C44.0987 38.958 43.4147 39.144 42.6587 39.144ZM55.3051 25.482C54.4531 27.798 53.6011 30.108 52.7491 32.412C51.8971 34.716 51.0451 37.026 50.1931 39.342H47.9251C48.7771 37.026 49.6291 34.716 50.4811 32.412C51.3331 30.108 52.1851 27.798 53.0371 25.482H55.3051ZM60.8473 39.018C59.9353 39.018 59.0953 38.802 58.3273 38.37C57.5713 37.938 56.9653 37.272 56.5093 36.372C56.0533 35.472 55.8253 34.338 55.8253 32.97C55.8253 31.434 56.0413 30.228 56.4733 29.352C56.9173 28.464 57.5173 27.834 58.2733 27.462C59.0293 27.09 59.8873 26.91 60.8473 26.922C61.7713 26.91 62.6113 27.126 63.3673 27.57C64.1233 28.002 64.7293 28.668 65.1853 29.568C65.6413 30.456 65.8693 31.59 65.8693 32.97C65.8693 34.398 65.6353 35.562 65.1673 36.462C64.7113 37.35 64.1053 37.998 63.3493 38.406C62.5933 38.814 61.7593 39.018 60.8473 39.018ZM60.8293 36.516C61.4293 36.516 61.8973 36.36 62.2333 36.048C62.5693 35.724 62.8033 35.286 62.9353 34.734C63.0793 34.182 63.1513 33.57 63.1513 32.898C63.1513 32.238 63.0793 31.65 62.9353 31.134C62.8033 30.618 62.5693 30.21 62.2333 29.91C61.8973 29.598 61.4293 29.442 60.8293 29.442C60.2413 29.442 59.7793 29.598 59.4433 29.91C59.1073 30.222 58.8733 30.642 58.7413 31.17C58.6093 31.698 58.5433 32.292 58.5433 32.952C58.5433 33.612 58.6093 34.212 58.7413 34.752C58.8733 35.292 59.1073 35.724 59.4433 36.048C59.7793 36.36 60.2413 36.516 60.8293 36.516ZM74.706 27.066L72.438 31.422C72.87 31.518 73.272 31.704 73.644 31.98C74.028 32.244 74.334 32.622 74.562 33.114C74.79 33.606 74.904 34.242 74.904 35.022C74.904 35.886 74.7 36.63 74.292 37.254C73.896 37.866 73.374 38.334 72.726 38.658C72.078 38.982 71.376 39.144 70.62 39.144C70.032 39.144 69.414 39.024 68.766 38.784C68.118 38.532 67.602 38.202 67.218 37.794L68.55 35.634C68.73 35.862 69.006 36.084 69.378 36.3C69.75 36.516 70.14 36.624 70.548 36.624C70.944 36.624 71.316 36.474 71.664 36.174C72.024 35.874 72.204 35.436 72.204 34.86C72.204 34.332 72.054 33.912 71.754 33.6C71.466 33.288 71.058 33.132 70.53 33.132C70.17 33.132 69.894 33.15 69.702 33.186C69.522 33.21 69.342 33.246 69.162 33.294L69.108 33.222L71.052 29.586H68.208V27.066H74.706Z" fill="#3B3B3B"/>
<path d="M32.652 106.018C31.74 106.018 30.9 105.802 30.132 105.37C29.376 104.938 28.77 104.272 28.314 103.372C27.858 102.472 27.63 101.338 27.63 99.97C27.63 98.434 27.846 97.228 28.278 96.352C28.722 95.464 29.322 94.834 30.078 94.462C30.834 94.09 31.692 93.91 32.652 93.922C33.576 93.91 34.416 94.126 35.172 94.57C35.928 95.002 36.534 95.668 36.99 96.568C37.446 97.456 37.674 98.59 37.674 99.97C37.674 101.398 37.44 102.562 36.972 103.462C36.516 104.35 35.91 104.998 35.154 105.406C34.398 105.814 33.564 106.018 32.652 106.018ZM32.634 103.516C33.234 103.516 33.702 103.36 34.038 103.048C34.374 102.724 34.608 102.286 34.74 101.734C34.884 101.182 34.956 100.57 34.956 99.898C34.956 99.238 34.884 98.65 34.74 98.134C34.608 97.618 34.374 97.21 34.038 96.91C33.702 96.598 33.234 96.442 32.634 96.442C32.046 96.442 31.584 96.598 31.248 96.91C30.912 97.222 30.678 97.642 30.546 98.17C30.414 98.698 30.348 99.292 30.348 99.952C30.348 100.612 30.414 101.212 30.546 101.752C30.678 102.292 30.912 102.724 31.248 103.048C31.584 103.36 32.046 103.516 32.634 103.516ZM42.3527 102.274C41.7767 102.274 41.2187 102.112 40.6787 101.788C40.1507 101.464 39.7127 101.014 39.3647 100.438C39.0167 99.85 38.8427 99.178 38.8427 98.422C38.8427 97.462 39.0527 96.646 39.4727 95.974C39.9047 95.302 40.4567 94.792 41.1287 94.444C41.8007 94.096 42.5087 93.922 43.2527 93.922C44.1287 93.922 44.9087 94.12 45.5927 94.516C46.2887 94.9 46.8407 95.434 47.2487 96.118C47.6567 96.79 47.8607 97.552 47.8607 98.404C47.8607 99.388 47.6867 100.276 47.3387 101.068C47.0027 101.848 46.5467 102.55 45.9707 103.174C45.4067 103.798 44.7767 104.368 44.0807 104.884C43.3847 105.388 42.6827 105.862 41.9747 106.306L40.2287 104.416C41.0687 104.08 41.8247 103.696 42.4967 103.264C43.1687 102.82 43.7147 102.358 44.1347 101.878C43.6547 102.142 43.0607 102.274 42.3527 102.274ZM43.3607 100.078C43.8647 100.078 44.2907 99.916 44.6387 99.592C44.9867 99.268 45.1607 98.902 45.1607 98.494V98.08C45.1607 97.768 45.0827 97.474 44.9267 97.198C44.7707 96.922 44.5547 96.7 44.2787 96.532C44.0147 96.352 43.7087 96.262 43.3607 96.262C42.8447 96.262 42.4127 96.43 42.0647 96.766C41.7287 97.09 41.5607 97.57 41.5607 98.206C41.5607 98.83 41.7347 99.298 42.0827 99.61C42.4307 99.922 42.8567 100.078 43.3607 100.078ZM55.8149 92.482C54.9629 94.798 54.1109 97.108 53.2589 99.412C52.4069 101.716 51.5549 104.026 50.7029 106.342H48.4349C49.2869 104.026 50.1389 101.716 50.9909 99.412C51.8429 97.108 52.6949 94.798 53.5469 92.482H55.8149ZM61.3571 106.018C60.4451 106.018 59.6051 105.802 58.8371 105.37C58.0811 104.938 57.4751 104.272 57.0191 103.372C56.5631 102.472 56.3351 101.338 56.3351 99.97C56.3351 98.434 56.5511 97.228 56.9831 96.352C57.4271 95.464 58.0271 94.834 58.7831 94.462C59.5391 94.09 60.3971 93.91 61.3571 93.922C62.2811 93.91 63.1211 94.126 63.8771 94.57C64.6331 95.002 65.2391 95.668 65.6951 96.568C66.1511 97.456 66.3791 98.59 66.3791 99.97C66.3791 101.398 66.1451 102.562 65.6771 103.462C65.2211 104.35 64.6151 104.998 63.8591 105.406C63.1031 105.814 62.2691 106.018 61.3571 106.018ZM61.3391 103.516C61.9391 103.516 62.4071 103.36 62.7431 103.048C63.0791 102.724 63.3131 102.286 63.4451 101.734C63.5891 101.182 63.6611 100.57 63.6611 99.898C63.6611 99.238 63.5891 98.65 63.4451 98.134C63.3131 97.618 63.0791 97.21 62.7431 96.91C62.4071 96.598 61.9391 96.442 61.3391 96.442C60.7511 96.442 60.2891 96.598 59.9531 96.91C59.6171 97.222 59.3831 97.642 59.2511 98.17C59.1191 98.698 59.0531 99.292 59.0531 99.952C59.0531 100.612 59.1191 101.212 59.2511 101.752C59.3831 102.292 59.6171 102.724 59.9531 103.048C60.2891 103.36 60.7511 103.516 61.3391 103.516ZM75.2158 94.066L72.9478 98.422C73.3798 98.518 73.7818 98.704 74.1538 98.98C74.5378 99.244 74.8438 99.622 75.0718 100.114C75.2998 100.606 75.4138 101.242 75.4138 102.022C75.4138 102.886 75.2098 103.63 74.8018 104.254C74.4058 104.866 73.8838 105.334 73.2358 105.658C72.5878 105.982 71.8858 106.144 71.1298 106.144C70.5418 106.144 69.9238 106.024 69.2758 105.784C68.6278 105.532 68.1118 105.202 67.7278 104.794L69.0598 102.634C69.2398 102.862 69.5158 103.084 69.8878 103.3C70.2598 103.516 70.6498 103.624 71.0578 103.624C71.4538 103.624 71.8258 103.474 72.1738 103.174C72.5338 102.874 72.7138 102.436 72.7138 101.86C72.7138 101.332 72.5638 100.912 72.2638 100.6C71.9758 100.288 71.5678 100.132 71.0398 100.132C70.6798 100.132 70.4038 100.15 70.2118 100.186C70.0318 100.21 69.8518 100.246 69.6718 100.294L69.6178 100.222L71.5618 96.586H68.7178V94.066H75.2158Z" fill="#3B3B3B"/>
<path d="M27.9 161.066H31.482V173H28.854V163.586H27.9V161.066ZM38.3355 173.144C37.4715 173.144 36.6915 172.94 35.9955 172.532C35.2995 172.124 34.7475 171.524 34.3395 170.732C33.9315 169.94 33.7275 168.974 33.7275 167.834C33.7275 166.886 33.9615 165.98 34.4295 165.116C34.8975 164.252 35.5215 163.448 36.3015 162.704C37.0815 161.96 37.9455 161.306 38.8935 160.742L40.6395 162.632C39.6555 163.016 38.8575 163.508 38.2455 164.108C37.6335 164.708 37.1835 165.314 36.8955 165.926C37.1835 165.674 37.5135 165.482 37.8855 165.35C38.2695 165.206 38.7195 165.134 39.2355 165.134C39.8115 165.134 40.3695 165.296 40.9095 165.62C41.4495 165.944 41.8875 166.394 42.2235 166.97C42.5715 167.546 42.7455 168.218 42.7455 168.986C42.7455 169.874 42.5295 170.63 42.0975 171.254C41.6775 171.866 41.1315 172.334 40.4595 172.658C39.7875 172.982 39.0795 173.144 38.3355 173.144ZM38.2275 170.804C38.7435 170.804 39.1695 170.654 39.5055 170.354C39.8535 170.042 40.0275 169.592 40.0275 169.004C40.0275 168.44 39.8535 168.02 39.5055 167.744C39.1575 167.468 38.7315 167.33 38.2275 167.33C37.7235 167.33 37.2975 167.468 36.9495 167.744C36.6015 168.02 36.4275 168.338 36.4275 168.698V169.13C36.4275 169.562 36.5955 169.952 36.9315 170.3C37.2795 170.636 37.7115 170.804 38.2275 170.804ZM50.9633 159.482C50.1113 161.798 49.2593 164.108 48.4073 166.412C47.5553 168.716 46.7033 171.026 45.8513 173.342H43.5833C44.4353 171.026 45.2873 168.716 46.1393 166.412C46.9913 164.108 47.8433 161.798 48.6953 159.482H50.9633ZM56.5055 173.018C55.5935 173.018 54.7535 172.802 53.9855 172.37C53.2295 171.938 52.6235 171.272 52.1675 170.372C51.7115 169.472 51.4835 168.338 51.4835 166.97C51.4835 165.434 51.6995 164.228 52.1315 163.352C52.5755 162.464 53.1755 161.834 53.9315 161.462C54.6875 161.09 55.5455 160.91 56.5055 160.922C57.4295 160.91 58.2695 161.126 59.0255 161.57C59.7815 162.002 60.3875 162.668 60.8435 163.568C61.2995 164.456 61.5275 165.59 61.5275 166.97C61.5275 168.398 61.2935 169.562 60.8255 170.462C60.3695 171.35 59.7635 171.998 59.0075 172.406C58.2515 172.814 57.4175 173.018 56.5055 173.018ZM56.4875 170.516C57.0875 170.516 57.5555 170.36 57.8915 170.048C58.2275 169.724 58.4615 169.286 58.5935 168.734C58.7375 168.182 58.8095 167.57 58.8095 166.898C58.8095 166.238 58.7375 165.65 58.5935 165.134C58.4615 164.618 58.2275 164.21 57.8915 163.91C57.5555 163.598 57.0875 163.442 56.4875 163.442C55.8995 163.442 55.4375 163.598 55.1015 163.91C54.7655 164.222 54.5315 164.642 54.3995 165.17C54.2675 165.698 54.2015 166.292 54.2015 166.952C54.2015 167.612 54.2675 168.212 54.3995 168.752C54.5315 169.292 54.7655 169.724 55.1015 170.048C55.4375 170.36 55.8995 170.516 56.4875 170.516ZM70.3643 161.066L68.0963 165.422C68.5283 165.518 68.9303 165.704 69.3023 165.98C69.6863 166.244 69.9923 166.622 70.2203 167.114C70.4483 167.606 70.5623 168.242 70.5623 169.022C70.5623 169.886 70.3583 170.63 69.9503 171.254C69.5543 171.866 69.0323 172.334 68.3843 172.658C67.7363 172.982 67.0343 173.144 66.2783 173.144C65.6903 173.144 65.0723 173.024 64.4243 172.784C63.7763 172.532 63.2603 172.202 62.8763 171.794L64.2083 169.634C64.3883 169.862 64.6643 170.084 65.0363 170.3C65.4083 170.516 65.7983 170.624 66.2063 170.624C66.6023 170.624 66.9743 170.474 67.3223 170.174C67.6823 169.874 67.8623 169.436 67.8623 168.86C67.8623 168.332 67.7123 167.912 67.4123 167.6C67.1243 167.288 66.7163 167.132 66.1883 167.132C65.8283 167.132 65.5523 167.15 65.3603 167.186C65.1803 167.21 65.0003 167.246 64.8203 167.294L64.7663 167.222L66.7103 163.586H63.8663V161.066H70.3643Z" fill="#3B3B3B"/>
<path d="M34.764 53.268C34.668 53.348 34.488 53.456 34.224 53.592C33.968 53.728 33.652 53.848 33.276 53.952C32.9 54.056 32.484 54.104 32.028 54.096C31.332 54.08 30.708 53.956 30.156 53.724C29.612 53.484 29.148 53.16 28.764 52.752C28.388 52.344 28.1 51.876 27.9 51.348C27.7 50.82 27.6 50.256 27.6 49.656C27.6 48.76 27.78 47.968 28.14 47.28C28.5 46.592 29 46.052 29.64 45.66C30.288 45.268 31.04 45.072 31.896 45.072C32.488 45.072 33.012 45.152 33.468 45.312C33.924 45.472 34.296 45.644 34.584 45.828L33.9 47.472C33.7 47.32 33.432 47.164 33.096 47.004C32.768 46.836 32.388 46.752 31.956 46.752C31.508 46.752 31.088 46.876 30.696 47.124C30.312 47.372 30 47.708 29.76 48.132C29.528 48.548 29.412 49.024 29.412 49.56C29.412 50.128 29.52 50.628 29.736 51.06C29.952 51.484 30.26 51.816 30.66 52.056C31.06 52.296 31.528 52.416 32.064 52.416C32.536 52.416 32.94 52.34 33.276 52.188C33.612 52.036 33.868 51.876 34.044 51.708L34.764 53.268ZM35.8232 51.312C35.8232 50.776 35.9472 50.296 36.1952 49.872C36.4512 49.448 36.8072 49.116 37.2632 48.876C37.7192 48.628 38.2432 48.504 38.8352 48.504C39.4352 48.504 39.9552 48.628 40.3952 48.876C40.8352 49.116 41.1712 49.448 41.4032 49.872C41.6432 50.296 41.7632 50.776 41.7632 51.312C41.7632 51.848 41.6432 52.332 41.4032 52.764C41.1712 53.188 40.8352 53.524 40.3952 53.772C39.9552 54.02 39.4272 54.144 38.8112 54.144C38.2352 54.144 37.7192 54.032 37.2632 53.808C36.8152 53.584 36.4632 53.26 36.2072 52.836C35.9512 52.412 35.8232 51.904 35.8232 51.312ZM37.5152 51.324C37.5152 51.74 37.6352 52.088 37.8752 52.368C38.1152 52.64 38.4192 52.776 38.7872 52.776C39.1792 52.776 39.4912 52.64 39.7232 52.368C39.9552 52.088 40.0712 51.74 40.0712 51.324C40.0712 50.908 39.9552 50.564 39.7232 50.292C39.4912 50.012 39.1792 49.872 38.7872 49.872C38.4192 49.872 38.1152 50.012 37.8752 50.292C37.6352 50.564 37.5152 50.908 37.5152 51.324ZM44.6107 48.756L44.7307 49.584C44.9307 49.24 45.1867 48.972 45.4987 48.78C45.8187 48.588 46.1947 48.492 46.6267 48.492C47.0507 48.492 47.4027 48.58 47.6827 48.756C47.9707 48.924 48.1587 49.18 48.2467 49.524C48.4627 49.212 48.7227 48.964 49.0267 48.78C49.3387 48.588 49.6627 48.492 49.9987 48.492C50.5187 48.492 50.9307 48.64 51.2347 48.936C51.5467 49.224 51.7067 49.6 51.7147 50.064V54H50.0467V50.76C50.0387 50.528 50.0027 50.34 49.9387 50.196C49.8747 50.044 49.7267 49.96 49.4947 49.944C49.2227 49.944 48.9907 50.04 48.7987 50.232C48.6147 50.416 48.4747 50.656 48.3787 50.952C48.2907 51.24 48.2467 51.54 48.2467 51.852V54H46.5667V50.76C46.5587 50.528 46.5147 50.34 46.4347 50.196C46.3627 50.044 46.2107 49.96 45.9787 49.944C45.7147 49.944 45.4907 50.04 45.3067 50.232C45.1307 50.416 44.9947 50.652 44.8987 50.94C44.8107 51.228 44.7667 51.524 44.7667 51.828V54H43.0867V48.756H44.6107ZM56.734 54.144C56.438 54.144 56.142 54.092 55.846 53.988C55.558 53.876 55.314 53.72 55.114 53.52V56.52H53.446V48.636H54.886L55.03 49.26C55.302 49.044 55.602 48.864 55.93 48.72C56.266 48.568 56.646 48.492 57.07 48.492C57.558 48.492 57.994 48.608 58.378 48.84C58.762 49.064 59.062 49.392 59.278 49.824C59.502 50.248 59.614 50.76 59.614 51.36C59.614 51.952 59.49 52.456 59.242 52.872C58.994 53.288 58.654 53.604 58.222 53.82C57.79 54.036 57.294 54.144 56.734 54.144ZM56.398 52.824C56.67 52.824 56.918 52.764 57.142 52.644C57.374 52.524 57.558 52.356 57.694 52.14C57.838 51.916 57.91 51.664 57.91 51.384C57.91 50.936 57.774 50.58 57.502 50.316C57.23 50.044 56.902 49.908 56.518 49.908C56.182 49.908 55.902 49.976 55.678 50.112C55.454 50.24 55.27 50.436 55.126 50.7V51.984C55.214 52.24 55.37 52.444 55.594 52.596C55.826 52.748 56.094 52.824 56.398 52.824ZM62.4463 48.756L62.5783 49.956C62.7303 49.652 62.9383 49.392 63.2023 49.176C63.4663 48.952 63.7263 48.784 63.9823 48.672C64.2383 48.552 64.4343 48.492 64.5703 48.492L64.4863 50.172C64.0943 50.124 63.7583 50.188 63.4783 50.364C63.1983 50.54 62.9823 50.772 62.8303 51.06C62.6783 51.348 62.6023 51.644 62.6023 51.948V54H60.9343V48.756H62.4463ZM67.8884 54.144C67.4004 54.144 66.9564 54.048 66.5564 53.856C66.1644 53.656 65.8524 53.352 65.6204 52.944C65.3884 52.536 65.2724 52.016 65.2724 51.384C65.2724 50.792 65.3924 50.28 65.6324 49.848C65.8724 49.416 66.1884 49.084 66.5804 48.852C66.9724 48.612 67.3884 48.492 67.8284 48.492C68.3484 48.492 68.7404 48.576 69.0044 48.744C69.2764 48.912 69.4924 49.096 69.6524 49.296L69.7604 48.756H71.3204V54H69.6404V53.352C69.5604 53.432 69.4404 53.536 69.2804 53.664C69.1284 53.792 68.9364 53.904 68.7044 54C68.4724 54.096 68.2004 54.144 67.8884 54.144ZM68.3684 52.776C68.9524 52.776 69.3764 52.512 69.6404 51.984V50.7C69.5444 50.444 69.3764 50.24 69.1364 50.088C68.9044 49.936 68.6284 49.86 68.3084 49.86C67.9484 49.86 67.6364 49.996 67.3724 50.268C67.1084 50.532 66.9764 50.876 66.9764 51.3C66.9764 51.58 67.0404 51.832 67.1684 52.056C67.2964 52.28 67.4644 52.456 67.6724 52.584C67.8884 52.712 68.1204 52.776 68.3684 52.776ZM83.8538 53.268C83.7578 53.348 83.5778 53.456 83.3138 53.592C83.0578 53.728 82.7418 53.848 82.3658 53.952C81.9898 54.056 81.5738 54.104 81.1178 54.096C80.4218 54.08 79.7978 53.956 79.2458 53.724C78.7018 53.484 78.2378 53.16 77.8538 52.752C77.4778 52.344 77.1898 51.876 76.9898 51.348C76.7898 50.82 76.6898 50.256 76.6898 49.656C76.6898 48.76 76.8698 47.968 77.2298 47.28C77.5898 46.592 78.0898 46.052 78.7298 45.66C79.3778 45.268 80.1298 45.072 80.9858 45.072C81.5778 45.072 82.1018 45.152 82.5578 45.312C83.0138 45.472 83.3858 45.644 83.6738 45.828L82.9898 47.472C82.7898 47.32 82.5218 47.164 82.1858 47.004C81.8578 46.836 81.4778 46.752 81.0458 46.752C80.5978 46.752 80.1778 46.876 79.7858 47.124C79.4018 47.372 79.0898 47.708 78.8498 48.132C78.6178 48.548 78.5018 49.024 78.5018 49.56C78.5018 50.128 78.6098 50.628 78.8258 51.06C79.0418 51.484 79.3498 51.816 79.7498 52.056C80.1498 52.296 80.6178 52.416 81.1538 52.416C81.6258 52.416 82.0298 52.34 82.3658 52.188C82.7018 52.036 82.9578 51.876 83.1338 51.708L83.8538 53.268ZM87.529 54.144C87.041 54.144 86.597 54.048 86.197 53.856C85.805 53.656 85.493 53.352 85.261 52.944C85.029 52.536 84.913 52.016 84.913 51.384C84.913 50.792 85.033 50.28 85.273 49.848C85.513 49.416 85.829 49.084 86.221 48.852C86.613 48.612 87.029 48.492 87.469 48.492C87.989 48.492 88.381 48.576 88.645 48.744C88.917 48.912 89.133 49.096 89.293 49.296L89.401 48.756H90.961V54H89.281V53.352C89.201 53.432 89.081 53.536 88.921 53.664C88.769 53.792 88.577 53.904 88.345 54C88.113 54.096 87.841 54.144 87.529 54.144ZM88.009 52.776C88.593 52.776 89.017 52.512 89.281 51.984V50.7C89.185 50.444 89.017 50.24 88.777 50.088C88.545 49.936 88.269 49.86 87.949 49.86C87.589 49.86 87.277 49.996 87.013 50.268C86.749 50.532 86.617 50.876 86.617 51.3C86.617 51.58 86.681 51.832 86.809 52.056C86.937 52.28 87.105 52.456 87.313 52.584C87.529 52.712 87.761 52.776 88.009 52.776ZM94.3961 54.108C93.9641 54.108 93.5601 54.032 93.1841 53.88C92.8161 53.728 92.5041 53.516 92.2481 53.244L92.9441 52.32C93.2001 52.552 93.4361 52.72 93.6521 52.824C93.8761 52.92 94.0761 52.968 94.2521 52.968C94.4601 52.968 94.6321 52.936 94.7681 52.872C94.9041 52.808 94.9721 52.704 94.9721 52.56C94.9721 52.424 94.9161 52.316 94.8041 52.236C94.7001 52.156 94.5641 52.092 94.3961 52.044C94.2281 51.988 94.0481 51.932 93.8561 51.876C93.3761 51.724 93.0281 51.504 92.8121 51.216C92.6041 50.92 92.5001 50.6 92.5001 50.256C92.5001 49.992 92.5681 49.728 92.7041 49.464C92.8481 49.192 93.0721 48.968 93.3761 48.792C93.6881 48.608 94.0881 48.516 94.5761 48.516C95.0161 48.516 95.3881 48.56 95.6921 48.648C95.9961 48.736 96.2841 48.88 96.5561 49.08L95.9201 50.064C95.7681 49.944 95.5961 49.844 95.4041 49.764C95.2201 49.676 95.0481 49.628 94.8881 49.62C94.6721 49.612 94.5041 49.652 94.3841 49.74C94.2641 49.82 94.2041 49.916 94.2041 50.028C94.1961 50.18 94.2521 50.3 94.3721 50.388C94.5001 50.476 94.6601 50.544 94.8521 50.592C95.0441 50.64 95.2321 50.696 95.4161 50.76C95.7921 50.888 96.0921 51.072 96.3161 51.312C96.5401 51.544 96.6521 51.856 96.6521 52.248C96.6521 52.568 96.5681 52.872 96.4001 53.16C96.2401 53.44 95.9921 53.668 95.6561 53.844C95.3281 54.02 94.9081 54.108 94.3961 54.108ZM98.0593 54V44.532H99.7033V49.584C99.8873 49.264 100.147 49.004 100.483 48.804C100.819 48.604 101.227 48.504 101.707 48.504C102.203 48.504 102.615 48.652 102.943 48.948C103.279 49.236 103.451 49.612 103.459 50.076V54H101.779V50.7C101.771 50.468 101.707 50.284 101.587 50.148C101.475 50.004 101.283 49.932 101.011 49.932C100.619 49.932 100.307 50.116 100.075 50.484C99.8513 50.844 99.7393 51.304 99.7393 51.864V54H98.0593ZM110.923 50.736C110.923 51.016 111.007 51.284 111.175 51.54C111.343 51.796 111.563 52.004 111.835 52.164C112.115 52.324 112.419 52.404 112.747 52.404C113.107 52.404 113.427 52.324 113.707 52.164C113.987 52.004 114.207 51.796 114.367 51.54C114.535 51.284 114.619 51.016 114.619 50.736V45.168H116.335V50.772C116.335 51.42 116.175 51.996 115.855 52.5C115.535 52.996 115.103 53.388 114.559 53.676C114.015 53.956 113.411 54.096 112.747 54.096C112.091 54.096 111.491 53.956 110.947 53.676C110.411 53.388 109.983 52.996 109.663 52.5C109.343 51.996 109.183 51.42 109.183 50.772V45.168H110.923V50.736ZM121.601 54.144C121.201 54.144 120.857 54.084 120.569 53.964C120.289 53.844 120.045 53.68 119.837 53.472V54H118.157V44.532H119.825V49.116C120.033 48.94 120.309 48.792 120.653 48.672C120.997 48.552 121.389 48.492 121.829 48.492C122.285 48.492 122.701 48.6 123.077 48.816C123.453 49.032 123.753 49.348 123.977 49.764C124.209 50.172 124.325 50.672 124.325 51.264C124.325 51.856 124.197 52.368 123.941 52.8C123.693 53.232 123.361 53.564 122.945 53.796C122.529 54.028 122.081 54.144 121.601 54.144ZM121.229 52.728C121.477 52.728 121.705 52.664 121.913 52.536C122.129 52.408 122.301 52.232 122.429 52.008C122.557 51.784 122.621 51.532 122.621 51.252C122.621 50.972 122.557 50.724 122.429 50.508C122.301 50.292 122.129 50.124 121.913 50.004C121.705 49.876 121.477 49.812 121.229 49.812C120.901 49.812 120.613 49.888 120.365 50.04C120.117 50.192 119.941 50.396 119.837 50.652V51.936C120.125 52.464 120.589 52.728 121.229 52.728ZM128.225 54.144C127.585 54.144 127.041 54.024 126.593 53.784C126.153 53.544 125.817 53.212 125.585 52.788C125.353 52.364 125.237 51.876 125.237 51.324C125.237 50.796 125.373 50.32 125.645 49.896C125.917 49.472 126.281 49.136 126.737 48.888C127.193 48.632 127.701 48.504 128.261 48.504C129.013 48.504 129.629 48.724 130.109 49.164C130.597 49.596 130.913 50.224 131.057 51.048L127.217 52.272C127.473 52.568 127.821 52.716 128.261 52.716C128.445 52.716 128.621 52.684 128.789 52.62C128.965 52.556 129.137 52.472 129.305 52.368L130.049 53.616C129.769 53.776 129.465 53.904 129.137 54C128.817 54.096 128.513 54.144 128.225 54.144ZM126.893 51.228C126.893 51.268 126.893 51.304 126.893 51.336L129.197 50.556C129.125 50.356 129.009 50.184 128.849 50.04C128.689 49.888 128.449 49.812 128.129 49.812C127.753 49.812 127.453 49.94 127.229 50.196C127.005 50.452 126.893 50.796 126.893 51.228ZM133.79 48.756L133.922 49.956C134.074 49.652 134.282 49.392 134.546 49.176C134.81 48.952 135.07 48.784 135.326 48.672C135.582 48.552 135.778 48.492 135.914 48.492L135.83 50.172C135.438 50.124 135.102 50.188 134.822 50.364C134.542 50.54 134.326 50.772 134.174 51.06C134.022 51.348 133.946 51.644 133.946 51.948V54H132.278V48.756H133.79Z" fill="#3B3B3B"/>
<path d="M34.764 120.268C34.668 120.348 34.488 120.456 34.224 120.592C33.968 120.728 33.652 120.848 33.276 120.952C32.9 121.056 32.484 121.104 32.028 121.096C31.332 121.08 30.708 120.956 30.156 120.724C29.612 120.484 29.148 120.16 28.764 119.752C28.388 119.344 28.1 118.876 27.9 118.348C27.7 117.82 27.6 117.256 27.6 116.656C27.6 115.76 27.78 114.968 28.14 114.28C28.5 113.592 29 113.052 29.64 112.66C30.288 112.268 31.04 112.072 31.896 112.072C32.488 112.072 33.012 112.152 33.468 112.312C33.924 112.472 34.296 112.644 34.584 112.828L33.9 114.472C33.7 114.32 33.432 114.164 33.096 114.004C32.768 113.836 32.388 113.752 31.956 113.752C31.508 113.752 31.088 113.876 30.696 114.124C30.312 114.372 30 114.708 29.76 115.132C29.528 115.548 29.412 116.024 29.412 116.56C29.412 117.128 29.52 117.628 29.736 118.06C29.952 118.484 30.26 118.816 30.66 119.056C31.06 119.296 31.528 119.416 32.064 119.416C32.536 119.416 32.94 119.34 33.276 119.188C33.612 119.036 33.868 118.876 34.044 118.708L34.764 120.268ZM35.8232 118.312C35.8232 117.776 35.9472 117.296 36.1952 116.872C36.4512 116.448 36.8072 116.116 37.2632 115.876C37.7192 115.628 38.2432 115.504 38.8352 115.504C39.4352 115.504 39.9552 115.628 40.3952 115.876C40.8352 116.116 41.1712 116.448 41.4032 116.872C41.6432 117.296 41.7632 117.776 41.7632 118.312C41.7632 118.848 41.6432 119.332 41.4032 119.764C41.1712 120.188 40.8352 120.524 40.3952 120.772C39.9552 121.02 39.4272 121.144 38.8112 121.144C38.2352 121.144 37.7192 121.032 37.2632 120.808C36.8152 120.584 36.4632 120.26 36.2072 119.836C35.9512 119.412 35.8232 118.904 35.8232 118.312ZM37.5152 118.324C37.5152 118.74 37.6352 119.088 37.8752 119.368C38.1152 119.64 38.4192 119.776 38.7872 119.776C39.1792 119.776 39.4912 119.64 39.7232 119.368C39.9552 119.088 40.0712 118.74 40.0712 118.324C40.0712 117.908 39.9552 117.564 39.7232 117.292C39.4912 117.012 39.1792 116.872 38.7872 116.872C38.4192 116.872 38.1152 117.012 37.8752 117.292C37.6352 117.564 37.5152 117.908 37.5152 118.324ZM44.6107 115.756L44.7307 116.584C44.9307 116.24 45.1867 115.972 45.4987 115.78C45.8187 115.588 46.1947 115.492 46.6267 115.492C47.0507 115.492 47.4027 115.58 47.6827 115.756C47.9707 115.924 48.1587 116.18 48.2467 116.524C48.4627 116.212 48.7227 115.964 49.0267 115.78C49.3387 115.588 49.6627 115.492 49.9987 115.492C50.5187 115.492 50.9307 115.64 51.2347 115.936C51.5467 116.224 51.7067 116.6 51.7147 117.064V121H50.0467V117.76C50.0387 117.528 50.0027 117.34 49.9387 117.196C49.8747 117.044 49.7267 116.96 49.4947 116.944C49.2227 116.944 48.9907 117.04 48.7987 117.232C48.6147 117.416 48.4747 117.656 48.3787 117.952C48.2907 118.24 48.2467 118.54 48.2467 118.852V121H46.5667V117.76C46.5587 117.528 46.5147 117.34 46.4347 117.196C46.3627 117.044 46.2107 116.96 45.9787 116.944C45.7147 116.944 45.4907 117.04 45.3067 117.232C45.1307 117.416 44.9947 117.652 44.8987 117.94C44.8107 118.228 44.7667 118.524 44.7667 118.828V121H43.0867V115.756H44.6107ZM56.734 121.144C56.438 121.144 56.142 121.092 55.846 120.988C55.558 120.876 55.314 120.72 55.114 120.52V123.52H53.446V115.636H54.886L55.03 116.26C55.302 116.044 55.602 115.864 55.93 115.72C56.266 115.568 56.646 115.492 57.07 115.492C57.558 115.492 57.994 115.608 58.378 115.84C58.762 116.064 59.062 116.392 59.278 116.824C59.502 117.248 59.614 117.76 59.614 118.36C59.614 118.952 59.49 119.456 59.242 119.872C58.994 120.288 58.654 120.604 58.222 120.82C57.79 121.036 57.294 121.144 56.734 121.144ZM56.398 119.824C56.67 119.824 56.918 119.764 57.142 119.644C57.374 119.524 57.558 119.356 57.694 119.14C57.838 118.916 57.91 118.664 57.91 118.384C57.91 117.936 57.774 117.58 57.502 117.316C57.23 117.044 56.902 116.908 56.518 116.908C56.182 116.908 55.902 116.976 55.678 117.112C55.454 117.24 55.27 117.436 55.126 117.7V118.984C55.214 119.24 55.37 119.444 55.594 119.596C55.826 119.748 56.094 119.824 56.398 119.824ZM62.4463 115.756L62.5783 116.956C62.7303 116.652 62.9383 116.392 63.2023 116.176C63.4663 115.952 63.7263 115.784 63.9823 115.672C64.2383 115.552 64.4343 115.492 64.5703 115.492L64.4863 117.172C64.0943 117.124 63.7583 117.188 63.4783 117.364C63.1983 117.54 62.9823 117.772 62.8303 118.06C62.6783 118.348 62.6023 118.644 62.6023 118.948V121H60.9343V115.756H62.4463ZM67.8884 121.144C67.4004 121.144 66.9564 121.048 66.5564 120.856C66.1644 120.656 65.8524 120.352 65.6204 119.944C65.3884 119.536 65.2724 119.016 65.2724 118.384C65.2724 117.792 65.3924 117.28 65.6324 116.848C65.8724 116.416 66.1884 116.084 66.5804 115.852C66.9724 115.612 67.3884 115.492 67.8284 115.492C68.3484 115.492 68.7404 115.576 69.0044 115.744C69.2764 115.912 69.4924 116.096 69.6524 116.296L69.7604 115.756H71.3204V121H69.6404V120.352C69.5604 120.432 69.4404 120.536 69.2804 120.664C69.1284 120.792 68.9364 120.904 68.7044 121C68.4724 121.096 68.2004 121.144 67.8884 121.144ZM68.3684 119.776C68.9524 119.776 69.3764 119.512 69.6404 118.984V117.7C69.5444 117.444 69.3764 117.24 69.1364 117.088C68.9044 116.936 68.6284 116.86 68.3084 116.86C67.9484 116.86 67.6364 116.996 67.3724 117.268C67.1084 117.532 66.9764 117.876 66.9764 118.3C66.9764 118.58 67.0404 118.832 67.1684 119.056C67.2964 119.28 67.4644 119.456 67.6724 119.584C67.8884 119.712 68.1204 119.776 68.3684 119.776ZM83.8538 120.268C83.7578 120.348 83.5778 120.456 83.3138 120.592C83.0578 120.728 82.7418 120.848 82.3658 120.952C81.9898 121.056 81.5738 121.104 81.1178 121.096C80.4218 121.08 79.7978 120.956 79.2458 120.724C78.7018 120.484 78.2378 120.16 77.8538 119.752C77.4778 119.344 77.1898 118.876 76.9898 118.348C76.7898 117.82 76.6898 117.256 76.6898 116.656C76.6898 115.76 76.8698 114.968 77.2298 114.28C77.5898 113.592 78.0898 113.052 78.7298 112.66C79.3778 112.268 80.1298 112.072 80.9858 112.072C81.5778 112.072 82.1018 112.152 82.5578 112.312C83.0138 112.472 83.3858 112.644 83.6738 112.828L82.9898 114.472C82.7898 114.32 82.5218 114.164 82.1858 114.004C81.8578 113.836 81.4778 113.752 81.0458 113.752C80.5978 113.752 80.1778 113.876 79.7858 114.124C79.4018 114.372 79.0898 114.708 78.8498 115.132C78.6178 115.548 78.5018 116.024 78.5018 116.56C78.5018 117.128 78.6098 117.628 78.8258 118.06C79.0418 118.484 79.3498 118.816 79.7498 119.056C80.1498 119.296 80.6178 119.416 81.1538 119.416C81.6258 119.416 82.0298 119.34 82.3658 119.188C82.7018 119.036 82.9578 118.876 83.1338 118.708L83.8538 120.268ZM87.529 121.144C87.041 121.144 86.597 121.048 86.197 120.856C85.805 120.656 85.493 120.352 85.261 119.944C85.029 119.536 84.913 119.016 84.913 118.384C84.913 117.792 85.033 117.28 85.273 116.848C85.513 116.416 85.829 116.084 86.221 115.852C86.613 115.612 87.029 115.492 87.469 115.492C87.989 115.492 88.381 115.576 88.645 115.744C88.917 115.912 89.133 116.096 89.293 116.296L89.401 115.756H90.961V121H89.281V120.352C89.201 120.432 89.081 120.536 88.921 120.664C88.769 120.792 88.577 120.904 88.345 121C88.113 121.096 87.841 121.144 87.529 121.144ZM88.009 119.776C88.593 119.776 89.017 119.512 89.281 118.984V117.7C89.185 117.444 89.017 117.24 88.777 117.088C88.545 116.936 88.269 116.86 87.949 116.86C87.589 116.86 87.277 116.996 87.013 117.268C86.749 117.532 86.617 117.876 86.617 118.3C86.617 118.58 86.681 118.832 86.809 119.056C86.937 119.28 87.105 119.456 87.313 119.584C87.529 119.712 87.761 119.776 88.009 119.776ZM94.3961 121.108C93.9641 121.108 93.5601 121.032 93.1841 120.88C92.8161 120.728 92.5041 120.516 92.2481 120.244L92.9441 119.32C93.2001 119.552 93.4361 119.72 93.6521 119.824C93.8761 119.92 94.0761 119.968 94.2521 119.968C94.4601 119.968 94.6321 119.936 94.7681 119.872C94.9041 119.808 94.9721 119.704 94.9721 119.56C94.9721 119.424 94.9161 119.316 94.8041 119.236C94.7001 119.156 94.5641 119.092 94.3961 119.044C94.2281 118.988 94.0481 118.932 93.8561 118.876C93.3761 118.724 93.0281 118.504 92.8121 118.216C92.6041 117.92 92.5001 117.6 92.5001 117.256C92.5001 116.992 92.5681 116.728 92.7041 116.464C92.8481 116.192 93.0721 115.968 93.3761 115.792C93.6881 115.608 94.0881 115.516 94.5761 115.516C95.0161 115.516 95.3881 115.56 95.6921 115.648C95.9961 115.736 96.2841 115.88 96.5561 116.08L95.9201 117.064C95.7681 116.944 95.5961 116.844 95.4041 116.764C95.2201 116.676 95.0481 116.628 94.8881 116.62C94.6721 116.612 94.5041 116.652 94.3841 116.74C94.2641 116.82 94.2041 116.916 94.2041 117.028C94.1961 117.18 94.2521 117.3 94.3721 117.388C94.5001 117.476 94.6601 117.544 94.8521 117.592C95.0441 117.64 95.2321 117.696 95.4161 117.76C95.7921 117.888 96.0921 118.072 96.3161 118.312C96.5401 118.544 96.6521 118.856 96.6521 119.248C96.6521 119.568 96.5681 119.872 96.4001 120.16C96.2401 120.44 95.9921 120.668 95.6561 120.844C95.3281 121.02 94.9081 121.108 94.3961 121.108ZM98.0593 121V111.532H99.7033V116.584C99.8873 116.264 100.147 116.004 100.483 115.804C100.819 115.604 101.227 115.504 101.707 115.504C102.203 115.504 102.615 115.652 102.943 115.948C103.279 116.236 103.451 116.612 103.459 117.076V121H101.779V117.7C101.771 117.468 101.707 117.284 101.587 117.148C101.475 117.004 101.283 116.932 101.011 116.932C100.619 116.932 100.307 117.116 100.075 117.484C99.8513 117.844 99.7393 118.304 99.7393 118.864V121H98.0593ZM110.923 117.736C110.923 118.016 111.007 118.284 111.175 118.54C111.343 118.796 111.563 119.004 111.835 119.164C112.115 119.324 112.419 119.404 112.747 119.404C113.107 119.404 113.427 119.324 113.707 119.164C113.987 119.004 114.207 118.796 114.367 118.54C114.535 118.284 114.619 118.016 114.619 117.736V112.168H116.335V117.772C116.335 118.42 116.175 118.996 115.855 119.5C115.535 119.996 115.103 120.388 114.559 120.676C114.015 120.956 113.411 121.096 112.747 121.096C112.091 121.096 111.491 120.956 110.947 120.676C110.411 120.388 109.983 119.996 109.663 119.5C109.343 118.996 109.183 118.42 109.183 117.772V112.168H110.923V117.736ZM121.601 121.144C121.201 121.144 120.857 121.084 120.569 120.964C120.289 120.844 120.045 120.68 119.837 120.472V121H118.157V111.532H119.825V116.116C120.033 115.94 120.309 115.792 120.653 115.672C120.997 115.552 121.389 115.492 121.829 115.492C122.285 115.492 122.701 115.6 123.077 115.816C123.453 116.032 123.753 116.348 123.977 116.764C124.209 117.172 124.325 117.672 124.325 118.264C124.325 118.856 124.197 119.368 123.941 119.8C123.693 120.232 123.361 120.564 122.945 120.796C122.529 121.028 122.081 121.144 121.601 121.144ZM121.229 119.728C121.477 119.728 121.705 119.664 121.913 119.536C122.129 119.408 122.301 119.232 122.429 119.008C122.557 118.784 122.621 118.532 122.621 118.252C122.621 117.972 122.557 117.724 122.429 117.508C122.301 117.292 122.129 117.124 121.913 117.004C121.705 116.876 121.477 116.812 121.229 116.812C120.901 116.812 120.613 116.888 120.365 117.04C120.117 117.192 119.941 117.396 119.837 117.652V118.936C120.125 119.464 120.589 119.728 121.229 119.728ZM128.225 121.144C127.585 121.144 127.041 121.024 126.593 120.784C126.153 120.544 125.817 120.212 125.585 119.788C125.353 119.364 125.237 118.876 125.237 118.324C125.237 117.796 125.373 117.32 125.645 116.896C125.917 116.472 126.281 116.136 126.737 115.888C127.193 115.632 127.701 115.504 128.261 115.504C129.013 115.504 129.629 115.724 130.109 116.164C130.597 116.596 130.913 117.224 131.057 118.048L127.217 119.272C127.473 119.568 127.821 119.716 128.261 119.716C128.445 119.716 128.621 119.684 128.789 119.62C128.965 119.556 129.137 119.472 129.305 119.368L130.049 120.616C129.769 120.776 129.465 120.904 129.137 121C128.817 121.096 128.513 121.144 128.225 121.144ZM126.893 118.228C126.893 118.268 126.893 118.304 126.893 118.336L129.197 117.556C129.125 117.356 129.009 117.184 128.849 117.04C128.689 116.888 128.449 116.812 128.129 116.812C127.753 116.812 127.453 116.94 127.229 117.196C127.005 117.452 126.893 117.796 126.893 118.228ZM133.79 115.756L133.922 116.956C134.074 116.652 134.282 116.392 134.546 116.176C134.81 115.952 135.07 115.784 135.326 115.672C135.582 115.552 135.778 115.492 135.914 115.492L135.83 117.172C135.438 117.124 135.102 117.188 134.822 117.364C134.542 117.54 134.326 117.772 134.174 118.06C134.022 118.348 133.946 118.644 133.946 118.948V121H132.278V115.756H133.79Z" fill="#3B3B3B"/>
<path d="M34.764 187.268C34.668 187.348 34.488 187.456 34.224 187.592C33.968 187.728 33.652 187.848 33.276 187.952C32.9 188.056 32.484 188.104 32.028 188.096C31.332 188.08 30.708 187.956 30.156 187.724C29.612 187.484 29.148 187.16 28.764 186.752C28.388 186.344 28.1 185.876 27.9 185.348C27.7 184.82 27.6 184.256 27.6 183.656C27.6 182.76 27.78 181.968 28.14 181.28C28.5 180.592 29 180.052 29.64 179.66C30.288 179.268 31.04 179.072 31.896 179.072C32.488 179.072 33.012 179.152 33.468 179.312C33.924 179.472 34.296 179.644 34.584 179.828L33.9 181.472C33.7 181.32 33.432 181.164 33.096 181.004C32.768 180.836 32.388 180.752 31.956 180.752C31.508 180.752 31.088 180.876 30.696 181.124C30.312 181.372 30 181.708 29.76 182.132C29.528 182.548 29.412 183.024 29.412 183.56C29.412 184.128 29.52 184.628 29.736 185.06C29.952 185.484 30.26 185.816 30.66 186.056C31.06 186.296 31.528 186.416 32.064 186.416C32.536 186.416 32.94 186.34 33.276 186.188C33.612 186.036 33.868 185.876 34.044 185.708L34.764 187.268ZM35.8232 185.312C35.8232 184.776 35.9472 184.296 36.1952 183.872C36.4512 183.448 36.8072 183.116 37.2632 182.876C37.7192 182.628 38.2432 182.504 38.8352 182.504C39.4352 182.504 39.9552 182.628 40.3952 182.876C40.8352 183.116 41.1712 183.448 41.4032 183.872C41.6432 184.296 41.7632 184.776 41.7632 185.312C41.7632 185.848 41.6432 186.332 41.4032 186.764C41.1712 187.188 40.8352 187.524 40.3952 187.772C39.9552 188.02 39.4272 188.144 38.8112 188.144C38.2352 188.144 37.7192 188.032 37.2632 187.808C36.8152 187.584 36.4632 187.26 36.2072 186.836C35.9512 186.412 35.8232 185.904 35.8232 185.312ZM37.5152 185.324C37.5152 185.74 37.6352 186.088 37.8752 186.368C38.1152 186.64 38.4192 186.776 38.7872 186.776C39.1792 186.776 39.4912 186.64 39.7232 186.368C39.9552 186.088 40.0712 185.74 40.0712 185.324C40.0712 184.908 39.9552 184.564 39.7232 184.292C39.4912 184.012 39.1792 183.872 38.7872 183.872C38.4192 183.872 38.1152 184.012 37.8752 184.292C37.6352 184.564 37.5152 184.908 37.5152 185.324ZM44.6107 182.756L44.7307 183.584C44.9307 183.24 45.1867 182.972 45.4987 182.78C45.8187 182.588 46.1947 182.492 46.6267 182.492C47.0507 182.492 47.4027 182.58 47.6827 182.756C47.9707 182.924 48.1587 183.18 48.2467 183.524C48.4627 183.212 48.7227 182.964 49.0267 182.78C49.3387 182.588 49.6627 182.492 49.9987 182.492C50.5187 182.492 50.9307 182.64 51.2347 182.936C51.5467 183.224 51.7067 183.6 51.7147 184.064V188H50.0467V184.76C50.0387 184.528 50.0027 184.34 49.9387 184.196C49.8747 184.044 49.7267 183.96 49.4947 183.944C49.2227 183.944 48.9907 184.04 48.7987 184.232C48.6147 184.416 48.4747 184.656 48.3787 184.952C48.2907 185.24 48.2467 185.54 48.2467 185.852V188H46.5667V184.76C46.5587 184.528 46.5147 184.34 46.4347 184.196C46.3627 184.044 46.2107 183.96 45.9787 183.944C45.7147 183.944 45.4907 184.04 45.3067 184.232C45.1307 184.416 44.9947 184.652 44.8987 184.94C44.8107 185.228 44.7667 185.524 44.7667 185.828V188H43.0867V182.756H44.6107ZM56.734 188.144C56.438 188.144 56.142 188.092 55.846 187.988C55.558 187.876 55.314 187.72 55.114 187.52V190.52H53.446V182.636H54.886L55.03 183.26C55.302 183.044 55.602 182.864 55.93 182.72C56.266 182.568 56.646 182.492 57.07 182.492C57.558 182.492 57.994 182.608 58.378 182.84C58.762 183.064 59.062 183.392 59.278 183.824C59.502 184.248 59.614 184.76 59.614 185.36C59.614 185.952 59.49 186.456 59.242 186.872C58.994 187.288 58.654 187.604 58.222 187.82C57.79 188.036 57.294 188.144 56.734 188.144ZM56.398 186.824C56.67 186.824 56.918 186.764 57.142 186.644C57.374 186.524 57.558 186.356 57.694 186.14C57.838 185.916 57.91 185.664 57.91 185.384C57.91 184.936 57.774 184.58 57.502 184.316C57.23 184.044 56.902 183.908 56.518 183.908C56.182 183.908 55.902 183.976 55.678 184.112C55.454 184.24 55.27 184.436 55.126 184.7V185.984C55.214 186.24 55.37 186.444 55.594 186.596C55.826 186.748 56.094 186.824 56.398 186.824ZM62.4463 182.756L62.5783 183.956C62.7303 183.652 62.9383 183.392 63.2023 183.176C63.4663 182.952 63.7263 182.784 63.9823 182.672C64.2383 182.552 64.4343 182.492 64.5703 182.492L64.4863 184.172C64.0943 184.124 63.7583 184.188 63.4783 184.364C63.1983 184.54 62.9823 184.772 62.8303 185.06C62.6783 185.348 62.6023 185.644 62.6023 185.948V188H60.9343V182.756H62.4463ZM67.8884 188.144C67.4004 188.144 66.9564 188.048 66.5564 187.856C66.1644 187.656 65.8524 187.352 65.6204 186.944C65.3884 186.536 65.2724 186.016 65.2724 185.384C65.2724 184.792 65.3924 184.28 65.6324 183.848C65.8724 183.416 66.1884 183.084 66.5804 182.852C66.9724 182.612 67.3884 182.492 67.8284 182.492C68.3484 182.492 68.7404 182.576 69.0044 182.744C69.2764 182.912 69.4924 183.096 69.6524 183.296L69.7604 182.756H71.3204V188H69.6404V187.352C69.5604 187.432 69.4404 187.536 69.2804 187.664C69.1284 187.792 68.9364 187.904 68.7044 188C68.4724 188.096 68.2004 188.144 67.8884 188.144ZM68.3684 186.776C68.9524 186.776 69.3764 186.512 69.6404 185.984V184.7C69.5444 184.444 69.3764 184.24 69.1364 184.088C68.9044 183.936 68.6284 183.86 68.3084 183.86C67.9484 183.86 67.6364 183.996 67.3724 184.268C67.1084 184.532 66.9764 184.876 66.9764 185.3C66.9764 185.58 67.0404 185.832 67.1684 186.056C67.2964 186.28 67.4644 186.456 67.6724 186.584C67.8884 186.712 68.1204 186.776 68.3684 186.776ZM83.8538 187.268C83.7578 187.348 83.5778 187.456 83.3138 187.592C83.0578 187.728 82.7418 187.848 82.3658 187.952C81.9898 188.056 81.5738 188.104 81.1178 188.096C80.4218 188.08 79.7978 187.956 79.2458 187.724C78.7018 187.484 78.2378 187.16 77.8538 186.752C77.4778 186.344 77.1898 185.876 76.9898 185.348C76.7898 184.82 76.6898 184.256 76.6898 183.656C76.6898 182.76 76.8698 181.968 77.2298 181.28C77.5898 180.592 78.0898 180.052 78.7298 179.66C79.3778 179.268 80.1298 179.072 80.9858 179.072C81.5778 179.072 82.1018 179.152 82.5578 179.312C83.0138 179.472 83.3858 179.644 83.6738 179.828L82.9898 181.472C82.7898 181.32 82.5218 181.164 82.1858 181.004C81.8578 180.836 81.4778 180.752 81.0458 180.752C80.5978 180.752 80.1778 180.876 79.7858 181.124C79.4018 181.372 79.0898 181.708 78.8498 182.132C78.6178 182.548 78.5018 183.024 78.5018 183.56C78.5018 184.128 78.6098 184.628 78.8258 185.06C79.0418 185.484 79.3498 185.816 79.7498 186.056C80.1498 186.296 80.6178 186.416 81.1538 186.416C81.6258 186.416 82.0298 186.34 82.3658 186.188C82.7018 186.036 82.9578 185.876 83.1338 185.708L83.8538 187.268ZM87.529 188.144C87.041 188.144 86.597 188.048 86.197 187.856C85.805 187.656 85.493 187.352 85.261 186.944C85.029 186.536 84.913 186.016 84.913 185.384C84.913 184.792 85.033 184.28 85.273 183.848C85.513 183.416 85.829 183.084 86.221 182.852C86.613 182.612 87.029 182.492 87.469 182.492C87.989 182.492 88.381 182.576 88.645 182.744C88.917 182.912 89.133 183.096 89.293 183.296L89.401 182.756H90.961V188H89.281V187.352C89.201 187.432 89.081 187.536 88.921 187.664C88.769 187.792 88.577 187.904 88.345 188C88.113 188.096 87.841 188.144 87.529 188.144ZM88.009 186.776C88.593 186.776 89.017 186.512 89.281 185.984V184.7C89.185 184.444 89.017 184.24 88.777 184.088C88.545 183.936 88.269 183.86 87.949 183.86C87.589 183.86 87.277 183.996 87.013 184.268C86.749 184.532 86.617 184.876 86.617 185.3C86.617 185.58 86.681 185.832 86.809 186.056C86.937 186.28 87.105 186.456 87.313 186.584C87.529 186.712 87.761 186.776 88.009 186.776ZM94.3961 188.108C93.9641 188.108 93.5601 188.032 93.1841 187.88C92.8161 187.728 92.5041 187.516 92.2481 187.244L92.9441 186.32C93.2001 186.552 93.4361 186.72 93.6521 186.824C93.8761 186.92 94.0761 186.968 94.2521 186.968C94.4601 186.968 94.6321 186.936 94.7681 186.872C94.9041 186.808 94.9721 186.704 94.9721 186.56C94.9721 186.424 94.9161 186.316 94.8041 186.236C94.7001 186.156 94.5641 186.092 94.3961 186.044C94.2281 185.988 94.0481 185.932 93.8561 185.876C93.3761 185.724 93.0281 185.504 92.8121 185.216C92.6041 184.92 92.5001 184.6 92.5001 184.256C92.5001 183.992 92.5681 183.728 92.7041 183.464C92.8481 183.192 93.0721 182.968 93.3761 182.792C93.6881 182.608 94.0881 182.516 94.5761 182.516C95.0161 182.516 95.3881 182.56 95.6921 182.648C95.9961 182.736 96.2841 182.88 96.5561 183.08L95.9201 184.064C95.7681 183.944 95.5961 183.844 95.4041 183.764C95.2201 183.676 95.0481 183.628 94.8881 183.62C94.6721 183.612 94.5041 183.652 94.3841 183.74C94.2641 183.82 94.2041 183.916 94.2041 184.028C94.1961 184.18 94.2521 184.3 94.3721 184.388C94.5001 184.476 94.6601 184.544 94.8521 184.592C95.0441 184.64 95.2321 184.696 95.4161 184.76C95.7921 184.888 96.0921 185.072 96.3161 185.312C96.5401 185.544 96.6521 185.856 96.6521 186.248C96.6521 186.568 96.5681 186.872 96.4001 187.16C96.2401 187.44 95.9921 187.668 95.6561 187.844C95.3281 188.02 94.9081 188.108 94.3961 188.108ZM98.0593 188V178.532H99.7033V183.584C99.8873 183.264 100.147 183.004 100.483 182.804C100.819 182.604 101.227 182.504 101.707 182.504C102.203 182.504 102.615 182.652 102.943 182.948C103.279 183.236 103.451 183.612 103.459 184.076V188H101.779V184.7C101.771 184.468 101.707 184.284 101.587 184.148C101.475 184.004 101.283 183.932 101.011 183.932C100.619 183.932 100.307 184.116 100.075 184.484C99.8513 184.844 99.7393 185.304 99.7393 185.864V188H98.0593ZM110.923 184.736C110.923 185.016 111.007 185.284 111.175 185.54C111.343 185.796 111.563 186.004 111.835 186.164C112.115 186.324 112.419 186.404 112.747 186.404C113.107 186.404 113.427 186.324 113.707 186.164C113.987 186.004 114.207 185.796 114.367 185.54C114.535 185.284 114.619 185.016 114.619 184.736V179.168H116.335V184.772C116.335 185.42 116.175 185.996 115.855 186.5C115.535 186.996 115.103 187.388 114.559 187.676C114.015 187.956 113.411 188.096 112.747 188.096C112.091 188.096 111.491 187.956 110.947 187.676C110.411 187.388 109.983 186.996 109.663 186.5C109.343 185.996 109.183 185.42 109.183 184.772V179.168H110.923V184.736ZM121.601 188.144C121.201 188.144 120.857 188.084 120.569 187.964C120.289 187.844 120.045 187.68 119.837 187.472V188H118.157V178.532H119.825V183.116C120.033 182.94 120.309 182.792 120.653 182.672C120.997 182.552 121.389 182.492 121.829 182.492C122.285 182.492 122.701 182.6 123.077 182.816C123.453 183.032 123.753 183.348 123.977 183.764C124.209 184.172 124.325 184.672 124.325 185.264C124.325 185.856 124.197 186.368 123.941 186.8C123.693 187.232 123.361 187.564 122.945 187.796C122.529 188.028 122.081 188.144 121.601 188.144ZM121.229 186.728C121.477 186.728 121.705 186.664 121.913 186.536C122.129 186.408 122.301 186.232 122.429 186.008C122.557 185.784 122.621 185.532 122.621 185.252C122.621 184.972 122.557 184.724 122.429 184.508C122.301 184.292 122.129 184.124 121.913 184.004C121.705 183.876 121.477 183.812 121.229 183.812C120.901 183.812 120.613 183.888 120.365 184.04C120.117 184.192 119.941 184.396 119.837 184.652V185.936C120.125 186.464 120.589 186.728 121.229 186.728ZM128.225 188.144C127.585 188.144 127.041 188.024 126.593 187.784C126.153 187.544 125.817 187.212 125.585 186.788C125.353 186.364 125.237 185.876 125.237 185.324C125.237 184.796 125.373 184.32 125.645 183.896C125.917 183.472 126.281 183.136 126.737 182.888C127.193 182.632 127.701 182.504 128.261 182.504C129.013 182.504 129.629 182.724 130.109 183.164C130.597 183.596 130.913 184.224 131.057 185.048L127.217 186.272C127.473 186.568 127.821 186.716 128.261 186.716C128.445 186.716 128.621 186.684 128.789 186.62C128.965 186.556 129.137 186.472 129.305 186.368L130.049 187.616C129.769 187.776 129.465 187.904 129.137 188C128.817 188.096 128.513 188.144 128.225 188.144ZM126.893 185.228C126.893 185.268 126.893 185.304 126.893 185.336L129.197 184.556C129.125 184.356 129.009 184.184 128.849 184.04C128.689 183.888 128.449 183.812 128.129 183.812C127.753 183.812 127.453 183.94 127.229 184.196C127.005 184.452 126.893 184.796 126.893 185.228ZM133.79 182.756L133.922 183.956C134.074 183.652 134.282 183.392 134.546 183.176C134.81 182.952 135.07 182.784 135.326 182.672C135.582 182.552 135.778 182.492 135.914 182.492L135.83 184.172C135.438 184.124 135.102 184.188 134.822 184.364C134.542 184.54 134.326 184.772 134.174 185.06C134.022 185.348 133.946 185.644 133.946 185.948V188H132.278V182.756H133.79Z" fill="#3B3B3B"/>
<path d="M30.816 61.168C31.928 61.168 32.78 61.44 33.372 61.984C33.972 62.52 34.272 63.24 34.272 64.144C34.272 64.648 34.164 65.144 33.948 65.632C33.74 66.12 33.384 66.508 32.88 66.796L34.932 70H32.904L31.044 67.192H29.88V70H28.14V61.168H30.816ZM31.116 65.512C31.468 65.512 31.74 65.44 31.932 65.296C32.132 65.144 32.272 64.968 32.352 64.768C32.432 64.56 32.472 64.372 32.472 64.204C32.472 64.108 32.456 63.988 32.424 63.844C32.4 63.692 32.344 63.54 32.256 63.388C32.168 63.236 32.032 63.108 31.848 63.004C31.672 62.9 31.432 62.848 31.128 62.848H29.88V65.512H31.116ZM38.0106 70.816V70.06C37.6026 70.012 37.1906 69.916 36.7746 69.772C36.3666 69.62 35.9786 69.412 35.6106 69.148L36.3786 67.792C36.6106 67.968 36.8706 68.12 37.1586 68.248C37.4546 68.368 37.7386 68.456 38.0106 68.512V66.148C37.6906 66.012 37.3826 65.848 37.0866 65.656C36.7906 65.456 36.5466 65.2 36.3546 64.888C36.1626 64.576 36.0666 64.184 36.0666 63.712C36.0666 62.992 36.2866 62.408 36.7266 61.96C37.1746 61.512 37.7626 61.24 38.4906 61.144V60.352H39.4986V61.156C40.0026 61.204 40.4266 61.304 40.7706 61.456C41.1226 61.608 41.4466 61.78 41.7426 61.972L41.0826 63.304C40.8186 63.16 40.5506 63.036 40.2786 62.932C40.0146 62.82 39.7546 62.744 39.4986 62.704V64.9L39.5586 64.924C39.9026 65.052 40.2346 65.216 40.5546 65.416C40.8746 65.608 41.1386 65.876 41.3466 66.22C41.5546 66.556 41.6586 67.004 41.6586 67.564C41.6586 67.98 41.5586 68.372 41.3586 68.74C41.1586 69.1 40.8626 69.404 40.4706 69.652C40.0786 69.892 39.5946 70.036 39.0186 70.084V70.816H38.0106ZM37.8666 63.58C37.8666 63.748 37.9226 63.904 38.0346 64.048C38.1546 64.192 38.3066 64.32 38.4906 64.432V62.752C38.0746 62.88 37.8666 63.156 37.8666 63.58ZM39.8466 67.564C39.8466 67.364 39.7666 67.184 39.6066 67.024C39.4546 66.856 39.2586 66.708 39.0186 66.58V68.5C39.2426 68.444 39.4346 68.344 39.5946 68.2C39.7626 68.048 39.8466 67.836 39.8466 67.564ZM42.6832 70C43.1792 69.496 43.6552 69.012 44.1112 68.548C44.5672 68.076 44.9752 67.624 45.3352 67.192C45.7032 66.752 45.9912 66.328 46.1992 65.92C46.4152 65.512 46.5232 65.116 46.5232 64.732C46.5232 64.388 46.4112 64.12 46.1872 63.928C45.9632 63.728 45.6672 63.628 45.2992 63.628C44.9312 63.628 44.6472 63.724 44.4472 63.916C44.2472 64.108 44.1472 64.312 44.1472 64.528C44.1472 64.784 44.1872 65.012 44.2672 65.212C44.3552 65.404 44.4712 65.576 44.6152 65.728L43.5472 66.7C43.3152 66.588 43.1152 66.4 42.9472 66.136C42.7872 65.872 42.6632 65.596 42.5752 65.308C42.4952 65.012 42.4552 64.768 42.4552 64.576C42.4552 64.136 42.5752 63.716 42.8152 63.316C43.0632 62.916 43.4192 62.588 43.8832 62.332C44.3552 62.076 44.9272 61.948 45.5992 61.948C46.1512 61.948 46.6312 62.072 47.0392 62.32C47.4472 62.568 47.7632 62.896 47.9872 63.304C48.2192 63.704 48.3352 64.132 48.3352 64.588C48.3352 65.044 48.2472 65.48 48.0712 65.896C47.8952 66.312 47.6632 66.72 47.3752 67.12C47.0952 67.512 46.7912 67.912 46.4632 68.32H48.4312V70H42.6832ZM52.7993 70.012C52.1913 70.012 51.6313 69.868 51.1193 69.58C50.6153 69.292 50.2113 68.848 49.9073 68.248C49.6033 67.648 49.4513 66.892 49.4513 65.98C49.4513 64.956 49.5953 64.152 49.8833 63.568C50.1793 62.976 50.5793 62.556 51.0833 62.308C51.5873 62.06 52.1593 61.94 52.7993 61.948C53.4153 61.94 53.9753 62.084 54.4793 62.38C54.9833 62.668 55.3873 63.112 55.6913 63.712C55.9953 64.304 56.1473 65.06 56.1473 65.98C56.1473 66.932 55.9913 67.708 55.6793 68.308C55.3753 68.9 54.9713 69.332 54.4673 69.604C53.9633 69.876 53.4073 70.012 52.7993 70.012ZM52.7873 68.344C53.1873 68.344 53.4993 68.24 53.7233 68.032C53.9473 67.816 54.1033 67.524 54.1913 67.156C54.2873 66.788 54.3353 66.38 54.3353 65.932C54.3353 65.492 54.2873 65.1 54.1913 64.756C54.1033 64.412 53.9473 64.14 53.7233 63.94C53.4993 63.732 53.1873 63.628 52.7873 63.628C52.3953 63.628 52.0873 63.732 51.8633 63.94C51.6393 64.148 51.4833 64.428 51.3953 64.78C51.3073 65.132 51.2633 65.528 51.2633 65.968C51.2633 66.408 51.3073 66.808 51.3953 67.168C51.4833 67.528 51.6393 67.816 51.8633 68.032C52.0873 68.24 52.3953 68.344 52.7873 68.344ZM58.8224 68.944C58.6464 69.368 58.4704 69.788 58.2944 70.204C58.1184 70.62 57.9424 71.04 57.7664 71.464H56.4224C56.5824 71.04 56.7384 70.62 56.8904 70.204C57.0504 69.788 57.2104 69.368 57.3704 68.944H58.8224ZM62.7953 70.012C62.1873 70.012 61.6273 69.868 61.1153 69.58C60.6113 69.292 60.2073 68.848 59.9033 68.248C59.5993 67.648 59.4473 66.892 59.4473 65.98C59.4473 64.956 59.5913 64.152 59.8793 63.568C60.1753 62.976 60.5753 62.556 61.0793 62.308C61.5833 62.06 62.1553 61.94 62.7953 61.948C63.4113 61.94 63.9713 62.084 64.4753 62.38C64.9793 62.668 65.3833 63.112 65.6873 63.712C65.9913 64.304 66.1433 65.06 66.1433 65.98C66.1433 66.932 65.9873 67.708 65.6753 68.308C65.3713 68.9 64.9673 69.332 64.4633 69.604C63.9593 69.876 63.4033 70.012 62.7953 70.012ZM62.7833 68.344C63.1833 68.344 63.4953 68.24 63.7193 68.032C63.9433 67.816 64.0993 67.524 64.1873 67.156C64.2833 66.788 64.3313 66.38 64.3313 65.932C64.3313 65.492 64.2833 65.1 64.1873 64.756C64.0993 64.412 63.9433 64.14 63.7193 63.94C63.4953 63.732 63.1833 63.628 62.7833 63.628C62.3913 63.628 62.0833 63.732 61.8593 63.94C61.6353 64.148 61.4793 64.428 61.3913 64.78C61.3033 65.132 61.2593 65.528 61.2593 65.968C61.2593 66.408 61.3033 66.808 61.3913 67.168C61.4793 67.528 61.6353 67.816 61.8593 68.032C62.0833 68.24 62.3913 68.344 62.7833 68.344ZM70.3305 70.012C69.7225 70.012 69.1625 69.868 68.6505 69.58C68.1465 69.292 67.7425 68.848 67.4385 68.248C67.1345 67.648 66.9825 66.892 66.9825 65.98C66.9825 64.956 67.1265 64.152 67.4145 63.568C67.7105 62.976 68.1105 62.556 68.6145 62.308C69.1185 62.06 69.6905 61.94 70.3305 61.948C70.9465 61.94 71.5065 62.084 72.0105 62.38C72.5145 62.668 72.9185 63.112 73.2225 63.712C73.5265 64.304 73.6785 65.06 73.6785 65.98C73.6785 66.932 73.5225 67.708 73.2105 68.308C72.9065 68.9 72.5025 69.332 71.9985 69.604C71.4945 69.876 70.9385 70.012 70.3305 70.012ZM70.3185 68.344C70.7185 68.344 71.0305 68.24 71.2545 68.032C71.4785 67.816 71.6345 67.524 71.7225 67.156C71.8185 66.788 71.8665 66.38 71.8665 65.932C71.8665 65.492 71.8185 65.1 71.7225 64.756C71.6345 64.412 71.4785 64.14 71.2545 63.94C71.0305 63.732 70.7185 63.628 70.3185 63.628C69.9265 63.628 69.6185 63.732 69.3945 63.94C69.1705 64.148 69.0145 64.428 68.9265 64.78C68.8385 65.132 68.7945 65.528 68.7945 65.968C68.7945 66.408 68.8385 66.808 68.9265 67.168C69.0145 67.528 69.1705 67.816 69.3945 68.032C69.6185 68.24 69.9265 68.344 70.3185 68.344Z" fill="#3B3B3B"/>
<path d="M30.816 128.168C31.928 128.168 32.78 128.44 33.372 128.984C33.972 129.52 34.272 130.24 34.272 131.144C34.272 131.648 34.164 132.144 33.948 132.632C33.74 133.12 33.384 133.508 32.88 133.796L34.932 137H32.904L31.044 134.192H29.88V137H28.14V128.168H30.816ZM31.116 132.512C31.468 132.512 31.74 132.44 31.932 132.296C32.132 132.144 32.272 131.968 32.352 131.768C32.432 131.56 32.472 131.372 32.472 131.204C32.472 131.108 32.456 130.988 32.424 130.844C32.4 130.692 32.344 130.54 32.256 130.388C32.168 130.236 32.032 130.108 31.848 130.004C31.672 129.9 31.432 129.848 31.128 129.848H29.88V132.512H31.116ZM38.0106 137.816V137.06C37.6026 137.012 37.1906 136.916 36.7746 136.772C36.3666 136.62 35.9786 136.412 35.6106 136.148L36.3786 134.792C36.6106 134.968 36.8706 135.12 37.1586 135.248C37.4546 135.368 37.7386 135.456 38.0106 135.512V133.148C37.6906 133.012 37.3826 132.848 37.0866 132.656C36.7906 132.456 36.5466 132.2 36.3546 131.888C36.1626 131.576 36.0666 131.184 36.0666 130.712C36.0666 129.992 36.2866 129.408 36.7266 128.96C37.1746 128.512 37.7626 128.24 38.4906 128.144V127.352H39.4986V128.156C40.0026 128.204 40.4266 128.304 40.7706 128.456C41.1226 128.608 41.4466 128.78 41.7426 128.972L41.0826 130.304C40.8186 130.16 40.5506 130.036 40.2786 129.932C40.0146 129.82 39.7546 129.744 39.4986 129.704V131.9L39.5586 131.924C39.9026 132.052 40.2346 132.216 40.5546 132.416C40.8746 132.608 41.1386 132.876 41.3466 133.22C41.5546 133.556 41.6586 134.004 41.6586 134.564C41.6586 134.98 41.5586 135.372 41.3586 135.74C41.1586 136.1 40.8626 136.404 40.4706 136.652C40.0786 136.892 39.5946 137.036 39.0186 137.084V137.816H38.0106ZM37.8666 130.58C37.8666 130.748 37.9226 130.904 38.0346 131.048C38.1546 131.192 38.3066 131.32 38.4906 131.432V129.752C38.0746 129.88 37.8666 130.156 37.8666 130.58ZM39.8466 134.564C39.8466 134.364 39.7666 134.184 39.6066 134.024C39.4546 133.856 39.2586 133.708 39.0186 133.58V135.5C39.2426 135.444 39.4346 135.344 39.5946 135.2C39.7626 135.048 39.8466 134.836 39.8466 134.564ZM42.6832 137C43.1792 136.496 43.6552 136.012 44.1112 135.548C44.5672 135.076 44.9752 134.624 45.3352 134.192C45.7032 133.752 45.9912 133.328 46.1992 132.92C46.4152 132.512 46.5232 132.116 46.5232 131.732C46.5232 131.388 46.4112 131.12 46.1872 130.928C45.9632 130.728 45.6672 130.628 45.2992 130.628C44.9312 130.628 44.6472 130.724 44.4472 130.916C44.2472 131.108 44.1472 131.312 44.1472 131.528C44.1472 131.784 44.1872 132.012 44.2672 132.212C44.3552 132.404 44.4712 132.576 44.6152 132.728L43.5472 133.7C43.3152 133.588 43.1152 133.4 42.9472 133.136C42.7872 132.872 42.6632 132.596 42.5752 132.308C42.4952 132.012 42.4552 131.768 42.4552 131.576C42.4552 131.136 42.5752 130.716 42.8152 130.316C43.0632 129.916 43.4192 129.588 43.8832 129.332C44.3552 129.076 44.9272 128.948 45.5992 128.948C46.1512 128.948 46.6312 129.072 47.0392 129.32C47.4472 129.568 47.7632 129.896 47.9872 130.304C48.2192 130.704 48.3352 131.132 48.3352 131.588C48.3352 132.044 48.2472 132.48 48.0712 132.896C47.8952 133.312 47.6632 133.72 47.3752 134.12C47.0952 134.512 46.7912 134.912 46.4632 135.32H48.4312V137H42.6832ZM52.7993 137.012C52.1913 137.012 51.6313 136.868 51.1193 136.58C50.6153 136.292 50.2113 135.848 49.9073 135.248C49.6033 134.648 49.4513 133.892 49.4513 132.98C49.4513 131.956 49.5953 131.152 49.8833 130.568C50.1793 129.976 50.5793 129.556 51.0833 129.308C51.5873 129.06 52.1593 128.94 52.7993 128.948C53.4153 128.94 53.9753 129.084 54.4793 129.38C54.9833 129.668 55.3873 130.112 55.6913 130.712C55.9953 131.304 56.1473 132.06 56.1473 132.98C56.1473 133.932 55.9913 134.708 55.6793 135.308C55.3753 135.9 54.9713 136.332 54.4673 136.604C53.9633 136.876 53.4073 137.012 52.7993 137.012ZM52.7873 135.344C53.1873 135.344 53.4993 135.24 53.7233 135.032C53.9473 134.816 54.1033 134.524 54.1913 134.156C54.2873 133.788 54.3353 133.38 54.3353 132.932C54.3353 132.492 54.2873 132.1 54.1913 131.756C54.1033 131.412 53.9473 131.14 53.7233 130.94C53.4993 130.732 53.1873 130.628 52.7873 130.628C52.3953 130.628 52.0873 130.732 51.8633 130.94C51.6393 131.148 51.4833 131.428 51.3953 131.78C51.3073 132.132 51.2633 132.528 51.2633 132.968C51.2633 133.408 51.3073 133.808 51.3953 134.168C51.4833 134.528 51.6393 134.816 51.8633 135.032C52.0873 135.24 52.3953 135.344 52.7873 135.344ZM58.8224 135.944C58.6464 136.368 58.4704 136.788 58.2944 137.204C58.1184 137.62 57.9424 138.04 57.7664 138.464H56.4224C56.5824 138.04 56.7384 137.62 56.8904 137.204C57.0504 136.788 57.2104 136.368 57.3704 135.944H58.8224ZM62.7953 137.012C62.1873 137.012 61.6273 136.868 61.1153 136.58C60.6113 136.292 60.2073 135.848 59.9033 135.248C59.5993 134.648 59.4473 133.892 59.4473 132.98C59.4473 131.956 59.5913 131.152 59.8793 130.568C60.1753 129.976 60.5753 129.556 61.0793 129.308C61.5833 129.06 62.1553 128.94 62.7953 128.948C63.4113 128.94 63.9713 129.084 64.4753 129.38C64.9793 129.668 65.3833 130.112 65.6873 130.712C65.9913 131.304 66.1433 132.06 66.1433 132.98C66.1433 133.932 65.9873 134.708 65.6753 135.308C65.3713 135.9 64.9673 136.332 64.4633 136.604C63.9593 136.876 63.4033 137.012 62.7953 137.012ZM62.7833 135.344C63.1833 135.344 63.4953 135.24 63.7193 135.032C63.9433 134.816 64.0993 134.524 64.1873 134.156C64.2833 133.788 64.3313 133.38 64.3313 132.932C64.3313 132.492 64.2833 132.1 64.1873 131.756C64.0993 131.412 63.9433 131.14 63.7193 130.94C63.4953 130.732 63.1833 130.628 62.7833 130.628C62.3913 130.628 62.0833 130.732 61.8593 130.94C61.6353 131.148 61.4793 131.428 61.3913 131.78C61.3033 132.132 61.2593 132.528 61.2593 132.968C61.2593 133.408 61.3033 133.808 61.3913 134.168C61.4793 134.528 61.6353 134.816 61.8593 135.032C62.0833 135.24 62.3913 135.344 62.7833 135.344ZM70.3305 137.012C69.7225 137.012 69.1625 136.868 68.6505 136.58C68.1465 136.292 67.7425 135.848 67.4385 135.248C67.1345 134.648 66.9825 133.892 66.9825 132.98C66.9825 131.956 67.1265 131.152 67.4145 130.568C67.7105 129.976 68.1105 129.556 68.6145 129.308C69.1185 129.06 69.6905 128.94 70.3305 128.948C70.9465 128.94 71.5065 129.084 72.0105 129.38C72.5145 129.668 72.9185 130.112 73.2225 130.712C73.5265 131.304 73.6785 132.06 73.6785 132.98C73.6785 133.932 73.5225 134.708 73.2105 135.308C72.9065 135.9 72.5025 136.332 71.9985 136.604C71.4945 136.876 70.9385 137.012 70.3305 137.012ZM70.3185 135.344C70.7185 135.344 71.0305 135.24 71.2545 135.032C71.4785 134.816 71.6345 134.524 71.7225 134.156C71.8185 133.788 71.8665 133.38 71.8665 132.932C71.8665 132.492 71.8185 132.1 71.7225 131.756C71.6345 131.412 71.4785 131.14 71.2545 130.94C71.0305 130.732 70.7185 130.628 70.3185 130.628C69.9265 130.628 69.6185 130.732 69.3945 130.94C69.1705 131.148 69.0145 131.428 68.9265 131.78C68.8385 132.132 68.7945 132.528 68.7945 132.968C68.7945 133.408 68.8385 133.808 68.9265 134.168C69.0145 134.528 69.1705 134.816 69.3945 135.032C69.6185 135.24 69.9265 135.344 70.3185 135.344Z" fill="#3B3B3B"/>
<path d="M30.816 195.168C31.928 195.168 32.78 195.44 33.372 195.984C33.972 196.52 34.272 197.24 34.272 198.144C34.272 198.648 34.164 199.144 33.948 199.632C33.74 200.12 33.384 200.508 32.88 200.796L34.932 204H32.904L31.044 201.192H29.88V204H28.14V195.168H30.816ZM31.116 199.512C31.468 199.512 31.74 199.44 31.932 199.296C32.132 199.144 32.272 198.968 32.352 198.768C32.432 198.56 32.472 198.372 32.472 198.204C32.472 198.108 32.456 197.988 32.424 197.844C32.4 197.692 32.344 197.54 32.256 197.388C32.168 197.236 32.032 197.108 31.848 197.004C31.672 196.9 31.432 196.848 31.128 196.848H29.88V199.512H31.116ZM38.0106 204.816V204.06C37.6026 204.012 37.1906 203.916 36.7746 203.772C36.3666 203.62 35.9786 203.412 35.6106 203.148L36.3786 201.792C36.6106 201.968 36.8706 202.12 37.1586 202.248C37.4546 202.368 37.7386 202.456 38.0106 202.512V200.148C37.6906 200.012 37.3826 199.848 37.0866 199.656C36.7906 199.456 36.5466 199.2 36.3546 198.888C36.1626 198.576 36.0666 198.184 36.0666 197.712C36.0666 196.992 36.2866 196.408 36.7266 195.96C37.1746 195.512 37.7626 195.24 38.4906 195.144V194.352H39.4986V195.156C40.0026 195.204 40.4266 195.304 40.7706 195.456C41.1226 195.608 41.4466 195.78 41.7426 195.972L41.0826 197.304C40.8186 197.16 40.5506 197.036 40.2786 196.932C40.0146 196.82 39.7546 196.744 39.4986 196.704V198.9L39.5586 198.924C39.9026 199.052 40.2346 199.216 40.5546 199.416C40.8746 199.608 41.1386 199.876 41.3466 200.22C41.5546 200.556 41.6586 201.004 41.6586 201.564C41.6586 201.98 41.5586 202.372 41.3586 202.74C41.1586 203.1 40.8626 203.404 40.4706 203.652C40.0786 203.892 39.5946 204.036 39.0186 204.084V204.816H38.0106ZM37.8666 197.58C37.8666 197.748 37.9226 197.904 38.0346 198.048C38.1546 198.192 38.3066 198.32 38.4906 198.432V196.752C38.0746 196.88 37.8666 197.156 37.8666 197.58ZM39.8466 201.564C39.8466 201.364 39.7666 201.184 39.6066 201.024C39.4546 200.856 39.2586 200.708 39.0186 200.58V202.5C39.2426 202.444 39.4346 202.344 39.5946 202.2C39.7626 202.048 39.8466 201.836 39.8466 201.564ZM42.6832 204C43.1792 203.496 43.6552 203.012 44.1112 202.548C44.5672 202.076 44.9752 201.624 45.3352 201.192C45.7032 200.752 45.9912 200.328 46.1992 199.92C46.4152 199.512 46.5232 199.116 46.5232 198.732C46.5232 198.388 46.4112 198.12 46.1872 197.928C45.9632 197.728 45.6672 197.628 45.2992 197.628C44.9312 197.628 44.6472 197.724 44.4472 197.916C44.2472 198.108 44.1472 198.312 44.1472 198.528C44.1472 198.784 44.1872 199.012 44.2672 199.212C44.3552 199.404 44.4712 199.576 44.6152 199.728L43.5472 200.7C43.3152 200.588 43.1152 200.4 42.9472 200.136C42.7872 199.872 42.6632 199.596 42.5752 199.308C42.4952 199.012 42.4552 198.768 42.4552 198.576C42.4552 198.136 42.5752 197.716 42.8152 197.316C43.0632 196.916 43.4192 196.588 43.8832 196.332C44.3552 196.076 44.9272 195.948 45.5992 195.948C46.1512 195.948 46.6312 196.072 47.0392 196.32C47.4472 196.568 47.7632 196.896 47.9872 197.304C48.2192 197.704 48.3352 198.132 48.3352 198.588C48.3352 199.044 48.2472 199.48 48.0712 199.896C47.8952 200.312 47.6632 200.72 47.3752 201.12C47.0952 201.512 46.7912 201.912 46.4632 202.32H48.4312V204H42.6832ZM52.7993 204.012C52.1913 204.012 51.6313 203.868 51.1193 203.58C50.6153 203.292 50.2113 202.848 49.9073 202.248C49.6033 201.648 49.4513 200.892 49.4513 199.98C49.4513 198.956 49.5953 198.152 49.8833 197.568C50.1793 196.976 50.5793 196.556 51.0833 196.308C51.5873 196.06 52.1593 195.94 52.7993 195.948C53.4153 195.94 53.9753 196.084 54.4793 196.38C54.9833 196.668 55.3873 197.112 55.6913 197.712C55.9953 198.304 56.1473 199.06 56.1473 199.98C56.1473 200.932 55.9913 201.708 55.6793 202.308C55.3753 202.9 54.9713 203.332 54.4673 203.604C53.9633 203.876 53.4073 204.012 52.7993 204.012ZM52.7873 202.344C53.1873 202.344 53.4993 202.24 53.7233 202.032C53.9473 201.816 54.1033 201.524 54.1913 201.156C54.2873 200.788 54.3353 200.38 54.3353 199.932C54.3353 199.492 54.2873 199.1 54.1913 198.756C54.1033 198.412 53.9473 198.14 53.7233 197.94C53.4993 197.732 53.1873 197.628 52.7873 197.628C52.3953 197.628 52.0873 197.732 51.8633 197.94C51.6393 198.148 51.4833 198.428 51.3953 198.78C51.3073 199.132 51.2633 199.528 51.2633 199.968C51.2633 200.408 51.3073 200.808 51.3953 201.168C51.4833 201.528 51.6393 201.816 51.8633 202.032C52.0873 202.24 52.3953 202.344 52.7873 202.344ZM58.8224 202.944C58.6464 203.368 58.4704 203.788 58.2944 204.204C58.1184 204.62 57.9424 205.04 57.7664 205.464H56.4224C56.5824 205.04 56.7384 204.62 56.8904 204.204C57.0504 203.788 57.2104 203.368 57.3704 202.944H58.8224ZM62.7953 204.012C62.1873 204.012 61.6273 203.868 61.1153 203.58C60.6113 203.292 60.2073 202.848 59.9033 202.248C59.5993 201.648 59.4473 200.892 59.4473 199.98C59.4473 198.956 59.5913 198.152 59.8793 197.568C60.1753 196.976 60.5753 196.556 61.0793 196.308C61.5833 196.06 62.1553 195.94 62.7953 195.948C63.4113 195.94 63.9713 196.084 64.4753 196.38C64.9793 196.668 65.3833 197.112 65.6873 197.712C65.9913 198.304 66.1433 199.06 66.1433 199.98C66.1433 200.932 65.9873 201.708 65.6753 202.308C65.3713 202.9 64.9673 203.332 64.4633 203.604C63.9593 203.876 63.4033 204.012 62.7953 204.012ZM62.7833 202.344C63.1833 202.344 63.4953 202.24 63.7193 202.032C63.9433 201.816 64.0993 201.524 64.1873 201.156C64.2833 200.788 64.3313 200.38 64.3313 199.932C64.3313 199.492 64.2833 199.1 64.1873 198.756C64.0993 198.412 63.9433 198.14 63.7193 197.94C63.4953 197.732 63.1833 197.628 62.7833 197.628C62.3913 197.628 62.0833 197.732 61.8593 197.94C61.6353 198.148 61.4793 198.428 61.3913 198.78C61.3033 199.132 61.2593 199.528 61.2593 199.968C61.2593 200.408 61.3033 200.808 61.3913 201.168C61.4793 201.528 61.6353 201.816 61.8593 202.032C62.0833 202.24 62.3913 202.344 62.7833 202.344ZM70.3305 204.012C69.7225 204.012 69.1625 203.868 68.6505 203.58C68.1465 203.292 67.7425 202.848 67.4385 202.248C67.1345 201.648 66.9825 200.892 66.9825 199.98C66.9825 198.956 67.1265 198.152 67.4145 197.568C67.7105 196.976 68.1105 196.556 68.6145 196.308C69.1185 196.06 69.6905 195.94 70.3305 195.948C70.9465 195.94 71.5065 196.084 72.0105 196.38C72.5145 196.668 72.9185 197.112 73.2225 197.712C73.5265 198.304 73.6785 199.06 73.6785 199.98C73.6785 200.932 73.5225 201.708 73.2105 202.308C72.9065 202.9 72.5025 203.332 71.9985 203.604C71.4945 203.876 70.9385 204.012 70.3305 204.012ZM70.3185 202.344C70.7185 202.344 71.0305 202.24 71.2545 202.032C71.4785 201.816 71.6345 201.524 71.7225 201.156C71.8185 200.788 71.8665 200.38 71.8665 199.932C71.8665 199.492 71.8185 199.1 71.7225 198.756C71.6345 198.412 71.4785 198.14 71.2545 197.94C71.0305 197.732 70.7185 197.628 70.3185 197.628C69.9265 197.628 69.6185 197.732 69.3945 197.94C69.1705 198.148 69.0145 198.428 68.9265 198.78C68.8385 199.132 68.7945 199.528 68.7945 199.968C68.7945 200.408 68.8385 200.808 68.9265 201.168C69.0145 201.528 69.1705 201.816 69.3945 202.032C69.6185 202.24 69.9265 202.344 70.3185 202.344Z" fill="#3B3B3B"/>
<circle cx="5" cy="32" r="5" fill="url(#paint1_linear)"/>
<circle cx="5" cy="99" r="5" fill="url(#paint2_linear)"/>
<circle cx="5" cy="166" r="5" fill="url(#paint3_linear)"/>
<defs>
<linearGradient id="paint0_linear" x1="5" y1="107.5" x2="4" y2="107.5" gradientUnits="userSpaceOnUse">
<stop stop-color="#F57921"/>
<stop offset="0.475639" stop-color="#F87A21"/>
<stop offset="1" stop-color="#600085"/>
</linearGradient>
<linearGradient id="paint1_linear" x1="5" y1="27" x2="5" y2="37" gradientUnits="userSpaceOnUse">
<stop stop-color="#FF4C00"/>
<stop offset="1" stop-color="#F57921"/>
</linearGradient>
<linearGradient id="paint2_linear" x1="5" y1="94" x2="5" y2="104" gradientUnits="userSpaceOnUse">
<stop stop-color="#FF4C00"/>
<stop offset="1" stop-color="#F57921"/>
</linearGradient>
<linearGradient id="paint3_linear" x1="5" y1="161" x2="5" y2="171" gradientUnits="userSpaceOnUse">
<stop stop-color="#FF4C00"/>
<stop offset="1" stop-color="#F57921"/>
</linearGradient>
</defs>
</svg>
