<svg width="108" height="108" viewBox="0 0 108 108" fill="none" xmlns="http://www.w3.org/2000/svg">
<g clip-path="url(#clip0)">
<path d="M94.4403 39.8545H80.5273V103.431H94.4403V39.8545Z" fill="#4AA5D3"/>
<path d="M88.1274 39.8545H80.5273V103.431H88.1274V39.8545Z" fill="#2594BF"/>
<path d="M97.9657 48.8666H84.9724C84.0601 48.8666 83.3203 48.1271 83.3203 47.2146C83.3203 46.302 84.0599 45.5625 84.9724 45.5625H97.9657C98.878 45.5625 99.6178 46.302 99.6178 47.2146C99.6178 48.1271 98.878 48.8666 97.9657 48.8666Z" fill="#66CDED"/>
<path d="M97.9657 103.289H84.9724C84.0601 103.289 83.3203 102.549 83.3203 101.637C83.3203 100.724 84.0599 99.9849 84.9724 99.9849H97.9657C98.878 99.9849 99.6178 100.724 99.6178 101.637C99.6178 102.549 98.878 103.289 97.9657 103.289Z" fill="#66CDED"/>
<path d="M97.9657 95.5146H84.9724C84.0601 95.5146 83.3203 94.775 83.3203 93.8625C83.3203 92.95 84.0599 92.2104 84.9724 92.2104H97.9657C98.878 92.2104 99.6178 92.95 99.6178 93.8625C99.6176 94.775 98.878 95.5146 97.9657 95.5146Z" fill="#66CDED"/>
<path d="M97.9657 87.7397H84.9724C84.0601 87.7397 83.3203 87.0001 83.3203 86.0876C83.3203 85.1751 84.0599 84.4355 84.9724 84.4355H97.9657C98.878 84.4355 99.6178 85.1751 99.6178 86.0876C99.6178 87.0001 98.878 87.7397 97.9657 87.7397Z" fill="#66CDED"/>
<path d="M97.9657 79.9653H84.9724C84.0601 79.9653 83.3203 79.2257 83.3203 78.3132C83.3203 77.4007 84.0599 76.6611 84.9724 76.6611H97.9657C98.878 76.6611 99.6178 77.4007 99.6178 78.3132C99.6178 79.2257 98.878 79.9653 97.9657 79.9653Z" fill="#66CDED"/>
<path d="M97.9657 72.1904H84.9724C84.0601 72.1904 83.3203 71.4508 83.3203 70.5383C83.3203 69.6258 84.0599 68.8862 84.9724 68.8862H97.9657C98.878 68.8862 99.6178 69.6258 99.6178 70.5383C99.6178 71.4508 98.878 72.1904 97.9657 72.1904Z" fill="#66CDED"/>
<path d="M97.9657 64.4159H84.9724C84.0601 64.4159 83.3203 63.6764 83.3203 62.7639C83.3203 61.8514 84.0599 61.1118 84.9724 61.1118H97.9657C98.878 61.1118 99.6178 61.8514 99.6178 62.7639C99.6178 63.6764 98.878 64.4159 97.9657 64.4159Z" fill="#66CDED"/>
<path d="M97.9657 56.641H84.9724C84.0601 56.641 83.3203 55.9015 83.3203 54.989C83.3203 54.0765 84.0599 53.3369 84.9724 53.3369H97.9657C98.878 53.3369 99.6178 54.0765 99.6178 54.989C99.6178 55.9015 98.878 56.641 97.9657 56.641Z" fill="#66CDED"/>
<path d="M42.3099 91.0791C40.4741 91.5309 38.7609 92.6453 37.6589 94.1554C37.2487 94.7178 36.4216 94.7893 35.9187 94.3079C31.6816 90.2543 24.8993 90.6739 21.1856 95.2082C20.6812 95.8239 19.883 96.218 18.911 96.218C15.8697 96.218 13.4043 98.6836 13.4043 101.725C13.4043 101.835 13.4085 103.265 13.4146 103.373H42.3101L42.3099 91.0791Z" fill="#97BC31"/>
<path d="M25.3484 97.7934C26.2034 97.644 26.9731 97.1614 27.397 96.4045C28.4663 94.4962 30.1483 92.9464 32.2294 92.0614C28.3214 90.7215 23.901 91.8932 21.1856 95.2083C20.6825 95.8226 19.8854 96.2181 18.911 96.2181C15.8697 96.2181 13.4043 98.6837 13.4043 101.725C13.4043 101.835 13.4085 103.265 13.4148 103.373H20.7909C20.712 100.691 22.6054 98.2758 25.3484 97.7934Z" fill="#76A314"/>
<path d="M79.8347 0.302717L43.2229 28.3722C42.5089 28.9195 42.0894 29.7745 42.0894 30.6819V103.431H82.1787V1.48439C82.1787 0.260529 80.7977 -0.435564 79.8347 0.302717Z" fill="#51506D"/>
<path d="M56.771 30.3546L82.1787 10.8751V1.48439C82.1787 0.260529 80.7977 -0.435564 79.8347 0.302717L43.2229 28.3722C42.5089 28.9195 42.0894 29.7745 42.0894 30.6819V103.431H55.6375V32.6643C55.6372 31.7569 56.057 30.9019 56.771 30.3546Z" fill="#474763"/>
<path d="M79.8351 0.302717L43.2233 28.3722C42.6179 28.8362 42.2275 29.5222 42.1216 30.2729H82.179V1.48439C82.179 0.260529 80.798 -0.435564 79.8351 0.302717Z" fill="#676789"/>
<path d="M79.8347 0.302717C49.0925 23.8794 40.583 29.9312 42.1212 30.2727H56.8775L82.1786 10.8751V1.48439C82.1786 0.260529 80.7976 -0.435564 79.8347 0.302717Z" fill="#5C5C7F"/>
<path d="M70.0862 44.4988C70.0849 44.4716 70.0803 44.4452 70.0782 44.418C70.0744 44.3674 70.0695 44.3174 70.0634 44.2676C70.0577 44.2229 70.0509 44.1788 70.0431 44.1349C70.0328 44.0746 70.0208 44.0153 70.0069 43.9563C70.0005 43.9305 69.9942 43.9052 69.987 43.8799C69.65 42.6075 68.494 41.6685 67.1158 41.6685H67.0318H57.4609C55.9348 41.6685 44.4136 41.6685 42.0903 41.6685V47.6165C44.4138 47.6165 55.9348 47.6165 57.4609 47.6165H62.8059H67.116C68.7583 47.6165 70.0898 46.285 70.0898 44.6425C70.0898 44.6176 70.0866 44.5935 70.086 44.5688C70.0851 44.5454 70.0872 44.5224 70.0862 44.4988Z" fill="#66CDED"/>
<path d="M70.0772 58.5015C70.0734 58.4509 70.0685 58.4009 70.0624 58.3511C70.0567 58.3066 70.05 58.2623 70.0422 58.2185C70.0318 58.1581 70.0198 58.0988 70.0059 58.0398C69.9996 58.014 69.9932 57.9887 69.9861 57.9634C69.649 56.691 68.493 55.752 67.1148 55.752H67.0308H57.46C55.9338 55.752 44.4126 55.752 42.0894 55.752V61.7C47.6511 61.7 61.4192 61.7 67.115 61.7C68.7573 61.7 70.0888 60.3685 70.0888 58.726C70.0888 58.7011 70.0856 58.677 70.085 58.6523C70.0843 58.6289 70.0865 58.6059 70.0852 58.5823C70.0839 58.5549 70.0793 58.5287 70.0772 58.5015Z" fill="#66CDED"/>
<path d="M67.115 75.7825C68.9531 75.7825 70.3643 74.1235 70.0424 72.301C69.7992 70.8953 68.5778 69.8345 67.115 69.8345C61.4798 69.8345 47.7229 69.8345 42.0894 69.8345V75.7825C47.6509 75.7825 61.4192 75.7825 67.115 75.7825Z" fill="#66CDED"/>
<path d="M57.4599 89.866H62.8049H67.115C69.0976 89.866 70.4936 87.9686 69.9863 86.1294C69.6492 84.8571 68.4932 83.918 67.115 83.918H67.031C61.4967 83.918 47.2367 83.918 42.0894 83.918V89.866C44.4126 89.866 55.9338 89.866 57.4599 89.866Z" fill="#66CDED"/>
<path d="M60.1525 41.6685H51.1206V47.6169H60.1525V41.6685Z" fill="#56BAE2"/>
<path d="M60.1525 55.7505H51.1206V61.6989H60.1525V55.7505Z" fill="#56BAE2"/>
<path d="M60.1525 69.835H51.1206V75.7834H60.1525V69.835Z" fill="#56BAE2"/>
<path d="M60.1525 83.917H51.1206V89.8654H60.1525V83.917Z" fill="#56BAE2"/>
<path d="M55.6366 41.6685H51.1206V47.6169H55.6366V41.6685Z" fill="#4AA5D3"/>
<path d="M55.6366 55.7505H51.1206V61.6989H55.6366V55.7505Z" fill="#4AA5D3"/>
<path d="M55.6366 69.835H51.1206V75.7834H55.6366V69.835Z" fill="#4AA5D3"/>
<path d="M55.6366 83.917H51.1206V89.8654H55.6366V83.917Z" fill="#4AA5D3"/>
<path d="M96.5595 102.052C96.515 102.052 94.743 102.052 94.7974 102.052C84.5125 102.052 25.8731 102.052 11.4402 102.052C10.0819 102.052 8.87937 102.975 8.54904 104.339C8.10122 106.231 9.54087 108 11.4402 108C18.5732 108 93.1951 108 90.4875 108C92.6802 108 94.3569 108 96.5598 108C98.2021 108 99.5336 106.668 99.5336 105.026C99.5333 103.414 98.223 102.052 96.5595 102.052Z" fill="#E6E6E6"/>
<path d="M18.7005 104.263C19.0378 102.991 20.1937 102.052 21.5722 102.052C14.3356 102.052 18.7545 102.052 11.4398 102.052C10.0538 102.052 8.87167 103.003 8.54873 104.339C8.10028 106.231 9.54077 108 11.4398 108C15.802 108 17.2554 108 21.5722 108C19.6424 108 18.1913 106.172 18.7005 104.263Z" fill="#CCCCCC"/>
</g>
<defs>
<clipPath id="clip0">
<rect width="108" height="108" fill="white"/>
</clipPath>
</defs>
</svg>
