<svg width="109" height="109" viewBox="0 0 109 109" fill="none" xmlns="http://www.w3.org/2000/svg">
<path d="M10.8999 23.6167H98.0999V99.9167H10.8999V23.6167Z" fill="#7FCAC9"/>
<path d="M32.7002 38.1499H76.3002V52.6832H32.7002V38.1499Z" fill="#195C85"/>
<path d="M32.7002 52.6831H39.9669V99.9164H32.7002V52.6831Z" fill="#195C85"/>
<path d="M69.0337 52.6831H76.3004V99.9164H69.0337V52.6831Z" fill="#195C85"/>
<path d="M1.81689 99.9165H107.184V107.183H1.81689V99.9165Z" fill="#238892"/>
<path d="M34.5166 9.0835H74.4833V38.1502H34.5166V9.0835Z" fill="#CFDFE8"/>
<path d="M27.25 1.81641H81.75V9.08307H27.25V1.81641Z" fill="#195C85"/>
<path d="M49.0498 83.5664H59.9498V99.9164H49.0498V83.5664Z" fill="#238892"/>
<path d="M16.3501 87.1997H19.9834V90.833H16.3501V87.1997Z" fill="#195C85"/>
<path d="M23.6167 87.1997H27.25V90.833H23.6167V87.1997Z" fill="#195C85"/>
<path d="M16.3501 79.9331H19.9834V83.5664H16.3501V79.9331Z" fill="#195C85"/>
<path d="M23.6167 79.9331H27.25V83.5664H23.6167V79.9331Z" fill="#195C85"/>
<path d="M16.3501 72.6665H19.9834V76.2998H16.3501V72.6665Z" fill="#195C85"/>
<path d="M23.6167 72.6665H27.25V76.2998H23.6167V72.6665Z" fill="#195C85"/>
<path d="M16.3501 65.3999H19.9834V69.0332H16.3501V65.3999Z" fill="#195C85"/>
<path d="M23.6167 65.3999H27.25V69.0332H23.6167V65.3999Z" fill="#195C85"/>
<path d="M16.3501 58.1333H19.9834V61.7666H16.3501V58.1333Z" fill="#195C85"/>
<path d="M23.6167 58.1333H27.25V61.7666H23.6167V58.1333Z" fill="#195C85"/>
<path d="M16.3501 50.8667H19.9834V54.5H16.3501V50.8667Z" fill="#195C85"/>
<path d="M23.6167 50.8667H27.25V54.5H23.6167V50.8667Z" fill="#195C85"/>
<path d="M16.3501 43.5996H19.9834V47.2329H16.3501V43.5996Z" fill="#195C85"/>
<path d="M23.6167 43.5996H27.25V47.2329H23.6167V43.5996Z" fill="#195C85"/>
<path d="M16.3501 36.333H19.9834V39.9663H16.3501V36.333Z" fill="#195C85"/>
<path d="M23.6167 36.333H27.25V39.9663H23.6167V36.333Z" fill="#195C85"/>
<path d="M16.3501 29.0664H19.9834V32.6997H16.3501V29.0664Z" fill="#195C85"/>
<path d="M23.6167 29.0664H27.25V32.6997H23.6167V29.0664Z" fill="#195C85"/>
<path d="M81.75 87.1997H85.3833V90.833H81.75V87.1997Z" fill="#195C85"/>
<path d="M89.0166 87.1997H92.6499V90.833H89.0166V87.1997Z" fill="#195C85"/>
<path d="M81.75 79.9331H85.3833V83.5664H81.75V79.9331Z" fill="#195C85"/>
<path d="M89.0166 79.9331H92.6499V83.5664H89.0166V79.9331Z" fill="#195C85"/>
<path d="M81.75 72.6665H85.3833V76.2998H81.75V72.6665Z" fill="#195C85"/>
<path d="M89.0166 72.6665H92.6499V76.2998H89.0166V72.6665Z" fill="#195C85"/>
<path d="M81.75 65.3999H85.3833V69.0332H81.75V65.3999Z" fill="#195C85"/>
<path d="M52.6836 74.4834H56.3169V78.1167H52.6836V74.4834Z" fill="#195C85"/>
<path d="M45.417 74.4834H49.0503V78.1167H45.417V74.4834Z" fill="#195C85"/>
<path d="M59.9502 74.4834H63.5835V78.1167H59.9502V74.4834Z" fill="#195C85"/>
<path d="M52.6836 67.2168H56.3169V70.8501H52.6836V67.2168Z" fill="#195C85"/>
<path d="M45.417 67.2168H49.0503V70.8501H45.417V67.2168Z" fill="#195C85"/>
<path d="M59.9502 67.2168H63.5835V70.8501H59.9502V67.2168Z" fill="#195C85"/>
<path d="M52.6836 59.9497H56.3169V63.583H52.6836V59.9497Z" fill="#195C85"/>
<path d="M45.417 59.9497H49.0503V63.583H45.417V59.9497Z" fill="#195C85"/>
<path d="M59.9502 59.9497H63.5835V63.583H59.9502V59.9497Z" fill="#195C85"/>
<path d="M52.6836 29.0664H56.3169V32.6997H52.6836V29.0664Z" fill="#195C85"/>
<path d="M45.417 29.0664H49.0503V32.6997H45.417V29.0664Z" fill="#195C85"/>
<path d="M59.9502 29.0664H63.5835V32.6997H59.9502V29.0664Z" fill="#195C85"/>
<path d="M52.6836 21.7998H56.3169V25.4331H52.6836V21.7998Z" fill="#195C85"/>
<path d="M45.417 21.7998H49.0503V25.4331H45.417V21.7998Z" fill="#195C85"/>
<path d="M59.9502 21.7998H63.5835V25.4331H59.9502V21.7998Z" fill="#195C85"/>
<path d="M52.6836 14.5332H56.3169V18.1665H52.6836V14.5332Z" fill="#195C85"/>
<path d="M45.417 14.5332H49.0503V18.1665H45.417V14.5332Z" fill="#195C85"/>
<path d="M59.9502 14.5332H63.5835V18.1665H59.9502V14.5332Z" fill="#195C85"/>
<path d="M89.0166 65.3999H92.6499V69.0332H89.0166V65.3999Z" fill="#195C85"/>
<path d="M81.75 58.1333H85.3833V61.7666H81.75V58.1333Z" fill="#195C85"/>
<path d="M89.0166 58.1333H92.6499V61.7666H89.0166V58.1333Z" fill="#195C85"/>
<path d="M81.75 50.8667H85.3833V54.5H81.75V50.8667Z" fill="#195C85"/>
<path d="M89.0166 50.8667H92.6499V54.5H89.0166V50.8667Z" fill="#195C85"/>
<path d="M81.75 43.5996H85.3833V47.2329H81.75V43.5996Z" fill="#195C85"/>
<path d="M89.0166 43.5996H92.6499V47.2329H89.0166V43.5996Z" fill="#195C85"/>
<path d="M81.75 36.333H85.3833V39.9663H81.75V36.333Z" fill="#195C85"/>
<path d="M89.0166 36.333H92.6499V39.9663H89.0166V36.333Z" fill="#195C85"/>
<path d="M81.75 29.0664H85.3833V32.6997H81.75V29.0664Z" fill="#195C85"/>
<path d="M89.0166 29.0664H92.6499V32.6997H89.0166V29.0664Z" fill="#195C85"/>
<path d="M3.6333 92.6499H7.26663V99.9166H3.6333V92.6499Z" fill="#D3843D"/>
<path d="M101.733 92.6499H105.367V99.9166H101.733V92.6499Z" fill="#D3843D"/>
<path d="M38.1499 43.6001H41.7832V47.2334H38.1499V43.6001Z" fill="#CFDFE8"/>
<path d="M67.2168 43.6001H70.8501V47.2334H67.2168V43.6001Z" fill="#CFDFE8"/>
<path d="M5.45 94.4665C8.45995 94.4665 10.9 90.3997 10.9 85.3831C10.9 80.3666 8.45995 76.2998 5.45 76.2998C2.44005 76.2998 0 80.3666 0 85.3831C0 90.3997 2.44005 94.4665 5.45 94.4665Z" fill="#55B56A"/>
<path d="M103.55 94.4665C106.56 94.4665 109 90.3997 109 85.3831C109 80.3666 106.56 76.2998 103.55 76.2998C100.54 76.2998 98.1001 80.3666 98.1001 85.3831C98.1001 90.3997 100.54 94.4665 103.55 94.4665Z" fill="#55B56A"/>
</svg>
