<svg width="90" height="90" viewBox="0 0 90 90" fill="none" xmlns="http://www.w3.org/2000/svg">
<path d="M84.1992 73.125V87.3633C84.1992 88.8188 83.018 90 81.5625 90C80.107 90 78.9258 88.8188 78.9258 87.3633V73.125C78.9258 71.6695 80.107 70.4883 81.5625 70.4883C83.018 70.4883 84.1992 71.6695 84.1992 73.125Z" fill="#FF7038"/>
<path d="M84.1992 73.125V87.3633C84.1992 88.8188 83.018 90 81.5625 90V70.4883C83.018 70.4883 84.1992 71.6695 84.1992 73.125Z" fill="#CEAD29"/>
<path d="M90 53.4376V73.1251C90 74.5806 88.8188 75.7619 87.3633 75.7619H75.7617C74.3063 75.7619 73.125 74.5806 73.125 73.1251V53.4376C73.125 51.2193 74.0303 49.131 75.6721 47.556C78.9833 44.383 84.1391 44.3805 87.4529 47.556C89.0947 49.131 90 51.2193 90 53.4376Z" fill="#96D750"/>
<path d="M90 53.4375V73.125C90 74.5805 88.8187 75.7617 87.3633 75.7617H81.5625V45.1758C86.1316 45.1758 90 48.8677 90 53.4375Z" fill="#80C03B"/>
<path d="M87.3633 84.7266H63.2812C61.8251 84.7266 60.6445 85.9071 60.6445 87.3633C60.6445 88.8195 61.8251 90 63.2812 90H87.3633C88.8195 90 90 88.8195 90 87.3633C90 85.9071 88.8195 84.7266 87.3633 84.7266Z" fill="#05303D"/>
<path d="M67.3242 2.63672V90H2.63672C1.18125 90 0 88.8187 0 87.3633V2.63672C0 1.18125 1.18125 0 2.63672 0H64.6875C66.143 0 67.3242 1.18125 67.3242 2.63672Z" fill="#0A789B"/>
<path d="M67.3242 2.63672V90H33.75V0H64.6875C66.143 0 67.3242 1.18125 67.3242 2.63672Z" fill="#08475E"/>
<path d="M28.125 11.4258H14.0625C12.6063 11.4258 11.4258 12.6063 11.4258 14.0625V25.3125C11.4258 26.7687 12.6063 27.9492 14.0625 27.9492H28.125C29.5812 27.9492 30.7617 26.7687 30.7617 25.3125V14.0625C30.7617 12.6063 29.5812 11.4258 28.125 11.4258Z" fill="#E0EAEF"/>
<path d="M53.4375 11.4258H39.375C37.9188 11.4258 36.7383 12.6063 36.7383 14.0625V25.3125C36.7383 26.7687 37.9188 27.9492 39.375 27.9492H53.4375C54.8937 27.9492 56.0742 26.7687 56.0742 25.3125V14.0625C56.0742 12.6063 54.8937 11.4258 53.4375 11.4258Z" fill="#CCE0E5"/>
<path d="M53.4375 33.9258H39.375C37.9188 33.9258 36.7383 35.1063 36.7383 36.5625V47.8125C36.7383 49.2687 37.9188 50.4492 39.375 50.4492H53.4375C54.8937 50.4492 56.0742 49.2687 56.0742 47.8125V36.5625C56.0742 35.1063 54.8937 33.9258 53.4375 33.9258Z" fill="#CCE0E5"/>
<path d="M28.125 33.9258H14.0625C12.6063 33.9258 11.4258 35.1063 11.4258 36.5625V47.8125C11.4258 49.2687 12.6063 50.4492 14.0625 50.4492H28.125C29.5812 50.4492 30.7617 49.2687 30.7617 47.8125V36.5625C30.7617 35.1063 29.5812 33.9258 28.125 33.9258Z" fill="#E0EAEF"/>
<path d="M14.0625 76.1133C12.607 76.1133 11.4258 77.2945 11.4258 78.75V90H16.6992V78.75C16.6992 77.2945 15.518 76.1133 14.0625 76.1133Z" fill="#E0EAEF"/>
<path d="M53.4375 76.1133C51.982 76.1133 50.8008 77.2945 50.8008 78.75V90H56.0742V78.75C56.0742 77.2945 54.893 76.1133 53.4375 76.1133Z" fill="#CCE0E5"/>
<path d="M44.8242 70.3125V90H22.6758V70.3125C22.6758 64.2059 27.6434 59.2383 33.75 59.2383C39.8566 59.2383 44.8242 64.2059 44.8242 70.3125Z" fill="#FFDD54"/>
<path d="M44.8242 70.3125V90H33.75V59.2383C39.8566 59.2383 44.8242 64.2059 44.8242 70.3125Z" fill="#FFB454"/>
</svg>
