<svg width="25" height="23" viewBox="0 0 25 23" fill="none" xmlns="http://www.w3.org/2000/svg">
<path d="M23.9404 12.875H13.4717L20.4436 19.6654C20.7101 19.9249 21.1486 19.946 21.4226 19.6946C23.13 18.128 24.3044 16.016 24.6489 13.642C24.708 13.2355 24.3617 12.875 23.9404 12.875ZM23.242 10.0906C22.8785 4.95746 18.667 0.85562 13.3967 0.501554C12.9944 0.474483 12.6556 0.804916 12.6556 1.19766V10.8124H22.5277C22.931 10.8124 23.2698 10.4824 23.242 10.0906ZM10.5379 12.875V2.6788C10.5379 2.26845 10.1678 1.93114 9.75088 1.98872C4.4934 2.71232 0.474732 7.18585 0.66179 12.5471C0.854143 18.0532 5.72163 22.5684 11.3775 22.4992C13.601 22.4721 15.6556 21.7743 17.3448 20.6073C17.6934 20.3667 17.7163 19.8669 17.4141 19.5726L10.5379 12.875Z" fill="#F57921"/>
</svg>
