<svg width="25" height="23" viewBox="0 0 25 23" fill="none" xmlns="http://www.w3.org/2000/svg">
<path d="M23.9406 12.875H13.472L20.4439 19.6654C20.7104 19.9249 21.1489 19.946 21.4228 19.6946C23.1302 18.128 24.3046 16.016 24.6492 13.642C24.7083 13.2355 24.362 12.875 23.9406 12.875ZM23.2423 10.0906C22.8787 4.95746 18.6673 0.85562 13.397 0.501554C12.9946 0.474483 12.6558 0.804916 12.6558 1.19766V10.8124H22.528C22.9312 10.8124 23.27 10.4824 23.2423 10.0906ZM10.5382 12.875V2.6788C10.5382 2.26845 10.168 1.93114 9.75112 1.98872C4.49364 2.71232 0.474976 7.18585 0.662035 12.5471C0.854387 18.0532 5.72187 22.5684 11.3777 22.4992C13.6013 22.4721 15.6558 21.7743 17.3451 20.6073C17.6936 20.3667 17.7165 19.8669 17.4143 19.5726L10.5382 12.875Z" fill="#7C7C7C"/>
</svg>
