<svg width="42" height="59" viewBox="0 0 42 59" fill="none" xmlns="http://www.w3.org/2000/svg">
<ellipse cx="3.00395" cy="21.2849" rx="3.00395" ry="2.91266" fill="#F57921"/>
<ellipse cx="4.05522" cy="25.3177" rx="3.00395" ry="2.91266" fill="#F57921"/>
<ellipse cx="9.76274" cy="13.8165" rx="3.00395" ry="2.91266" fill="url(#paint0_linear)"/>
<ellipse cx="5.85747" cy="17.5506" rx="3.00395" ry="2.91266" fill="#F57921"/>
<ellipse cx="34.2452" cy="19.6418" rx="3.00395" ry="2.91266" fill="#F57921"/>
<g filter="url(#filter0_d)">
<ellipse cx="34.9961" cy="24.1227" rx="3.00395" ry="2.91266" fill="#F57921"/>
</g>
<ellipse cx="19.2255" cy="30.0228" rx="16.8221" ry="15.9823" fill="white"/>
<ellipse cx="25.2334" cy="13.6671" rx="3.00395" ry="2.91266" fill="#F57921"/>
<ellipse cx="19.3006" cy="38.3873" rx="15.6957" ry="20.6127" fill="#F57921"/>
<ellipse cx="11.8658" cy="11.7253" rx="3.00395" ry="2.91266" fill="#F57921"/>
<ellipse cx="14.8697" cy="12.6215" rx="3.00395" ry="2.91265" fill="#F57921"/>
<ellipse cx="20.7271" cy="12.6215" rx="3.00395" ry="2.91265" fill="#F57921"/>
<ellipse cx="20.7271" cy="8.73798" rx="3.00395" ry="2.91266" fill="#F57921"/>
<ellipse cx="22.5298" cy="6.7962" rx="3.00395" ry="2.91266" fill="#F57921"/>
<ellipse cx="18.0235" cy="9.63422" rx="3.00395" ry="2.91266" fill="#F57921"/>
<ellipse cx="7.8101" cy="13.6671" rx="3.00395" ry="2.91266" fill="#F57921"/>
<ellipse cx="14.8697" cy="5.30255" rx="3.00395" ry="2.91266" fill="#F57921"/>
<ellipse cx="19.2251" cy="2.91266" rx="3.00395" ry="2.91266" fill="#F57921"/>
<ellipse cx="25.9844" cy="3.8089" rx="3.00395" ry="2.91266" fill="#F57921"/>
<ellipse cx="24.9327" cy="5.30255" rx="3.00395" ry="2.91266" fill="#F57921"/>
<ellipse cx="28.9883" cy="7.09491" rx="3.00395" ry="2.91266" fill="#F57921"/>
<ellipse cx="18.7745" cy="4.85443" rx="3.00395" ry="2.91266" fill="#F57921"/>
<ellipse cx="31.6919" cy="10.8292" rx="3.00395" ry="2.91266" fill="#F57921"/>
<ellipse rx="3.00031" ry="2.91622" transform="matrix(0.884468 0.4666 -0.470655 0.882317 10.0341 7.1097)" fill="#F57921"/>
<ellipse cx="7.6602" cy="10.0823" rx="3.00395" ry="2.91266" fill="#F57921"/>
<ellipse cx="5.70757" cy="13.9659" rx="3.00395" ry="2.91266" fill="#F57921"/>
<ellipse cx="32.5928" cy="15.6088" rx="3.00395" ry="2.91266" fill="#F57921"/>
<ellipse cx="30.9405" cy="13.6671" rx="3.00395" ry="2.91266" fill="#F57921"/>
<ellipse cx="28.2374" cy="12.6215" rx="3.00395" ry="2.91265" fill="#F57921"/>
<ellipse cx="10.5137" cy="9.78351" rx="3.00395" ry="2.91266" fill="#F57921"/>
<ellipse cx="30.9405" cy="15.4595" rx="3.00395" ry="2.91266" fill="#F57921"/>
<ellipse cx="28.2374" cy="15.4595" rx="3.00395" ry="2.91266" fill="#F57921"/>
<ellipse cx="32.5928" cy="17.2519" rx="3.00395" ry="2.91266" fill="#F57921"/>
<ellipse cx="33.3438" cy="13.6671" rx="3.00395" ry="2.91266" fill="#F57921"/>
<ellipse cx="29.7393" cy="9.78351" rx="3.00395" ry="2.91266" fill="#F57921"/>
<g filter="url(#filter1_d)">
<ellipse cx="21.6285" cy="8.88739" rx="3.00395" ry="2.91266" fill="#F57921"/>
</g>
<ellipse cx="22.98" cy="3.95819" rx="3.00395" ry="2.91266" fill="#F57921"/>
<ellipse cx="3.60454" cy="16.8038" rx="3.00395" ry="2.91266" fill="#F57921"/>
<ellipse cx="17.1226" cy="11.8747" rx="3.00395" ry="2.91266" fill="#F57921"/>
<ellipse cx="13.0674" cy="13.0696" rx="3.00395" ry="2.91266" fill="#F57921"/>
<ellipse cx="9.01176" cy="15.4595" rx="3.00395" ry="2.91266" fill="#F57921"/>
<ellipse cx="25.5337" cy="9.78351" rx="3.00395" ry="2.91266" fill="#F57921"/>
<ellipse cx="21.9288" cy="11.8747" rx="3.00395" ry="2.91266" fill="#F57921"/>
<ellipse cx="14.1187" cy="9.03668" rx="3.00395" ry="2.91266" fill="#F57921"/>
<path d="M7.58363 36.7981C7.58363 36.7981 9.90409 37.0252 12.0448 37.0252C14.1855 37.0252 15.9209 37.4014 15.9209 37.0252C15.9209 36.6489 14.4582 36.7981 12.0448 36.4953C6.92543 36.4953 3.34187 30.1369 7.58363 36.7981Z" fill="white"/>
<path d="M31.3575 36.7981C31.3575 36.7981 28.9005 37.0252 26.6339 37.0252C24.3673 37.0252 22.5298 37.4014 22.5298 37.0252C22.5298 36.6489 24.0785 36.7981 26.6339 36.4953C32.0544 36.4953 35.8488 30.1369 31.3575 36.7981Z" fill="white"/>
<g filter="url(#filter2_d)">
<path d="M9.31834 36.4246C9.31834 36.4246 10.9949 36.6368 12.5416 36.6368C14.0883 36.6368 15.9209 37.2908 15.9209 36.9391C15.9209 36.5874 14.2853 35.8323 12.5416 35.5493C8.83094 35.0332 6.25361 30.1983 9.31834 36.4246Z" fill="white"/>
</g>
<path d="M29.6084 36.4246C29.6084 36.4246 27.9634 36.6369 26.4459 36.6369C24.9284 36.6369 23.1304 37.2909 23.1304 36.9392C23.1304 36.5875 24.7351 36.4246 26.4459 36.1416C30.0866 35.6255 32.6153 30.1984 29.6084 36.4246Z" fill="white"/>
<path d="M8.41697 36.5739C8.41697 36.5739 10.0935 36.7862 11.6402 36.7862C13.1869 36.7862 15.0195 37.4401 15.0195 37.0885C15.0195 36.7368 13.384 36.5739 11.6402 36.2909C7.92957 35.7748 5.35224 30.3477 8.41697 36.5739Z" fill="white"/>
<path d="M30.5315 36.5739C30.5315 36.5739 28.7284 36.7862 27.065 36.7862C25.4016 36.7862 23.4307 37.4401 23.4307 37.0885C23.4307 36.7368 25.1897 36.5739 27.065 36.2909C31.0557 35.7748 33.8276 30.3477 30.5315 36.5739Z" fill="white"/>
<path d="M17.8404 50.0379C17.8404 50.8628 18.5842 51.4569 19.6005 51.4569C20.6168 51.4569 26.9602 47.7974 25.6836 48.3202C24.4069 48.843 21.4855 47.9468 20.4692 47.9468C19.4529 47.9468 17.8404 49.213 17.8404 50.0379Z" fill="white"/>
<path d="M20.7271 50.0379C20.7271 50.8628 20.4668 51.4569 19.4505 51.4569C18.4342 51.4569 12.241 48.0215 13.2173 48.3949C14.1936 48.7683 17.082 47.9468 18.0983 47.9468C19.1146 47.9468 20.7271 49.213 20.7271 50.0379Z" fill="white"/>
<path d="M16.522 31.3671L8.19209 30.7697L5.70774 31.9646V32.0393L8.11902 31.5165L16.3758 32.7114L16.522 31.3671Z" fill="white"/>
<path d="M21.9287 31.3671L30.7214 30.7697L33.3437 31.9646V32.0393L30.7985 31.5165L22.083 32.7114L21.9287 31.3671Z" fill="white"/>
<g filter="url(#filter3_d)">
<path d="M21.9291 43.9139C21.9291 43.5804 21.8592 43.2502 21.7233 42.9421C21.5874 42.6341 21.3883 42.3542 21.1372 42.1184C20.8862 41.8826 20.5881 41.6955 20.2601 41.5679C19.9321 41.4403 19.5806 41.3746 19.2255 41.3746C18.8705 41.3746 18.5189 41.4403 18.1909 41.5679C17.8629 41.6955 17.5649 41.8826 17.3138 42.1184C17.0628 42.3542 16.8636 42.6341 16.7278 42.9421C16.5919 43.2502 16.522 43.5804 16.522 43.9139L19.2255 43.9139H21.9291Z" fill="#F57921"/>
</g>
<path d="M17.3125 22.1506C16.0585 24.4772 16.8796 28.0063 15.4527 23.8988C15.1524 22.5545 14.7995 21.2216 16.0535 18.895C17.3076 16.5683 19.0651 15.0772 19.979 15.5643C20.8928 16.0515 18.5666 19.824 17.3125 22.1506Z" fill="white"/>
<path d="M20.9551 22.2286C22.1671 24.5772 20.8314 28.3214 22.9351 23.932C23.4295 22.5066 23.9837 21.0896 22.7717 18.7411C21.5597 16.3925 19.6713 14.951 18.5539 15.5213C17.4365 16.0916 19.7431 19.8801 20.9551 22.2286Z" fill="white"/>
<path d="M15.3951 37.2671C15.3951 37.8033 14.1388 38.8355 11.9406 38.8355C9.74237 38.8355 7.88525 37.4299 7.88525 36.8937C7.88525 36.3575 9.74237 36.4456 11.9406 36.4456C14.1388 36.4456 15.3951 36.7309 15.3951 37.2671Z" fill="white"/>
<path d="M30.6403 36.501C30.6403 36.6876 29.322 37.4911 27.1456 37.4911C24.9691 37.4911 23.1304 37.0018 23.1304 36.8152C23.1304 36.6285 24.9691 36.6592 27.1456 36.6592C29.322 36.6592 30.6403 36.3143 30.6403 36.501Z" fill="white"/>
<path d="M13.668 36.2962C13.668 36.6297 13.6292 36.9599 13.5537 37.2679C13.4782 37.576 13.3676 37.8559 13.2281 38.0917C13.0886 38.3275 12.923 38.5145 12.7408 38.6422C12.5586 38.7698 12.3633 38.8354 12.166 38.8354C11.9688 38.8354 11.7735 38.7698 11.5913 38.6422C11.409 38.5145 11.2435 38.3275 11.104 38.0917C10.9645 37.8559 10.8539 37.576 10.7784 37.2679C10.7029 36.9599 10.6641 36.6297 10.6641 36.2962L12.166 36.2962H13.668Z" fill="white"/>
<defs>
<filter id="filter0_d" x="27.9922" y="21.2101" width="14.0079" height="13.8253" filterUnits="userSpaceOnUse" color-interpolation-filters="sRGB">
<feFlood flood-opacity="0" result="BackgroundImageFix"/>
<feColorMatrix in="SourceAlpha" type="matrix" values="0 0 0 0 0 0 0 0 0 0 0 0 0 0 0 0 0 0 127 0"/>
<feOffset dy="4"/>
<feGaussianBlur stdDeviation="2"/>
<feColorMatrix type="matrix" values="0 0 0 0 0.283333 0 0 0 0 0.283333 0 0 0 0 0.283333 0 0 0 0.25 0"/>
<feBlend mode="normal" in2="BackgroundImageFix" result="effect1_dropShadow"/>
<feBlend mode="normal" in="SourceGraphic" in2="effect1_dropShadow" result="shape"/>
</filter>
<filter id="filter1_d" x="14.6245" y="5.97473" width="14.0079" height="13.8253" filterUnits="userSpaceOnUse" color-interpolation-filters="sRGB">
<feFlood flood-opacity="0" result="BackgroundImageFix"/>
<feColorMatrix in="SourceAlpha" type="matrix" values="0 0 0 0 0 0 0 0 0 0 0 0 0 0 0 0 0 0 127 0"/>
<feOffset dy="4"/>
<feGaussianBlur stdDeviation="2"/>
<feColorMatrix type="matrix" values="0 0 0 0 0.283333 0 0 0 0 0.283333 0 0 0 0 0.283333 0 0 0 0.25 0"/>
<feBlend mode="normal" in2="BackgroundImageFix" result="effect1_dropShadow"/>
<feBlend mode="normal" in="SourceGraphic" in2="effect1_dropShadow" result="shape"/>
</filter>
<filter id="filter2_d" x="3.96045" y="33.2742" width="15.9605" height="11.7688" filterUnits="userSpaceOnUse" color-interpolation-filters="sRGB">
<feFlood flood-opacity="0" result="BackgroundImageFix"/>
<feColorMatrix in="SourceAlpha" type="matrix" values="0 0 0 0 0 0 0 0 0 0 0 0 0 0 0 0 0 0 127 0"/>
<feOffset dy="4"/>
<feGaussianBlur stdDeviation="2"/>
<feColorMatrix type="matrix" values="0 0 0 0 0 0 0 0 0 0 0 0 0 0 0 0 0 0 0.25 0"/>
<feBlend mode="normal" in2="BackgroundImageFix" result="effect1_dropShadow"/>
<feBlend mode="normal" in="SourceGraphic" in2="effect1_dropShadow" result="shape"/>
</filter>
<filter id="filter3_d" x="12.522" y="41.3746" width="13.4071" height="10.5392" filterUnits="userSpaceOnUse" color-interpolation-filters="sRGB">
<feFlood flood-opacity="0" result="BackgroundImageFix"/>
<feColorMatrix in="SourceAlpha" type="matrix" values="0 0 0 0 0 0 0 0 0 0 0 0 0 0 0 0 0 0 127 0"/>
<feOffset dy="4"/>
<feGaussianBlur stdDeviation="2"/>
<feColorMatrix type="matrix" values="0 0 0 0 0 0 0 0 0 0 0 0 0 0 0 0 0 0 0.25 0"/>
<feBlend mode="normal" in2="BackgroundImageFix" result="effect1_dropShadow"/>
<feBlend mode="normal" in="SourceGraphic" in2="effect1_dropShadow" result="shape"/>
</filter>
<linearGradient id="paint0_linear" x1="9.76274" y1="10.9038" x2="9.76274" y2="16.7291" gradientUnits="userSpaceOnUse">
<stop stop-color="#503500"/>
<stop offset="0.432292" stop-color="#030302"/>
<stop offset="1" stop-color="#060606"/>
</linearGradient>
</defs>
</svg>
