<svg width="19" height="19" viewBox="0 0 19 19" fill="none" xmlns="http://www.w3.org/2000/svg">
<path d="M18.2469 4.40117L16.3502 0.556641C16.1807 0.211523 15.8797 0 15.5582 0H3.75164C3.43018 0 3.12917 0.211523 2.95967 0.556641L1.06301 4.40117C0.0839995 6.38652 0.95196 9.14746 2.7814 9.46289C2.91291 9.48516 3.04734 9.49629 3.18177 9.49629C4.04681 9.49629 4.81249 9.01387 5.33852 8.26797C5.86456 9.01387 6.63316 9.49629 7.49527 9.49629C8.36031 9.49629 9.12599 9.01387 9.65202 8.26797C10.1781 9.01387 10.9467 9.49629 11.8088 9.49629C12.6738 9.49629 13.4395 9.01387 13.9655 8.26797C14.4945 9.01387 15.2602 9.49629 16.1223 9.49629C16.2596 9.49629 16.3911 9.48516 16.5226 9.46289C18.3579 9.15117 19.2288 6.39023 18.2469 4.40117ZM16.1281 10.6875C15.8359 10.6875 15.5466 10.6318 15.266 10.5465V14.25H4.04389V10.5465C3.76333 10.6281 3.47401 10.6875 3.18177 10.6875C3.00643 10.6875 2.82816 10.6727 2.65573 10.643C2.49208 10.6133 2.33135 10.565 2.17646 10.5094V17.8125C2.17646 18.4693 2.59436 19 3.11163 19H16.2041C16.7214 19 17.1393 18.4693 17.1393 17.8125V10.5094C16.9815 10.5688 16.8237 10.617 16.66 10.643C16.4817 10.6727 16.3064 10.6875 16.1281 10.6875Z" fill="#7C7C7C"/>
</svg>
