<svg width="97" height="38" viewBox="0 0 97 38" fill="none" xmlns="http://www.w3.org/2000/svg">
<path d="M49.8914 5.08001C51.1635 5.08001 52.1176 4.04001 52.1176 2.84001C52.1176 1.56001 51.084 0.600012 49.8914 0.600012C48.6193 0.600012 47.6652 1.64001 47.6652 2.84001C47.6652 4.04001 48.6988 5.08001 49.8914 5.08001ZM58.9951 25.08C59.8299 25.08 60.625 24.8 61.2213 24.56C61.8574 24.28 62.2549 23.92 62.414 23.64C62.573 23.48 62.6922 23.2 62.6922 22.96C62.6922 22.8 62.6127 22.6 62.5332 22.32C62.2549 21.88 61.8574 21.64 61.4201 21.64C61.3406 21.64 61.2611 21.64 61.1418 21.64C60.8635 21.72 60.784 21.8 60.625 21.8C60.466 21.88 60.2672 21.88 59.989 21.88C59.4722 21.88 59.2336 21.72 59.0746 21.52C59.0746 21.52 58.7168 21.08 58.6373 20.68C58.4783 19.92 58.4783 18.84 58.4783 18.08C58.4783 17.8 58.4783 2.44001 58.4783 2.04001C58.4783 1.40001 58.2 1.00001 57.8025 0.760012C57.3652 0.480012 56.8881 0.320012 56.3316 0.320012C55.775 0.320012 55.298 0.400012 54.8607 0.760012C54.4234 1.04001 54.1849 1.44001 54.1849 2.04001V20.28C54.1849 21.32 54.4631 22.44 55.2185 23.44C55.9738 24.4 57.1664 25.08 58.9951 25.08ZM67.6615 10.16C68.6951 8.60001 69.8877 8.40001 70.4045 8.40001C71.2394 8.40001 72.1537 9.04001 72.3525 10.28C72.3525 10.56 72.432 10.72 72.432 10.96C72.432 11.88 72.0742 12.72 71.5972 13.28C70.325 14.76 68.4963 15.12 66.6279 15.32C66.6279 15.16 66.6279 14.96 66.6279 14.8C66.6279 13.28 66.8664 11.36 67.6615 10.16ZM64.9185 22.96C66.3099 24.36 68.2578 25.12 70.6431 25.12C71.9152 25.12 73.1476 24.84 74.0619 24.48C74.4992 24.32 74.8967 24.04 75.175 23.8C75.4533 23.52 75.6123 23.16 75.6123 22.88C75.6123 22.8 75.6123 22.8 75.6123 22.72C75.5328 22.08 74.9762 21.68 74.4197 21.68C74.2607 21.68 74.1414 21.68 73.9824 21.76C73.3066 22.04 72.591 22.12 71.7562 22.12C71.4779 22.12 71.2394 22.12 71.0008 22.12C69.1722 21.96 68.1783 20.92 67.582 19.8C67.2242 19.28 67.0652 18.68 66.9459 18.24C66.8664 18.08 66.8664 17.88 66.8664 17.8C69.2517 17.72 71.3984 17.36 73.3861 16.32C74.4197 15.68 75.6123 14.84 76.3279 13.56C76.7652 12.72 76.964 11.72 76.964 10.88C76.964 10.6 76.964 10.36 76.8844 10.12C76.4472 7.80001 74.3004 5.96001 70.9611 5.96001C68.6553 5.96001 65.634 6.88001 63.8451 9.76001C63.1693 10.88 62.2152 12.92 62.2152 15.72C62.2152 16.36 62.2947 17 62.3742 17.68C62.573 19.76 63.4476 21.64 64.9185 22.96ZM23.4549 24.52C23.8922 24.8 24.3693 24.96 24.9258 24.96C25.4426 24.96 25.9594 24.88 26.3967 24.52C26.834 24.24 27.0726 23.84 27.0726 23.24C27.0726 23.24 27.0726 13.32 27.0726 13.24C27.0726 12.48 27.3508 11.4 27.7484 10.64C28.1857 9.88001 28.8615 9.24001 29.8951 9.24001C30.4119 9.24001 30.6504 9.40001 30.9287 9.68001C31.366 10.04 31.5648 10.6 31.684 11.24C31.7635 11.88 31.8431 12.44 31.8431 12.8C31.8431 12.88 31.8431 22.92 31.8431 23.24C31.8431 23.88 32.2008 24.28 32.5984 24.52C33.0357 24.8 33.5127 24.96 34.0693 24.96C34.6258 24.96 35.1824 24.88 35.6197 24.52C36.057 24.24 36.375 23.84 36.375 23.24V13.24C36.375 12.48 36.6533 11.4 37.0508 10.64C37.4881 9.88001 38.164 9.24001 39.1976 9.24001C39.7144 9.24001 39.9529 9.40001 40.2312 9.68001C40.6685 10.04 40.8672 10.6 40.9865 11.24C41.066 11.88 41.1455 12.44 41.1455 12.8C41.1455 12.88 41.1455 22.56 41.1455 23.24C41.1455 23.88 41.5033 24.28 41.9008 24.52C42.3381 24.8 42.8152 24.96 43.3717 24.96C43.8885 24.96 44.4849 24.88 44.9222 24.52C45.3595 24.24 45.6775 23.84 45.6775 23.24V13.44C45.6775 10.92 45.1607 9.12001 44.2861 7.80001C43.3717 6.52001 42.0599 5.92001 40.4299 5.92001C38.8795 5.92001 37.7664 6.68001 36.9316 7.48001C36.2955 8.12001 36.0172 8.68001 35.739 9.24001C35.3812 8.20001 34.8246 7.40001 34.109 6.92001C33.2742 6.24001 32.2803 6.00001 31.0877 6.00001C29.1398 6.00001 27.8279 7.20001 26.9533 8.32001V8.24001C26.9533 7.60001 26.675 7.20001 26.2775 6.96001C25.8402 6.68001 25.3631 6.52001 24.8066 6.52001C24.2898 6.52001 23.773 6.60001 23.3357 6.96001C22.8586 7.20001 22.6201 7.60001 22.6201 8.20001C22.6201 8.20001 22.6201 22.88 22.6201 23.2C22.6996 23.72 23.0176 24.16 23.4549 24.52ZM51.3623 6.80001C50.925 6.52001 50.448 6.36001 49.8914 6.36001C49.3746 6.36001 48.8578 6.44001 48.4205 6.80001C47.9832 7.08001 47.7447 7.48001 47.7447 8.08001C47.7447 8.08001 47.7447 22.76 47.7447 23.08C47.7447 23.72 48.023 24.12 48.4205 24.36C48.8578 24.64 49.3349 24.8 49.8914 24.8C50.4082 24.8 50.925 24.72 51.3623 24.36C51.7996 24.08 52.0381 23.68 52.0381 23.08C52.0381 23.08 52.0381 8.40001 52.0381 8.08001C51.9984 7.56001 51.7599 7.16001 51.3623 6.80001ZM95.6086 14.6C95.6086 14.52 95.5291 14.44 95.4496 14.32C95.3701 14.32 95.2906 14.32 95.1713 14.4C95.1713 14.4 95.0918 14.48 95.0123 14.56C94.9328 14.64 94.6545 14.92 94.3763 15.2C93.8595 15.72 93.1041 16.4 92.15 17.16C91.4742 17.8 90.5996 18.44 89.6455 19.12C89.6455 18.84 89.566 18.6 89.566 18.36C89.2877 17.32 88.7312 16.52 87.9361 15.84C86.823 14.92 85.3521 14.28 84.239 13.6C83.6029 13.24 83.1258 12.92 82.7681 12.48C82.4103 12.04 82.132 11.64 82.0922 11.08C82.0922 11 82.0922 10.92 82.0922 10.72C82.0922 10.2 82.2513 9.60001 82.7681 9.16001C83.0463 8.88001 83.6824 8.48001 84.716 8.48001C85.9881 8.48001 87.0217 9.00001 87.6578 9.00001C88.3336 9.00001 88.9299 8.64001 89.1287 7.96001C89.1287 7.88001 89.2082 7.68001 89.2082 7.52001C89.2082 6.76001 88.5722 6.04001 87.7373 5.88001C87.7373 5.88001 86.982 5.60001 85.4316 5.60001C83.2054 5.60001 81.3767 6.12001 80.1045 7.16001C78.8324 8.08001 78.1566 9.48001 78.1566 11.12C78.1566 11.56 78.2361 11.96 78.3156 12.52C78.8324 14.48 80.7008 15.56 82.5295 16.48C83.3644 16.92 84.3582 17.4 84.9148 17.88C85.5906 18.4 86.0279 18.92 86.1074 19.44C86.1074 19.52 86.1074 19.6 86.1074 19.72C86.1074 20.24 85.8291 20.76 85.4316 21.2C84.9943 21.56 84.239 21.88 83.2054 21.88H83.1258C82.0127 21.88 81.0984 21.52 80.3828 21.24C80.1045 21.08 79.7467 21.08 79.548 21.08C78.8722 21.08 78.3553 21.52 78.2758 22.2C78.2758 22.28 78.2758 22.36 78.2758 22.36C78.2758 22.88 78.5541 23.2 78.9119 23.56C79.4287 24 80.184 24.32 80.8599 24.48C73.0283 28.44 62.1754 32 48.4205 32C34.5066 32 23.614 28.36 15.7426 24.4C17.3726 24.04 18.6844 23.48 19.5988 22.56C20.9902 21.28 21.6263 19.6 21.6263 17.84C21.6263 17.4 21.6263 17.08 21.5467 16.64C21.2685 15.24 20.6324 14.24 19.6783 13.36C18.2074 12.08 16.339 11.12 14.7885 10.2C14.0332 9.76001 13.2381 9.28001 12.7611 8.72001C12.284 8.16001 11.9263 7.68001 11.8467 7.08001C11.8467 6.92001 11.8467 6.72001 11.8467 6.56001C11.8467 5.80001 12.125 5.00001 12.7611 4.40001C13.3972 3.76001 14.391 3.36001 15.8619 3.36001C16.6172 3.36001 17.6111 3.52001 18.6049 3.80001C18.9627 3.88001 19.241 3.96001 19.4398 3.96001C20.1951 3.96001 20.7119 3.52001 20.9902 3.04001C21.0697 2.88001 21.0697 2.60001 21.0697 2.40001C21.0697 1.88001 20.7914 1.48001 20.4336 1.20001C20.0758 0.920012 19.5988 0.680012 19.0422 0.560012C18.0086 0.400012 17.0148 0.200012 15.7824 0.200012C12.7611 0.200012 10.5349 1.04001 9.06396 2.36001C7.59306 3.68001 6.99674 5.40001 6.99674 7.04001C6.99674 7.40001 6.99674 7.72001 7.07625 8.08001C7.51355 10.4 9.4615 11.96 11.489 13.16C13.4369 14.36 15.5439 15.4 16.2992 16.44C16.7365 17.08 16.9353 17.72 16.9353 18.4C16.9353 19.08 16.657 19.8 16.2992 20.24C15.5439 21.16 14.1525 21.8 12.6021 21.8C11.6877 21.8 10.6541 21.52 9.77953 21.04C9.70002 21.04 9.62051 20.96 9.62051 20.96C7.47379 19.56 5.68486 18.2 4.37297 17.08C3.33937 16.24 2.54429 15.52 2.14674 15.12C1.86847 14.84 1.70945 14.68 1.51068 14.48C1.43117 14.4 1.35166 14.32 1.35166 14.32C1.27215 14.24 1.19265 14.24 1.07338 14.24C0.993875 14.24 0.914367 14.32 0.914367 14.52C0.795105 14.8 0.795105 15.32 0.795105 15.84V15.92C0.795105 17.4 1.31191 18.52 2.62379 19.72C2.98158 20.08 20.4734 37.96 48.5 37.96C76.5664 37.96 94.0582 20.08 94.3763 19.72C95.6484 18.52 96.2049 17.4 96.2049 15.92V15.88C95.6881 15.44 95.6881 15 95.6086 14.6Z" fill="white"/>
</svg>
