<svg width="198" height="81" viewBox="0 0 198 81" fill="none" xmlns="http://www.w3.org/2000/svg">
<path d="M101.84 12.312C104.437 12.312 106.385 10.206 106.385 7.77599C106.385 5.18399 104.275 3.23999 101.84 3.23999C99.2435 3.23999 97.296 5.34599 97.296 7.77599C97.296 10.206 99.4058 12.312 101.84 12.312ZM120.423 52.812C122.127 52.812 123.75 52.245 124.967 51.759C126.266 51.192 127.077 50.463 127.402 49.896C127.726 49.572 127.97 49.005 127.97 48.519C127.97 48.195 127.807 47.79 127.645 47.223C127.077 46.332 126.266 45.846 125.373 45.846C125.211 45.846 125.048 45.846 124.805 45.846C124.237 46.008 124.075 46.17 123.75 46.17C123.426 46.332 123.02 46.332 122.452 46.332C121.397 46.332 120.91 46.008 120.585 45.603C120.585 45.603 119.855 44.712 119.693 43.902C119.368 42.363 119.368 40.176 119.368 38.637C119.368 38.07 119.368 6.96599 119.368 6.15599C119.368 4.85999 118.8 4.04999 117.989 3.56399C117.096 2.99699 116.122 2.67299 114.986 2.67299C113.85 2.67299 112.876 2.83499 111.984 3.56399C111.091 4.13099 110.604 4.94099 110.604 6.15599V43.092C110.604 45.198 111.172 47.466 112.714 49.491C114.256 51.435 116.69 52.812 120.423 52.812ZM138.113 22.599C140.223 19.44 142.657 19.035 143.712 19.035C145.416 19.035 147.283 20.331 147.689 22.842C147.689 23.409 147.851 23.733 147.851 24.219C147.851 26.082 147.121 27.783 146.147 28.917C143.55 31.914 139.817 32.643 136.003 33.048C136.003 32.724 136.003 32.319 136.003 31.995C136.003 28.917 136.49 25.029 138.113 22.599ZM132.514 48.519C135.354 51.354 139.33 52.893 144.199 52.893C146.796 52.893 149.312 52.326 151.178 51.597C152.071 51.273 152.882 50.706 153.45 50.22C154.018 49.653 154.343 48.924 154.343 48.357C154.343 48.195 154.343 48.195 154.343 48.033C154.18 46.737 153.044 45.927 151.908 45.927C151.584 45.927 151.34 45.927 151.016 46.089C149.636 46.656 148.176 46.818 146.471 46.818C145.903 46.818 145.416 46.818 144.93 46.818C141.197 46.494 139.168 44.388 137.951 42.12C137.221 41.067 136.896 39.852 136.653 38.961C136.49 38.637 136.49 38.232 136.49 38.07C141.359 37.908 145.741 37.179 149.798 35.073C151.908 33.777 154.343 32.076 155.803 29.484C156.696 27.783 157.102 25.758 157.102 24.057C157.102 23.49 157.102 23.004 156.939 22.518C156.047 17.82 151.665 14.094 144.848 14.094C140.142 14.094 133.975 15.957 130.323 21.789C128.944 24.057 126.996 28.188 126.996 33.858C126.996 35.154 127.158 36.45 127.321 37.827C127.726 42.039 129.512 45.846 132.514 48.519ZM47.8771 51.678C48.7698 52.245 49.7435 52.569 50.8796 52.569C51.9345 52.569 52.9894 52.407 53.8821 51.678C54.7747 51.111 55.2616 50.301 55.2616 49.086C55.2616 49.086 55.2616 28.998 55.2616 28.836C55.2616 27.297 55.8296 25.11 56.6411 23.571C57.5337 22.032 58.9132 20.736 61.023 20.736C62.078 20.736 62.5648 21.06 63.1329 21.627C64.0255 22.356 64.4312 23.49 64.6747 24.786C64.837 26.082 64.9993 27.216 64.9993 27.945C64.9993 28.107 64.9993 48.438 64.9993 49.086C64.9993 50.382 65.7296 51.192 66.5411 51.678C67.4337 52.245 68.4075 52.569 69.5435 52.569C70.6796 52.569 71.8157 52.407 72.7083 51.678C73.6009 51.111 74.2501 50.301 74.2501 49.086V28.836C74.2501 27.297 74.8181 25.11 75.6296 23.571C76.5222 22.032 77.9017 20.736 80.0116 20.736C81.0665 20.736 81.5534 21.06 82.1214 21.627C83.014 22.356 83.4198 23.49 83.6632 24.786C83.8255 26.082 83.9878 27.216 83.9878 27.945C83.9878 28.107 83.9878 47.709 83.9878 49.086C83.9878 50.382 84.7181 51.192 85.5296 51.678C86.4222 52.245 87.396 52.569 88.5321 52.569C89.587 52.569 90.8042 52.407 91.6968 51.678C92.5894 51.111 93.2386 50.301 93.2386 49.086V29.241C93.2386 24.138 92.1837 20.493 90.3985 17.82C88.5321 15.228 85.8542 14.013 82.5271 14.013C79.3624 14.013 77.0903 15.552 75.3862 17.172C74.0878 18.468 73.5198 19.602 72.9517 20.736C72.2214 18.63 71.0853 17.01 69.6247 16.038C67.9206 14.661 65.8919 14.175 63.4575 14.175C59.4812 14.175 56.8034 16.605 55.0181 18.873V18.711C55.0181 17.415 54.4501 16.605 53.6386 16.119C52.746 15.552 51.7722 15.228 50.6362 15.228C49.5812 15.228 48.5263 15.39 47.6337 16.119C46.6599 16.605 46.173 17.415 46.173 18.63C46.173 18.63 46.173 48.357 46.173 49.005C46.3353 50.058 46.9845 50.949 47.8771 51.678ZM104.843 15.795C103.95 15.228 102.976 14.904 101.84 14.904C100.785 14.904 99.7304 15.066 98.8378 15.795C97.9452 16.362 97.4583 17.172 97.4583 18.387C97.4583 18.387 97.4583 48.114 97.4583 48.762C97.4583 50.058 98.0263 50.868 98.8378 51.354C99.7304 51.921 100.704 52.245 101.84 52.245C102.895 52.245 103.95 52.083 104.843 51.354C105.735 50.787 106.222 49.977 106.222 48.762C106.222 48.762 106.222 19.035 106.222 18.387C106.141 17.334 105.654 16.524 104.843 15.795ZM195.16 31.59C195.16 31.428 194.998 31.266 194.835 31.023C194.673 31.023 194.511 31.023 194.267 31.185C194.267 31.185 194.105 31.347 193.943 31.509C193.78 31.671 193.212 32.238 192.644 32.805C191.589 33.858 190.048 35.235 188.1 36.774C186.721 38.07 184.935 39.366 182.988 40.743C182.988 40.176 182.826 39.69 182.826 39.204C182.257 37.098 181.121 35.478 179.498 34.101C177.226 32.238 174.224 30.942 171.952 29.565C170.653 28.836 169.68 28.188 168.949 27.297C168.219 26.406 167.651 25.596 167.57 24.462C167.57 24.3 167.57 24.138 167.57 23.733C167.57 22.68 167.894 21.465 168.949 20.574C169.517 20.007 170.816 19.197 172.926 19.197C175.522 19.197 177.632 20.25 178.93 20.25C180.31 20.25 181.527 19.521 181.933 18.144C181.933 17.982 182.095 17.577 182.095 17.253C182.095 15.714 180.797 14.256 179.093 13.932C179.093 13.932 177.551 13.365 174.386 13.365C169.842 13.365 166.109 14.418 163.512 16.524C160.916 18.387 159.536 21.222 159.536 24.543C159.536 25.434 159.698 26.244 159.861 27.378C160.916 31.347 164.73 33.534 168.462 35.397C170.166 36.288 172.195 37.26 173.331 38.232C174.711 39.285 175.603 40.338 175.766 41.391C175.766 41.553 175.766 41.715 175.766 41.958C175.766 43.011 175.198 44.064 174.386 44.955C173.494 45.684 171.952 46.332 169.842 46.332H169.68C167.407 46.332 165.541 45.603 164.08 45.036C163.512 44.712 162.782 44.712 162.376 44.712C160.997 44.712 159.942 45.603 159.78 46.98C159.78 47.142 159.78 47.304 159.78 47.304C159.78 48.357 160.348 49.005 161.078 49.734C162.133 50.625 163.675 51.273 165.054 51.597C149.068 59.616 126.915 66.825 98.8378 66.825C70.4362 66.825 48.2017 59.454 32.1345 51.435C35.4616 50.706 38.1394 49.572 40.0058 47.709C42.846 45.117 44.1444 41.715 44.1444 38.151C44.1444 37.26 44.1444 36.612 43.9821 35.721C43.414 32.886 42.1157 30.861 40.1681 29.079C37.1657 26.487 33.3517 24.543 30.187 22.68C28.6452 21.789 27.0222 20.817 26.0485 19.683C25.0747 18.549 24.3444 17.577 24.1821 16.362C24.1821 16.038 24.1821 15.633 24.1821 15.309C24.1821 13.77 24.7501 12.15 26.0485 10.935C27.3468 9.63899 29.3755 8.82899 32.378 8.82899C33.9198 8.82899 35.9485 9.15299 37.9771 9.71999C38.7075 9.88199 39.2755 10.044 39.6812 10.044C41.223 10.044 42.278 9.15299 42.846 8.18099C43.0083 7.85699 43.0083 7.28999 43.0083 6.88499C43.0083 5.83199 42.4403 5.02199 41.7099 4.45499C40.9796 3.88799 40.0058 3.40199 38.8698 3.15899C36.7599 2.83499 34.7312 2.42999 32.2157 2.42999C26.0485 2.42999 21.5042 4.13099 18.5017 6.80399C15.4993 9.47699 14.2821 12.96 14.2821 16.281C14.2821 17.01 14.2821 17.658 14.4444 18.387C15.337 23.085 19.3132 26.244 23.4517 28.674C27.428 31.104 31.7288 33.21 33.2706 35.316C34.1632 36.612 34.5689 37.908 34.5689 39.285C34.5689 40.662 34.0009 42.12 33.2706 43.011C31.7288 44.874 28.8886 46.17 25.7239 46.17C23.8575 46.17 21.7476 45.603 19.9624 44.631C19.8001 44.631 19.6378 44.469 19.6378 44.469C15.2558 41.634 11.6042 38.88 8.92633 36.612C6.81649 34.911 5.19354 33.453 4.38206 32.643C3.81403 32.076 3.48944 31.752 3.0837 31.347C2.92141 31.185 2.75911 31.023 2.75911 31.023C2.59682 30.861 2.43452 30.861 2.19108 30.861C2.02878 30.861 1.86649 31.023 1.86649 31.428C1.62305 31.995 1.62305 33.048 1.62305 34.101V34.263C1.62305 37.26 2.67796 39.528 5.35583 41.958C6.08616 42.687 41.7911 78.894 99.0001 78.894C156.29 78.894 191.995 42.687 192.644 41.958C195.241 39.528 196.377 37.26 196.377 34.263V34.182C195.322 33.291 195.322 32.4 195.16 31.59Z" fill="white"/>
</svg>
